<svg width="48" height="48" viewBox="0 0 48 48" fill="none" xmlns="http://www.w3.org/2000/svg">
<rect width="48" height="48" rx="5" fill="#5AC8D2"/>
<path d="M35.1719 39.813H12.8279C12.3037 39.813 11.801 39.6047 11.4303 39.2341C11.0597 38.8634 10.8514 38.3607 10.8514 37.8365V10.1659C10.8514 9.64173 11.0597 9.13901 11.4303 8.76835C11.801 8.39769 12.3037 8.18945 12.8279 8.18945H35.1719C35.6961 8.18945 36.1988 8.39769 36.5695 8.76835C36.9401 9.13901 37.1484 9.64173 37.1484 10.1659V37.8365C37.1484 38.3607 36.9401 38.8634 36.5695 39.2341C36.1988 39.6047 35.6961 39.813 35.1719 39.813ZM12.8279 9.17769C12.5658 9.17769 12.3145 9.28181 12.1291 9.46714C11.9438 9.65247 11.8397 9.90383 11.8397 10.1659V37.8365C11.8397 38.0986 11.9438 38.35 12.1291 38.5353C12.3145 38.7206 12.5658 38.8247 12.8279 38.8247H35.1719C35.434 38.8247 35.6854 38.7206 35.8707 38.5353C36.056 38.35 36.1601 38.0986 36.1601 37.8365V10.1659C36.1601 9.90383 36.056 9.65247 35.8707 9.46714C35.6854 9.28181 35.434 9.17769 35.1719 9.17769H12.8279Z" fill="white"/>
<path d="M18.4064 18.5656C17.178 18.553 15.969 18.2571 14.8735 17.7009C14.7903 17.6601 14.7203 17.5969 14.6714 17.5182C14.6225 17.4396 14.5966 17.3488 14.5968 17.2562C14.6127 16.6147 14.8163 15.9919 15.1826 15.4649C15.5488 14.938 16.0615 14.53 16.6573 14.2915C16.3618 13.8584 16.2404 13.3299 16.3171 12.8113C16.3938 12.2927 16.663 11.822 17.0712 11.493C17.4793 11.164 17.9965 11.0008 18.5195 11.0359C19.0426 11.0711 19.5332 11.3019 19.8937 11.6825C20.2302 12.0214 20.4395 12.466 20.4863 12.9413C20.5331 13.4166 20.4146 13.8934 20.1507 14.2915C20.4833 14.4369 20.7929 14.63 21.0697 14.8647C21.4221 15.1534 21.7068 15.5158 21.904 15.9264C22.1012 16.337 22.2061 16.7859 22.2112 17.2414C22.2113 17.334 22.1855 17.4248 22.1366 17.5034C22.0876 17.582 22.0176 17.6453 21.9344 17.6861C20.8417 18.2467 19.6344 18.5476 18.4064 18.5656ZM15.5999 16.9647C16.4737 17.377 17.4279 17.5909 18.3941 17.5909C19.3603 17.5909 20.3145 17.377 21.1883 16.9647C21.101 16.4442 20.827 15.9734 20.4175 15.6404C20.0421 15.3292 19.5958 15.1153 19.118 15.0178C19.0236 14.9946 18.9381 14.9441 18.8723 14.8726C18.8065 14.8011 18.7632 14.7117 18.7479 14.6157C18.7326 14.5197 18.746 14.4214 18.7863 14.3329C18.8266 14.2445 18.8922 14.1699 18.9747 14.1185C19.1174 14.0328 19.2388 13.9158 19.3296 13.7762C19.4203 13.6366 19.4781 13.4782 19.4986 13.313C19.5191 13.1478 19.5017 12.9801 19.4477 12.8226C19.3938 12.6651 19.3047 12.5219 19.1872 12.404C19.0355 12.2442 18.8392 12.1338 18.6239 12.0871C18.4086 12.0404 18.1843 12.0597 17.9801 12.1423C17.7759 12.225 17.6013 12.3672 17.479 12.5505C17.3568 12.7337 17.2925 12.9496 17.2947 13.1698C17.2939 13.3612 17.3432 13.5495 17.4377 13.7159C17.5322 13.8823 17.6685 14.0211 17.8333 14.1185C17.9172 14.1683 17.9844 14.2418 18.0267 14.3297C18.0689 14.4176 18.0841 14.5161 18.0704 14.6127C18.0547 14.7112 18.0094 14.8027 17.9406 14.875C17.8718 14.9473 17.7827 14.9971 17.685 15.0178C17.1817 15.0943 16.7133 15.3211 16.3412 15.6686C15.9691 16.016 15.7106 16.4678 15.5999 16.9647ZM32.894 14.0889H23.5799C23.4488 14.0889 23.3231 14.0368 23.2305 13.9442C23.1378 13.8515 23.0857 13.7258 23.0857 13.5948C23.0857 13.4637 23.1378 13.338 23.2305 13.2454C23.3231 13.1527 23.4488 13.1007 23.5799 13.1007H32.894C33.025 13.1007 33.1507 13.1527 33.2434 13.2454C33.336 13.338 33.3881 13.4637 33.3881 13.5948C33.3881 13.7258 33.336 13.8515 33.2434 13.9442C33.1507 14.0368 33.025 14.0889 32.894 14.0889ZM28.2443 16.5397H23.5799C23.4488 16.5397 23.3231 16.4877 23.2305 16.395C23.1378 16.3023 23.0857 16.1767 23.0857 16.0456C23.0857 15.9146 23.1378 15.7889 23.2305 15.6962C23.3231 15.6035 23.4488 15.5515 23.5799 15.5515H28.2443C28.3754 15.5515 28.5011 15.6035 28.5937 15.6962C28.6864 15.7889 28.7384 15.9146 28.7384 16.0456C28.7384 16.1767 28.6864 16.3023 28.5937 16.395C28.5011 16.4877 28.3754 16.5397 28.2443 16.5397ZM18.4064 27.7562C17.178 27.7436 15.969 27.4477 14.8735 26.8915C14.7968 26.8507 14.7322 26.7904 14.6862 26.7166C14.6402 26.6429 14.6145 26.5583 14.6116 26.4715C14.6275 25.83 14.8312 25.2072 15.1974 24.6802C15.5636 24.1533 16.0764 23.7453 16.6721 23.5068C16.4613 23.1913 16.3403 22.8243 16.3222 22.4453C16.3041 22.0663 16.3895 21.6895 16.5693 21.3553C16.7491 21.0211 17.0165 20.7422 17.3427 20.5485C17.669 20.3547 18.0418 20.2534 18.4213 20.2555C18.9799 20.2653 19.5122 20.4942 19.9036 20.8929C20.2923 21.2881 20.509 21.8209 20.5064 22.3752C20.5023 22.7748 20.3822 23.1645 20.1606 23.4969C20.4931 23.6423 20.8027 23.8354 21.0796 24.0701C21.4333 24.3624 21.7181 24.7292 21.9137 25.1443C22.1093 25.5594 22.2109 26.0126 22.2112 26.4715C22.2113 26.5641 22.1855 26.6549 22.1366 26.7335C22.0876 26.8121 22.0176 26.8754 21.9344 26.9162C20.8384 27.4631 19.6313 27.7505 18.4064 27.7562ZM15.5999 26.1454C16.4737 26.5577 17.4279 26.7716 18.3941 26.7716C19.3603 26.7716 20.3145 26.5577 21.1883 26.1454C21.101 25.6249 20.827 25.1541 20.4175 24.8211C20.0421 24.5099 19.5958 24.296 19.118 24.1985C19.021 24.1782 18.9324 24.1291 18.8637 24.0577C18.795 23.9864 18.7493 23.896 18.7326 23.7983C18.7184 23.7022 18.7329 23.6041 18.7742 23.5163C18.8155 23.4284 18.8818 23.3546 18.9648 23.3042C19.1261 23.2071 19.2599 23.0703 19.3533 22.9068C19.4467 22.7433 19.4967 22.5586 19.4984 22.3703C19.4984 22.0768 19.3818 21.7952 19.1743 21.5877C18.9667 21.3801 18.6852 21.2635 18.3916 21.2635C18.0981 21.2635 17.8166 21.3801 17.609 21.5877C17.4014 21.7952 17.2848 22.0768 17.2848 22.3703C17.284 22.5617 17.3333 22.7499 17.4278 22.9164C17.5223 23.0828 17.6587 23.2216 17.8234 23.319C17.9073 23.3688 17.9746 23.4422 18.0168 23.5302C18.059 23.6181 18.0742 23.7166 18.0606 23.8131C18.0448 23.9117 17.9995 24.0032 17.9307 24.0755C17.8619 24.1478 17.7728 24.1976 17.6752 24.2183C17.1762 24.2953 16.7118 24.52 16.3419 24.8635C15.972 25.207 15.7135 25.6535 15.5999 26.1454ZM32.894 23.2696H23.5799C23.4488 23.2696 23.3231 23.2175 23.2305 23.1249C23.1378 23.0322 23.0857 22.9065 23.0857 22.7755C23.0857 22.6444 23.1378 22.5188 23.2305 22.4261C23.3231 22.3334 23.4488 22.2814 23.5799 22.2814H32.894C33.025 22.2814 33.1507 22.3334 33.2434 22.4261C33.336 22.5188 33.3881 22.6444 33.3881 22.7755C33.3881 22.9065 33.336 23.0322 33.2434 23.1249C33.1507 23.2175 33.025 23.2696 32.894 23.2696ZM28.2443 25.7204H23.5799C23.4488 25.7204 23.3231 25.6684 23.2305 25.5757C23.1378 25.483 23.0857 25.3574 23.0857 25.2263C23.0857 25.0953 23.1378 24.9696 23.2305 24.8769C23.3231 24.7842 23.4488 24.7322 23.5799 24.7322H28.2443C28.3754 24.7322 28.5011 24.7842 28.5937 24.8769C28.6864 24.9696 28.7384 25.0953 28.7384 25.2263C28.7384 25.3574 28.6864 25.483 28.5937 25.5757C28.5011 25.6684 28.3754 25.7204 28.2443 25.7204ZM18.4064 36.9369C17.178 36.9243 15.969 36.6284 14.8735 36.0722C14.7903 36.0314 14.7203 35.9681 14.6714 35.8895C14.6225 35.8109 14.5966 35.7201 14.5968 35.6275C14.6127 34.986 14.8163 34.3632 15.1826 33.8362C15.5488 33.3093 16.0615 32.9013 16.6573 32.6628C16.4531 32.3476 16.3376 31.9832 16.3229 31.6079C16.3082 31.2326 16.3949 30.8603 16.5739 30.5302C16.7529 30.2 17.0176 29.9242 17.34 29.7317C17.6625 29.5392 18.0309 29.4371 18.4064 29.4362C18.965 29.446 19.4974 29.6749 19.8888 30.0736C20.2775 30.4688 20.4942 31.0016 20.4916 31.556C20.4875 31.9555 20.3673 32.3452 20.1457 32.6776C20.4783 32.823 20.7879 33.0161 21.0648 33.2508C21.4171 33.5395 21.7019 33.9019 21.8991 34.3125C22.0963 34.7232 22.2011 35.172 22.2062 35.6275C22.2064 35.7201 22.1806 35.8109 22.1316 35.8895C22.0827 35.9681 22.0127 36.0314 21.9295 36.0722C20.837 36.6269 19.6316 36.9228 18.4064 36.9369ZM15.5999 35.3261C16.4737 35.7384 17.4279 35.9523 18.3941 35.9523C19.3603 35.9523 20.3145 35.7384 21.1883 35.3261C21.101 34.8056 20.827 34.3348 20.4175 34.0018C20.044 33.6956 19.6012 33.4853 19.1279 33.3891C19.0309 33.3688 18.9423 33.3197 18.8736 33.2483C18.8048 33.1769 18.7592 33.0866 18.7424 32.9889C18.7283 32.8928 18.7428 32.7947 18.7841 32.7069C18.8254 32.619 18.8917 32.5452 18.9747 32.4948C19.136 32.3977 19.2698 32.2609 19.3632 32.0974C19.4566 31.9339 19.5066 31.7492 19.5083 31.5609C19.5083 31.2673 19.3917 30.9858 19.1842 30.7783C18.9766 30.5707 18.6951 30.4541 18.4015 30.4541C18.108 30.4541 17.8264 30.5707 17.6189 30.7783C17.4113 30.9858 17.2947 31.2673 17.2947 31.5609C17.2939 31.7523 17.3432 31.9405 17.4377 32.107C17.5322 32.2734 17.6685 32.4122 17.8333 32.5096C17.9172 32.5594 17.9844 32.6328 18.0267 32.7208C18.0689 32.8087 18.0841 32.9071 18.0704 33.0037C18.0547 33.1023 18.0094 33.1938 17.9406 33.2661C17.8718 33.3384 17.7827 33.3882 17.685 33.4089C17.1856 33.4833 16.72 33.7058 16.3483 34.0475C15.9766 34.3893 15.7159 34.8346 15.5999 35.3261ZM32.894 32.4503H23.5799C23.4488 32.4503 23.3231 32.3983 23.2305 32.3056C23.1378 32.2129 23.0857 32.0872 23.0857 31.9562C23.0857 31.8251 23.1378 31.6995 23.2305 31.6068C23.3231 31.5141 23.4488 31.4621 23.5799 31.4621H32.894C33.025 31.4621 33.1507 31.5141 33.2434 31.6068C33.336 31.6995 33.3881 31.8251 33.3881 31.9562C33.3881 32.0872 33.336 32.2129 33.2434 32.3056C33.1507 32.3983 33.025 32.4503 32.894 32.4503ZM28.2443 34.9011H23.5799C23.4488 34.9011 23.3231 34.8491 23.2305 34.7564C23.1378 34.6637 23.0857 34.5381 23.0857 34.407C23.0857 34.276 23.1378 34.1503 23.2305 34.0576C23.3231 33.965 23.4488 33.9129 23.5799 33.9129H28.2443C28.3754 33.9129 28.5011 33.965 28.5937 34.0576C28.6864 34.1503 28.7384 34.276 28.7384 34.407C28.7384 34.5381 28.6864 34.6637 28.5937 34.7564C28.5011 34.8491 28.3754 34.9011 28.2443 34.9011Z" fill="white"/>
</svg>
