<svg width="777" height="596" viewBox="0 0 777 596" fill="none" xmlns="http://www.w3.org/2000/svg">
<g opacity="0.2">
<path d="M171.163 212.368C170.986 212.368 170.81 212.333 170.633 212.28C168.073 211.471 165.283 210.047 162.334 208.025C161.522 207.48 161.328 206.373 161.875 205.581C162.422 204.773 163.535 204.579 164.329 205.124C166.943 206.918 169.486 208.219 171.693 208.922C172.629 209.221 173.141 210.205 172.84 211.137C172.611 211.876 171.922 212.368 171.163 212.368ZM179.48 211.295C178.985 211.295 178.491 211.084 178.138 210.698C177.502 209.959 177.573 208.852 178.314 208.219C179.833 206.9 181.246 204.579 182.393 201.52C182.729 200.606 183.753 200.149 184.671 200.483C185.589 200.817 186.048 201.837 185.713 202.751C184.353 206.425 182.641 209.168 180.645 210.891C180.31 211.155 179.886 211.295 179.48 211.295ZM156.525 202.751C156.083 202.751 155.642 202.593 155.306 202.259C153.117 200.166 151.086 197.898 149.232 195.525C148.632 194.751 148.773 193.661 149.55 193.063C150.327 192.466 151.422 192.606 152.022 193.38C153.77 195.613 155.695 197.758 157.743 199.727C158.449 200.395 158.467 201.52 157.796 202.206C157.461 202.575 156.984 202.751 156.525 202.751ZM186.243 195.367C186.154 195.367 186.048 195.367 185.943 195.349C184.989 195.191 184.336 194.277 184.495 193.327C184.954 190.62 185.236 187.754 185.342 184.8C185.377 183.833 186.207 183.077 187.179 183.112C188.15 183.148 188.909 183.956 188.874 184.941C188.75 188.035 188.45 191.059 187.973 193.907C187.85 194.769 187.09 195.367 186.243 195.367ZM145.789 188.862C145.153 188.862 144.553 188.527 144.235 187.93C142.681 185.064 141.516 182.216 140.756 179.438C140.492 178.506 141.057 177.539 141.992 177.275C142.928 177.012 143.899 177.574 144.164 178.506C144.853 181.02 145.93 183.64 147.343 186.259C147.802 187.121 147.484 188.176 146.619 188.633C146.372 188.791 146.071 188.862 145.789 188.862ZM186.931 177.838C186.013 177.838 185.254 177.135 185.166 176.22C184.918 173.249 184.495 170.419 183.894 167.781C183.682 166.832 184.265 165.9 185.219 165.672C186.172 165.461 187.108 166.041 187.337 166.99C187.973 169.786 188.432 172.792 188.697 175.922C188.785 176.889 188.061 177.732 187.09 177.82C187.02 177.838 186.967 177.838 186.931 177.838ZM141.516 172.036C141.463 172.036 141.427 172.036 141.374 172.036C140.403 171.966 139.679 171.122 139.75 170.155C139.944 167.5 140.615 164.986 141.71 162.648C141.957 162.12 142.24 161.593 142.54 161.065C143.034 160.221 144.111 159.94 144.959 160.415C145.806 160.907 146.089 161.979 145.612 162.823C145.365 163.263 145.118 163.702 144.924 164.142C144.005 166.076 143.458 168.186 143.281 170.401C143.211 171.333 142.434 172.036 141.516 172.036ZM182.817 160.819C182.146 160.819 181.51 160.45 181.21 159.799C179.904 157.022 178.35 154.824 176.566 153.224C175.842 152.573 175.789 151.466 176.443 150.745C177.096 150.024 178.208 149.971 178.932 150.622C181.069 152.521 182.905 155.123 184.406 158.323C184.812 159.202 184.442 160.257 183.559 160.661C183.329 160.766 183.082 160.819 182.817 160.819ZM149.779 157.057C149.267 157.057 148.773 156.846 148.42 156.424C147.784 155.685 147.89 154.578 148.632 153.945C150.963 151.993 153.699 150.305 156.525 149.057C157.408 148.67 158.467 149.057 158.856 149.954C159.244 150.833 158.856 151.888 157.955 152.275C155.43 153.4 152.993 154.912 150.91 156.652C150.592 156.934 150.186 157.057 149.779 157.057ZM174.377 151.413C174.13 151.413 173.865 151.36 173.635 151.237C171.922 150.446 169.927 150.024 167.702 150.024C167.119 150.024 166.519 150.059 165.919 150.112C164.947 150.2 164.082 149.497 163.994 148.53C163.906 147.563 164.612 146.701 165.583 146.613C166.289 146.543 167.013 146.508 167.702 146.508C170.457 146.508 172.946 147.018 175.136 148.055C176.019 148.477 176.39 149.514 175.984 150.393C175.666 151.044 175.03 151.413 174.377 151.413Z" fill="#11A3AA"/>
<path d="M101.945 259.61C101.927 259.61 101.927 259.61 101.909 259.61C98.8368 259.558 95.8174 259.347 92.9215 258.995C91.9503 258.872 91.2617 258.01 91.3853 257.043C91.5089 256.076 92.3741 255.391 93.3453 255.514C96.1175 255.848 99.0311 256.041 101.98 256.112C102.951 256.129 103.728 256.938 103.71 257.905C103.693 258.837 102.916 259.61 101.945 259.61ZM110.773 259.364C109.855 259.364 109.078 258.661 109.008 257.729C108.937 256.762 109.679 255.918 110.65 255.848C113.528 255.655 116.424 255.321 119.267 254.863C120.238 254.705 121.139 255.373 121.28 256.323C121.439 257.29 120.768 258.186 119.814 258.327C116.865 258.784 113.864 259.136 110.897 259.347C110.862 259.364 110.826 259.364 110.773 259.364ZM84.4634 257.43C84.3222 257.43 84.1809 257.413 84.0397 257.378C80.9849 256.622 78.0713 255.672 75.405 254.564C74.5045 254.195 74.0807 253.158 74.4515 252.261C74.8223 251.365 75.8641 250.943 76.7647 251.312C79.2721 252.349 82.009 253.246 84.8872 253.949C85.8407 254.178 86.4058 255.127 86.1762 256.076C85.982 256.903 85.258 257.43 84.4634 257.43ZM128.202 256.622C127.407 256.622 126.701 256.094 126.489 255.285C126.259 254.336 126.824 253.387 127.778 253.158C130.656 252.437 133.446 251.593 136.042 250.644C136.96 250.31 137.966 250.785 138.302 251.699C138.637 252.613 138.161 253.615 137.242 253.949C134.523 254.934 131.627 255.813 128.625 256.569C128.484 256.604 128.343 256.622 128.202 256.622ZM68.3066 250.556C67.9711 250.556 67.618 250.45 67.3178 250.257C64.6868 248.481 62.3383 246.424 60.3606 244.191C59.7249 243.453 59.7956 242.345 60.5195 241.712C61.2612 241.08 62.3736 241.15 63.0093 241.871C64.7927 243.893 66.9116 245.739 69.2954 247.356C70.1077 247.901 70.3196 248.991 69.7722 249.8C69.4367 250.292 68.8717 250.556 68.3066 250.556ZM144.729 250.503C144.094 250.503 143.493 250.169 143.175 249.571C142.716 248.71 143.034 247.655 143.899 247.198C146.654 245.739 148.985 244.156 150.839 242.504C151.563 241.853 152.675 241.923 153.329 242.644C153.982 243.365 153.911 244.473 153.187 245.123C151.121 246.952 148.561 248.692 145.559 250.292C145.294 250.433 144.994 250.503 144.729 250.503ZM157.072 238.495C156.895 238.495 156.701 238.46 156.525 238.407C155.606 238.108 155.094 237.106 155.395 236.192C155.73 235.19 155.889 234.117 155.889 232.992C155.889 231.638 155.642 230.161 155.147 228.632C154.847 227.7 155.359 226.715 156.295 226.417C157.231 226.118 158.22 226.628 158.52 227.559C159.12 229.441 159.438 231.269 159.438 232.992C159.438 234.486 159.209 235.928 158.767 237.282C158.502 238.038 157.814 238.495 157.072 238.495ZM56.8467 237.475C56.1934 237.475 55.5754 237.106 55.2575 236.491C53.9332 233.818 52.8914 230.9 52.1498 227.858C51.9202 226.909 52.5029 225.959 53.4564 225.731C54.41 225.502 55.3635 226.083 55.593 227.032C56.264 229.827 57.2175 232.482 58.4359 234.926C58.8597 235.805 58.5066 236.842 57.6237 237.282C57.3588 237.423 57.0939 237.475 56.8467 237.475ZM152.799 222.092C152.234 222.092 151.686 221.828 151.351 221.336C149.868 219.208 148.031 217.011 145.895 214.778C145.224 214.074 145.241 212.967 145.948 212.299C146.654 211.631 147.766 211.648 148.437 212.351C150.698 214.725 152.658 217.063 154.229 219.331C154.777 220.122 154.582 221.23 153.788 221.775C153.488 221.986 153.134 222.092 152.799 222.092ZM52.6795 220.509C51.726 220.509 50.9491 219.771 50.9137 218.821C50.8961 218.294 50.8784 217.749 50.8784 217.204C50.8784 214.655 51.0903 212.14 51.5141 209.697C51.673 208.747 52.5912 208.097 53.5624 208.273C54.5159 208.431 55.1693 209.345 54.9927 210.312C54.6042 212.562 54.41 214.883 54.41 217.221C54.41 217.714 54.4276 218.206 54.4276 218.716C54.4629 219.683 53.7037 220.509 52.7325 220.527C52.7148 220.509 52.6972 220.509 52.6795 220.509ZM140.739 209.275C140.333 209.275 139.926 209.134 139.591 208.853C137.437 207.007 135.141 205.213 132.757 203.508C131.963 202.945 131.786 201.838 132.369 201.047C132.952 200.255 134.046 200.08 134.841 200.66C137.295 202.418 139.662 204.282 141.904 206.18C142.646 206.813 142.734 207.921 142.098 208.659C141.745 209.064 141.251 209.275 140.739 209.275ZM55.752 203.35C55.5224 203.35 55.2752 203.297 55.0456 203.209C54.1451 202.822 53.739 201.785 54.1274 200.888C55.3988 197.97 57.0233 195.297 58.9657 192.977C59.5837 192.221 60.6961 192.133 61.4554 192.748C62.2147 193.363 62.303 194.471 61.685 195.227C59.9722 197.284 58.5066 199.675 57.3765 202.295C57.0939 202.945 56.4406 203.35 55.752 203.35ZM126.436 198.99C126.136 198.99 125.818 198.902 125.535 198.743C125.235 198.568 124.953 198.392 124.652 198.234C122.233 196.845 119.638 195.491 116.954 194.207C116.071 193.785 115.7 192.748 116.124 191.869C116.548 190.99 117.589 190.621 118.472 191.043C121.245 192.361 123.928 193.75 126.436 195.192C126.736 195.368 127.054 195.544 127.354 195.737C128.184 196.229 128.467 197.319 127.972 198.146C127.619 198.673 127.036 198.99 126.436 198.99ZM109.573 190.902C109.361 190.902 109.149 190.867 108.937 190.779C106.147 189.707 103.375 188.792 100.709 188.054C99.7727 187.79 99.2253 186.823 99.4902 185.891C99.755 184.96 100.726 184.415 101.662 184.678C104.434 185.452 107.295 186.401 110.191 187.509C111.109 187.86 111.55 188.88 111.215 189.777C110.95 190.463 110.297 190.902 109.573 190.902ZM66.947 190.093C66.3643 190.093 65.7816 189.794 65.4461 189.267C64.934 188.441 65.1812 187.351 66.0111 186.841C68.5891 185.241 71.485 184.028 74.6104 183.219C75.5639 182.973 76.5175 183.553 76.7647 184.485C77.0119 185.417 76.4292 186.384 75.4933 186.63C72.721 187.333 70.1607 188.406 67.8828 189.83C67.5826 190.005 67.2648 190.093 66.947 190.093ZM92.586 186.225C92.4977 186.225 92.4094 186.225 92.3211 186.208C89.5842 185.786 86.9532 185.575 84.4634 185.575C84.2515 185.575 84.022 185.575 83.8101 185.575C83.7924 185.575 83.7924 185.575 83.7748 185.575C82.8036 185.575 82.0267 184.801 82.009 183.834C81.9914 182.867 82.7683 182.059 83.7571 182.059C83.9867 182.059 84.2339 182.059 84.4634 182.059C87.1121 182.059 89.9373 182.287 92.8509 182.727C93.822 182.867 94.4754 183.764 94.3341 184.731C94.1929 185.61 93.4336 186.225 92.586 186.225Z" fill="#11A3AA"/>
<path d="M124.529 548.79C123.558 548.79 122.763 547.999 122.763 547.032C122.763 546.065 123.558 545.274 124.529 545.274C127.389 545.274 130.356 545.221 133.305 545.151C134.276 545.133 135.088 545.889 135.123 546.856C135.159 547.823 134.382 548.632 133.411 548.667C130.409 548.738 127.425 548.79 124.529 548.79ZM115.7 548.685C115.682 548.685 115.664 548.685 115.647 548.685C112.645 548.597 109.661 548.474 106.783 548.316C105.811 548.263 105.07 547.419 105.123 546.452C105.176 545.485 106.023 544.747 106.995 544.799C109.855 544.958 112.786 545.098 115.753 545.169C116.724 545.186 117.501 545.995 117.466 546.979C117.43 547.929 116.653 548.685 115.7 548.685ZM142.169 548.316C141.233 548.316 140.456 547.595 140.403 546.645C140.35 545.678 141.109 544.852 142.08 544.799C144.959 544.659 147.908 544.465 150.856 544.254C151.828 544.184 152.675 544.905 152.746 545.872C152.816 546.839 152.092 547.683 151.121 547.753C148.137 547.964 145.171 548.157 142.275 548.298C142.239 548.298 142.204 548.316 142.169 548.316ZM98.095 547.648C98.0421 547.648 97.9891 547.648 97.9361 547.648C94.952 547.366 91.9678 547.032 89.1072 546.645C88.1361 546.522 87.4651 545.626 87.5887 544.676C87.7123 543.709 88.6128 543.041 89.5664 543.164C92.3916 543.533 95.3051 543.867 98.254 544.149C99.2251 544.237 99.9314 545.098 99.8432 546.065C99.7549 546.962 98.9956 547.648 98.095 547.648ZM159.774 547.032C158.873 547.032 158.096 546.346 158.025 545.432C157.937 544.465 158.643 543.604 159.615 543.516C162.475 543.252 165.424 542.953 168.373 542.619C169.344 542.514 170.209 543.199 170.315 544.166C170.421 545.133 169.732 545.995 168.761 546.118C165.795 546.452 162.828 546.751 159.95 547.015C159.897 547.015 159.826 547.032 159.774 547.032ZM173.034 545.608C172.24 545.608 171.516 545.081 171.322 544.272C171.092 543.322 171.657 542.373 172.611 542.145C175.454 541.441 178.314 540.738 181.175 540.035C182.128 539.806 183.082 540.386 183.311 541.318C183.541 542.268 182.958 543.217 182.022 543.446C179.162 544.149 176.301 544.852 173.458 545.555C173.317 545.59 173.176 545.608 173.034 545.608ZM80.6139 545.292C80.5079 545.292 80.402 545.274 80.296 545.256C77.3295 544.729 74.3984 544.131 71.5731 543.481C70.6196 543.27 70.0369 542.32 70.2488 541.371C70.4607 540.422 71.4142 539.841 72.3677 540.052C75.1223 540.685 78.0005 541.283 80.9141 541.793C81.8676 541.969 82.5033 542.883 82.3443 543.832C82.2031 544.694 81.4614 545.292 80.6139 545.292ZM190.18 541.406C189.386 541.406 188.662 540.861 188.467 540.07C188.238 539.121 188.821 538.171 189.774 537.943C192.688 537.239 195.583 536.536 198.356 535.885C199.309 535.657 200.263 536.237 200.492 537.187C200.722 538.136 200.139 539.085 199.186 539.314C196.413 539.982 193.535 540.668 190.604 541.371C190.445 541.388 190.304 541.406 190.18 541.406ZM63.4506 541.301C63.2916 541.301 63.1151 541.283 62.9561 541.23C60.0426 540.386 57.1997 539.455 54.4804 538.452C53.5622 538.118 53.0855 537.116 53.421 536.202C53.7565 535.288 54.7629 534.813 55.6811 535.147C58.3298 536.114 61.1197 537.028 63.945 537.855C64.8808 538.136 65.4106 539.103 65.1457 540.035C64.9161 540.808 64.2275 541.301 63.4506 541.301ZM207.343 537.327C206.549 537.327 205.825 536.782 205.631 535.973C205.401 535.024 206.001 534.075 206.937 533.864C209.833 533.196 212.729 532.51 215.537 531.877C216.49 531.666 217.426 532.246 217.656 533.196C217.867 534.145 217.285 535.077 216.331 535.305C213.524 535.956 210.628 536.624 207.75 537.292C207.608 537.31 207.467 537.327 207.343 537.327ZM46.9229 535.253C46.6757 535.253 46.4285 535.2 46.1989 535.094C43.4267 533.846 40.7427 532.492 38.2 531.068C37.3524 530.594 37.0522 529.521 37.529 528.677C38.0058 527.833 39.0829 527.534 39.9304 528.009C42.3849 529.38 44.9806 530.681 47.6645 531.895C48.5474 532.299 48.9536 533.336 48.5474 534.215C48.2472 534.866 47.5939 535.253 46.9229 535.253ZM224.542 533.389C223.73 533.389 223.006 532.826 222.829 532.018C222.617 531.068 223.218 530.136 224.171 529.925C227.067 529.275 229.963 528.642 232.806 528.027C233.759 527.816 234.695 528.413 234.907 529.363C235.119 530.312 234.519 531.244 233.565 531.455C230.74 532.07 227.844 532.703 224.948 533.354C224.807 533.371 224.683 533.389 224.542 533.389ZM241.794 529.644C240.981 529.644 240.24 529.082 240.063 528.255C239.869 527.306 240.469 526.374 241.423 526.163C244.336 525.548 247.232 524.95 250.075 524.37C251.029 524.176 251.965 524.792 252.159 525.741C252.353 526.69 251.735 527.622 250.782 527.816C247.956 528.396 245.043 528.994 242.147 529.609C242.041 529.627 241.917 529.644 241.794 529.644ZM31.596 526.638C31.2428 526.638 30.8897 526.532 30.5895 526.321C28.0998 524.581 25.6983 522.735 23.4911 520.801C22.7495 520.168 22.6788 519.042 23.3145 518.322C23.9502 517.601 25.0803 517.513 25.8043 518.146C27.9232 519.992 30.201 521.768 32.6025 523.42C33.3971 523.983 33.5913 525.073 33.0439 525.864C32.7084 526.374 32.1434 526.638 31.596 526.638ZM259.081 526.11C258.251 526.11 257.509 525.53 257.35 524.686C257.156 523.737 257.774 522.805 258.745 522.612C261.641 522.049 264.555 521.469 267.415 520.924C268.369 520.748 269.304 521.363 269.481 522.313C269.658 523.262 269.04 524.194 268.086 524.37C265.226 524.915 262.312 525.477 259.434 526.04C259.31 526.093 259.204 526.11 259.081 526.11ZM276.421 522.805C275.591 522.805 274.849 522.207 274.69 521.363C274.514 520.414 275.149 519.5 276.103 519.324C278.981 518.796 281.912 518.269 284.808 517.777C285.761 517.601 286.68 518.251 286.856 519.201C287.033 520.15 286.38 521.064 285.426 521.24C282.548 521.75 279.634 522.26 276.756 522.787C276.632 522.805 276.526 522.805 276.421 522.805ZM293.813 519.763C292.966 519.763 292.224 519.148 292.065 518.304C291.906 517.355 292.56 516.44 293.513 516.282C296.409 515.807 299.34 515.315 302.236 514.858C303.19 514.7 304.108 515.35 304.267 516.317C304.426 517.284 303.772 518.181 302.801 518.339C299.905 518.796 296.992 519.271 294.096 519.763C294.008 519.763 293.919 519.763 293.813 519.763ZM311.242 517.003C310.376 517.003 309.635 516.388 309.493 515.509C309.352 514.542 310.006 513.645 310.977 513.504C313.873 513.065 316.821 512.625 319.717 512.221C320.689 512.08 321.571 512.748 321.713 513.715C321.854 514.682 321.183 515.561 320.212 515.702C317.316 516.106 314.385 516.546 311.489 516.985C311.418 516.985 311.33 517.003 311.242 517.003ZM18.3703 515.087C17.8936 515.087 17.3992 514.893 17.0637 514.507C15.033 512.256 13.1437 509.883 11.4662 507.439C10.9188 506.63 11.113 505.54 11.9253 504.995C12.7375 504.45 13.8323 504.643 14.3797 505.452C15.9866 507.773 17.77 510.023 19.6947 512.168C20.348 512.889 20.295 513.997 19.5534 514.647C19.2179 514.928 18.7941 515.087 18.3703 515.087ZM328.723 514.507C327.858 514.507 327.098 513.874 326.975 512.977C326.851 512.01 327.522 511.131 328.493 511.008C331.389 510.621 334.338 510.234 337.251 509.865C338.223 509.742 339.106 510.428 339.229 511.395C339.353 512.362 338.664 513.241 337.693 513.364C334.797 513.733 331.848 514.12 328.952 514.507C328.882 514.489 328.793 514.507 328.723 514.507ZM346.239 512.291C345.356 512.291 344.597 511.641 344.491 510.744C344.368 509.777 345.074 508.898 346.027 508.793C348.941 508.441 351.89 508.107 354.803 507.79C355.774 507.685 356.64 508.371 356.746 509.338C356.852 510.305 356.163 511.166 355.192 511.271C352.296 511.588 349.347 511.922 346.433 512.274C346.38 512.274 346.31 512.291 346.239 512.291ZM363.791 510.34C362.89 510.34 362.131 509.672 362.043 508.757C361.937 507.79 362.643 506.929 363.614 506.823C366.528 506.524 369.494 506.226 372.408 505.962C373.379 505.874 374.244 506.577 374.333 507.544C374.421 508.511 373.715 509.373 372.743 509.461C369.83 509.742 366.881 510.023 363.968 510.322C363.897 510.34 363.844 510.34 363.791 510.34ZM381.36 508.687C380.46 508.687 379.683 508.001 379.595 507.087C379.506 506.12 380.23 505.259 381.202 505.188C384.115 504.942 387.082 504.696 390.013 504.467C390.984 504.38 391.832 505.118 391.92 506.085C391.99 507.052 391.266 507.896 390.295 507.984C387.382 508.212 384.415 508.458 381.519 508.705C381.466 508.687 381.413 508.687 381.36 508.687ZM398.965 507.298C398.047 507.298 397.27 506.595 397.199 505.663C397.129 504.696 397.87 503.852 398.842 503.782C401.755 503.571 404.722 503.377 407.67 503.184C408.642 503.114 409.489 503.852 409.542 504.819C409.613 505.786 408.871 506.63 407.9 506.683C404.969 506.876 402.002 507.07 399.106 507.28C399.036 507.298 399.001 507.298 398.965 507.298ZM416.57 506.173C415.634 506.173 414.857 505.452 414.804 504.52C414.751 503.553 415.493 502.727 416.464 502.674C419.395 502.516 422.362 502.358 425.293 502.217C426.264 502.182 427.094 502.92 427.147 503.887C427.2 504.854 426.441 505.681 425.469 505.733C422.538 505.874 419.589 506.032 416.676 506.19C416.641 506.173 416.605 506.173 416.57 506.173ZM434.21 505.311C433.274 505.311 432.48 504.573 432.444 503.624C432.409 502.657 433.168 501.83 434.139 501.795C437.053 501.672 440.037 501.566 442.968 501.461C443.94 501.426 444.752 502.182 444.787 503.149C444.822 504.116 444.063 504.925 443.092 504.96C440.161 505.065 437.194 505.171 434.281 505.294C434.263 505.311 434.228 505.311 434.21 505.311ZM531.292 504.766C528.75 504.749 526.119 504.714 523.488 504.643L522.428 504.626C521.457 504.608 520.68 503.799 520.698 502.832C520.715 501.865 521.528 501.092 522.499 501.109L523.558 501.127C526.172 501.197 528.767 501.232 531.292 501.232C532.263 501.232 533.058 502.024 533.058 502.991C533.058 503.975 532.263 504.766 531.292 504.766ZM451.85 504.714C450.897 504.714 450.12 503.958 450.084 503.008C450.049 502.041 450.826 501.232 451.797 501.197C454.711 501.109 457.677 501.039 460.626 500.986C460.644 500.986 460.644 500.986 460.661 500.986C461.615 500.986 462.409 501.742 462.427 502.709C462.445 503.676 461.668 504.485 460.697 504.503C457.748 504.555 454.781 504.643 451.885 504.714C451.885 504.714 451.868 504.714 451.85 504.714ZM540.121 504.696C539.168 504.696 538.373 503.94 538.355 502.973C538.338 502.006 539.115 501.197 540.086 501.18C543.052 501.127 546.001 501.022 548.844 500.881C549.815 500.828 550.645 501.584 550.698 502.551C550.751 503.518 549.992 504.344 549.021 504.397C546.142 504.538 543.158 504.643 540.156 504.696C540.139 504.696 540.139 504.696 540.121 504.696ZM513.652 504.432C513.635 504.432 513.635 504.432 513.617 504.432C510.668 504.38 507.702 504.344 504.806 504.309C503.835 504.292 503.058 503.5 503.058 502.534C503.075 501.567 503.852 500.793 504.823 500.793H504.841C507.755 500.828 510.721 500.863 513.688 500.916C514.659 500.934 515.436 501.742 515.418 502.709C515.4 503.676 514.606 504.432 513.652 504.432ZM469.508 504.344C468.537 504.344 467.76 503.571 467.742 502.604C467.724 501.637 468.501 500.828 469.49 500.828C472.421 500.793 475.388 500.758 478.337 500.74H478.354C479.326 500.74 480.12 501.514 480.12 502.481C480.12 503.448 479.343 504.239 478.372 504.257C475.441 504.274 472.474 504.309 469.561 504.344C469.526 504.344 469.508 504.344 469.508 504.344ZM495.995 504.239C493.505 504.221 490.98 504.221 488.508 504.221H487.183C486.212 504.221 485.418 503.43 485.418 502.463C485.418 501.496 486.212 500.705 487.183 500.705H488.525C491.015 500.705 493.54 500.705 496.03 500.723C497.001 500.723 497.796 501.514 497.778 502.498C497.743 503.448 496.966 504.239 495.995 504.239ZM557.726 503.817C556.808 503.817 556.048 503.114 555.96 502.199C555.872 501.232 556.596 500.389 557.567 500.301C560.516 500.055 563.447 499.773 566.272 499.422C567.244 499.299 568.126 500.002 568.232 500.951C568.356 501.918 567.65 502.797 566.696 502.903C563.836 503.237 560.851 503.536 557.867 503.782C557.832 503.817 557.779 503.817 557.726 503.817ZM575.225 501.725C574.377 501.725 573.618 501.109 573.477 500.248C573.318 499.281 573.971 498.384 574.942 498.226C577.838 497.751 580.734 497.224 583.524 496.644C584.477 496.45 585.413 497.048 585.608 497.997C585.802 498.947 585.201 499.879 584.248 500.072C581.405 500.67 578.456 501.215 575.507 501.69C575.419 501.707 575.331 501.725 575.225 501.725ZM8.41138 500.635C7.75805 500.635 7.14003 500.283 6.83985 499.668C5.4802 496.96 4.29713 494.165 3.34361 491.334C3.02577 490.42 3.53785 489.418 4.45605 489.101C5.37425 488.785 6.38074 489.295 6.69858 490.209C7.59913 492.881 8.71157 495.536 10.0006 498.085C10.442 498.947 10.0889 500.002 9.22364 500.441C8.95877 500.582 8.67625 500.635 8.41138 500.635ZM592.476 498.103C591.699 498.103 590.976 497.576 590.764 496.784C590.516 495.853 591.081 494.886 592.017 494.639C594.825 493.901 597.65 493.092 600.387 492.213C601.323 491.914 602.312 492.424 602.612 493.356C602.912 494.288 602.4 495.272 601.464 495.571C598.657 496.468 595.778 497.294 592.918 498.05C592.777 498.085 592.635 498.103 592.476 498.103ZM609.269 492.776C608.563 492.776 607.874 492.336 607.609 491.633C607.274 490.719 607.733 489.717 608.633 489.365C611.3 488.363 614.019 487.273 616.738 486.112C617.639 485.726 618.68 486.148 619.051 487.027C619.44 487.923 619.016 488.961 618.133 489.33C615.378 490.508 612.606 491.633 609.887 492.635C609.693 492.741 609.481 492.776 609.269 492.776ZM625.479 485.849C624.825 485.849 624.19 485.479 623.89 484.847C623.466 483.967 623.837 482.913 624.719 482.508C627.262 481.295 629.823 480.012 632.542 478.605C633.407 478.148 634.466 478.482 634.926 479.344C635.385 480.205 635.049 481.26 634.184 481.717C631.412 483.159 628.816 484.442 626.256 485.673C625.991 485.796 625.726 485.849 625.479 485.849ZM2.83154 484.003C1.98397 484.003 1.24234 483.405 1.10108 482.543C0.447743 478.799 0.341797 476.073 0.341797 474.79C0.341797 474.386 0.359455 474.175 0.359455 474.139V474.087C0.377112 473.823 0.412428 473.559 0.430086 473.296C0.518374 472.329 1.3836 471.625 2.35478 471.713C3.32595 471.801 4.03226 472.663 3.94398 473.63C3.92632 473.858 3.90866 474.104 3.87334 474.333C3.87334 474.386 3.87334 474.544 3.87334 474.79C3.87334 475.739 3.94398 478.324 4.57965 481.946C4.75623 482.895 4.1029 483.809 3.14938 483.985C3.02577 484.003 2.91983 484.003 2.83154 484.003ZM641.123 477.761C640.505 477.761 639.905 477.427 639.57 476.847C639.093 476.003 639.411 474.931 640.258 474.456C642.589 473.172 645.096 471.784 647.922 470.166C648.769 469.691 649.846 469.973 650.323 470.817C650.8 471.66 650.517 472.733 649.67 473.208C646.827 474.825 644.302 476.232 641.953 477.515C641.706 477.691 641.406 477.761 641.123 477.761ZM656.45 469.076C655.832 469.076 655.25 468.76 654.914 468.197C654.42 467.353 654.72 466.281 655.55 465.788L658.375 464.153C659.964 463.239 661.553 462.325 663.178 461.375C664.026 460.883 665.103 461.182 665.597 462.026C666.092 462.87 665.791 463.942 664.944 464.435C663.319 465.366 661.712 466.298 660.141 467.212L657.316 468.847C657.068 469.006 656.751 469.076 656.45 469.076ZM3.64379 466.562C3.50253 466.562 3.36127 466.544 3.22001 466.509C2.26649 466.281 1.68378 465.331 1.91334 464.382C2.60199 461.551 3.50253 458.668 4.57965 455.784C4.91515 454.87 5.9393 454.413 6.8575 454.765C7.77571 455.099 8.23481 456.118 7.88165 457.033C6.83984 459.775 5.99227 462.518 5.33894 465.208C5.16236 466.034 4.43839 466.562 3.64379 466.562ZM671.742 460.32C671.124 460.32 670.524 460.004 670.206 459.424C669.729 458.58 670.012 457.507 670.859 457.033C673.578 455.486 676.103 454.079 678.558 452.708C679.405 452.233 680.483 452.549 680.959 453.393C681.436 454.237 681.118 455.31 680.271 455.784C677.816 457.138 675.309 458.545 672.607 460.092C672.342 460.233 672.042 460.32 671.742 460.32ZM687.157 451.776C686.521 451.776 685.921 451.442 685.603 450.844C685.144 449.983 685.462 448.928 686.327 448.471C688.958 447.064 691.589 445.675 694.15 444.339C695.015 443.899 696.074 444.233 696.533 445.095C696.975 445.956 696.639 447.011 695.774 447.468C693.231 448.787 690.618 450.176 688.005 451.565C687.74 451.706 687.44 451.776 687.157 451.776ZM9.78869 450.141C9.52382 450.141 9.25896 450.088 8.99409 449.947C8.12886 449.508 7.7757 448.453 8.19949 447.591C9.48851 445.025 10.9541 442.387 12.561 439.785C13.073 438.959 14.1501 438.695 14.9977 439.205C15.8276 439.715 16.0925 440.787 15.5804 441.631C14.0265 444.163 12.6139 446.695 11.3602 449.174C11.06 449.789 10.442 450.141 9.78869 450.141ZM702.784 443.618C702.149 443.618 701.548 443.284 701.23 442.686C700.771 441.825 701.089 440.77 701.954 440.313C704.515 438.941 707.057 437.5 709.53 435.988C710.359 435.478 711.454 435.742 711.949 436.568C712.461 437.394 712.196 438.484 711.366 438.977C708.841 440.506 706.228 442.001 703.614 443.39C703.367 443.548 703.067 443.618 702.784 443.618ZM18.9707 435.126C18.6176 435.126 18.2644 435.021 17.9466 434.792C17.152 434.23 16.9754 433.122 17.5404 432.331C19.2179 429.992 21.0367 427.619 22.9614 425.245C23.5794 424.489 24.6918 424.366 25.4511 424.982C26.2104 425.597 26.334 426.705 25.716 427.461C23.8442 429.764 22.0608 432.102 20.4363 434.37C20.0655 434.88 19.5181 435.126 18.9707 435.126ZM717.864 434.493C717.299 434.493 716.752 434.23 716.398 433.72C715.851 432.911 716.045 431.821 716.857 431.276C719.259 429.641 721.625 427.918 723.921 426.177C724.698 425.579 725.81 425.738 726.393 426.494C726.993 427.267 726.834 428.375 726.075 428.955C723.726 430.748 721.307 432.507 718.853 434.177C718.553 434.388 718.217 434.493 717.864 434.493ZM731.867 423.786C731.372 423.786 730.878 423.575 730.525 423.171C729.889 422.432 729.977 421.325 730.719 420.692C732.926 418.811 735.098 416.841 737.182 414.837C737.888 414.169 739 414.187 739.671 414.89C740.342 415.593 740.325 416.701 739.618 417.369C737.499 419.408 735.275 421.413 733.014 423.347C732.679 423.646 732.273 423.786 731.867 423.786ZM30.0421 421.448C29.6183 421.448 29.1945 421.307 28.859 421.008C28.1351 420.358 28.0644 419.25 28.7178 418.529C30.6248 416.402 32.6731 414.222 34.792 412.042C35.463 411.339 36.5931 411.321 37.2818 412.007C37.9881 412.675 38.0058 413.8 37.3171 414.486C35.2335 416.613 33.2205 418.758 31.3488 420.868C31.0133 421.254 30.5189 421.448 30.0421 421.448ZM744.562 411.585C744.139 411.585 743.697 411.426 743.362 411.11C742.638 410.459 742.602 409.334 743.256 408.631C745.233 406.504 747.158 404.288 748.977 402.073C749.595 401.317 750.707 401.212 751.467 401.827C752.226 402.442 752.332 403.55 751.714 404.306C749.842 406.574 747.882 408.842 745.852 411.022C745.516 411.391 745.039 411.585 744.562 411.585ZM42.3319 408.824C41.8728 408.824 41.396 408.649 41.0605 408.279C40.3895 407.576 40.4072 406.468 41.1135 405.8C43.1795 403.831 45.369 401.792 47.6292 399.77C48.3532 399.119 49.4656 399.172 50.119 399.893C50.7723 400.614 50.7193 401.721 49.9954 402.372C47.7705 404.359 45.6162 406.363 43.5679 408.315C43.2148 408.649 42.7733 408.824 42.3319 408.824ZM755.74 397.977C755.387 397.977 755.016 397.871 754.716 397.643C753.921 397.08 753.745 395.972 754.31 395.181C756.022 392.808 757.647 390.399 759.148 387.973C759.66 387.146 760.755 386.9 761.585 387.41C762.414 387.92 762.662 389.01 762.15 389.836C760.596 392.315 758.936 394.812 757.17 397.238C756.835 397.73 756.287 397.977 755.74 397.977ZM55.4339 397.027C54.9395 397.027 54.4451 396.816 54.092 396.412C53.4563 395.673 53.5446 394.566 54.2862 393.933C56.4581 392.087 58.7536 390.17 61.0844 388.272C61.8437 387.656 62.9561 387.762 63.5742 388.518C64.1922 389.274 64.0862 390.381 63.327 390.997C61.0138 392.896 58.7359 394.777 56.5817 396.605C56.2639 396.887 55.8401 397.027 55.4339 397.027ZM69.101 385.881C68.5713 385.881 68.0592 385.652 67.7061 385.212C67.1057 384.456 67.2293 383.349 68.0062 382.751C70.2488 380.993 72.5443 379.217 74.9987 377.336C75.7757 376.738 76.8881 376.896 77.4708 377.67C78.0712 378.444 77.9122 379.551 77.1353 380.131C74.6809 381.995 72.403 383.753 70.1782 385.511C69.878 385.757 69.4895 385.881 69.101 385.881ZM765.028 383.05C764.745 383.05 764.463 382.98 764.216 382.857C763.35 382.399 763.015 381.345 763.474 380.483C764.834 377.899 766.087 375.261 767.217 372.677C767.606 371.78 768.63 371.376 769.531 371.745C770.431 372.132 770.837 373.169 770.466 374.048C769.319 376.721 768.012 379.446 766.599 382.101C766.282 382.698 765.664 383.05 765.028 383.05ZM83.2802 375.402C82.6975 375.402 82.1324 375.121 81.7969 374.611C81.2672 373.802 81.4968 372.712 82.309 372.185C84.8517 370.532 87.4651 369.002 90.0431 367.631C90.9083 367.174 91.9678 367.508 92.4269 368.352C92.886 369.213 92.5505 370.268 91.7029 370.725C89.2132 372.044 86.7058 373.521 84.2337 375.121C83.9335 375.314 83.6157 375.402 83.2802 375.402ZM211.917 372.202H211.899C209.039 372.167 206.019 372.009 202.947 371.745C201.976 371.657 201.252 370.813 201.34 369.846C201.428 368.879 202.276 368.158 203.247 368.246C206.231 368.51 209.145 368.651 211.934 368.686C212.906 368.703 213.683 369.495 213.683 370.462C213.665 371.429 212.87 372.202 211.917 372.202ZM220.728 371.938C219.81 371.938 219.033 371.235 218.962 370.303C218.892 369.336 219.616 368.492 220.587 368.422C223.483 368.211 226.379 367.86 229.186 367.367C230.14 367.209 231.058 367.842 231.234 368.809C231.393 369.758 230.758 370.673 229.786 370.848C226.873 371.341 223.871 371.71 220.852 371.938C220.816 371.938 220.781 371.938 220.728 371.938ZM194.33 370.743C194.241 370.743 194.171 370.743 194.083 370.725C191.346 370.339 188.485 369.864 185.307 369.284C184.353 369.108 183.717 368.194 183.894 367.244C184.071 366.295 184.989 365.662 185.942 365.838C189.068 366.4 191.893 366.875 194.595 367.244C195.566 367.385 196.237 368.264 196.095 369.231C195.954 370.11 195.195 370.743 194.33 370.743ZM238.103 368.95C237.326 368.95 236.62 368.44 236.408 367.666C236.143 366.734 236.691 365.767 237.644 365.504C240.399 364.748 243.153 363.833 245.855 362.779C246.756 362.427 247.78 362.884 248.133 363.781C248.486 364.677 248.027 365.697 247.126 366.049C244.319 367.139 241.441 368.088 238.58 368.879C238.421 368.932 238.262 368.95 238.103 368.95ZM176.954 367.649C176.831 367.649 176.725 367.631 176.601 367.613C174.853 367.262 173.123 366.893 171.375 366.541C170.227 366.312 169.097 366.066 167.949 365.838C166.996 365.644 166.378 364.712 166.572 363.763C166.766 362.814 167.702 362.198 168.655 362.392C169.803 362.62 170.933 362.866 172.081 363.095C173.811 363.447 175.56 363.816 177.29 364.167C178.244 364.361 178.862 365.293 178.667 366.242C178.508 367.068 177.767 367.649 176.954 367.649ZM98.8543 367.209C98.1657 367.209 97.4947 366.805 97.2122 366.119C96.8413 365.222 97.2828 364.185 98.1833 363.833C100.973 362.691 103.834 361.706 106.694 360.88C107.63 360.616 108.619 361.143 108.884 362.075C109.149 363.007 108.619 363.992 107.683 364.255C104.946 365.047 102.209 365.996 99.5253 367.086C99.3134 367.156 99.0839 367.209 98.8543 367.209ZM771.95 366.893C771.773 366.893 771.579 366.857 771.402 366.805C770.484 366.506 769.972 365.504 770.272 364.589C771.19 361.812 771.95 359.016 772.568 356.291C772.78 355.342 773.715 354.744 774.669 354.955C775.622 355.166 776.223 356.098 776.011 357.047C775.375 359.895 774.581 362.796 773.627 365.697C773.398 366.418 772.691 366.893 771.95 366.893ZM159.632 364.15C159.526 364.15 159.42 364.132 159.297 364.115C156.136 363.517 153.311 363.042 150.662 362.638C149.691 362.497 149.038 361.601 149.179 360.634C149.32 359.667 150.221 359.016 151.192 359.157C153.894 359.561 156.754 360.053 159.95 360.651C160.904 360.827 161.539 361.741 161.363 362.708C161.221 363.57 160.48 364.15 159.632 364.15ZM254.543 362.603C253.889 362.603 253.271 362.251 252.953 361.636C252.512 360.774 252.865 359.719 253.748 359.28C254.119 359.086 254.49 358.911 254.878 358.717C257.085 357.592 259.257 356.361 261.323 355.078C262.153 354.568 263.248 354.814 263.76 355.64C264.272 356.467 264.025 357.557 263.195 358.067C261.041 359.403 258.798 360.669 256.52 361.829C256.132 362.023 255.743 362.216 255.355 362.409C255.09 362.55 254.807 362.603 254.543 362.603ZM115.788 362.339C114.941 362.339 114.199 361.741 114.058 360.88C113.881 359.93 114.534 359.016 115.488 358.84C118.384 358.33 121.403 357.979 124.423 357.75C125.394 357.68 126.241 358.418 126.312 359.385C126.383 360.352 125.641 361.196 124.67 361.267C121.756 361.478 118.878 361.812 116.088 362.304C115.982 362.321 115.894 362.339 115.788 362.339ZM142.186 361.583C142.133 361.583 142.08 361.583 142.01 361.583C138.973 361.302 136.13 361.126 133.34 361.073C132.369 361.056 131.592 360.247 131.609 359.28C131.627 358.313 132.439 357.539 133.411 357.557C136.306 357.61 139.22 357.785 142.345 358.084C143.317 358.172 144.023 359.034 143.935 360.001C143.846 360.897 143.087 361.583 142.186 361.583ZM269.481 353.355C268.951 353.355 268.422 353.126 268.086 352.669C267.486 351.896 267.645 350.788 268.422 350.208C270.699 348.467 272.907 346.604 274.99 344.67C275.697 344.002 276.827 344.037 277.48 344.74C278.133 345.443 278.116 346.568 277.409 347.219C275.237 349.241 272.942 351.192 270.576 352.986C270.24 353.232 269.87 353.355 269.481 353.355ZM775.693 349.751C775.64 349.751 775.57 349.751 775.517 349.733C774.545 349.645 773.839 348.766 773.927 347.817C774.139 345.689 774.245 343.562 774.245 341.505C774.245 340.767 774.228 340.011 774.21 339.29C774.175 338.323 774.934 337.496 775.905 337.461C776.876 337.426 777.706 338.182 777.741 339.149C777.777 339.923 777.794 340.714 777.794 341.505C777.794 343.685 777.671 345.918 777.459 348.168C777.353 349.065 776.594 349.751 775.693 349.751ZM282.283 341.399C281.877 341.399 281.453 341.259 281.117 340.96C280.376 340.327 280.305 339.202 280.959 338.481C282.83 336.354 284.631 334.086 286.327 331.747C286.892 330.956 288.004 330.78 288.799 331.343C289.593 331.906 289.77 333.013 289.205 333.804C287.439 336.231 285.567 338.586 283.625 340.784C283.272 341.189 282.777 341.399 282.283 341.399ZM774.934 332.24C774.104 332.24 773.38 331.659 773.203 330.833C772.621 328.02 771.791 325.295 770.731 322.763C770.36 321.866 770.784 320.829 771.685 320.46C772.585 320.091 773.627 320.513 773.998 321.409C775.146 324.152 776.046 327.088 776.664 330.13C776.859 331.079 776.24 332.011 775.287 332.204C775.181 332.24 775.057 332.24 774.934 332.24ZM292.577 327.211C292.277 327.211 291.959 327.123 291.677 326.965C290.847 326.473 290.564 325.383 291.059 324.556C292.507 322.148 293.902 319.598 295.208 316.979C295.65 316.117 296.709 315.748 297.575 316.188C298.44 316.627 298.811 317.682 298.369 318.544C297.027 321.251 295.579 323.871 294.096 326.367C293.778 326.912 293.178 327.211 292.577 327.211ZM768.171 316.17C767.606 316.17 767.058 315.906 766.723 315.414C765.116 313.129 763.315 311.071 761.196 309.138C760.472 308.487 760.419 307.362 761.09 306.659C761.743 305.938 762.874 305.885 763.58 306.553C765.858 308.628 767.906 310.948 769.636 313.41C770.201 314.201 769.99 315.309 769.195 315.854C768.877 316.065 768.524 316.17 768.171 316.17ZM300.435 311.529C300.206 311.529 299.976 311.493 299.764 311.388C298.864 311.019 298.44 309.981 298.811 309.085C299.888 306.483 300.93 303.758 301.901 300.962C302.219 300.048 303.225 299.556 304.143 299.872C305.061 300.189 305.556 301.191 305.238 302.105C304.249 304.953 303.19 307.749 302.077 310.421C301.795 311.107 301.124 311.529 300.435 311.529ZM755.351 304.338C755.034 304.338 754.716 304.25 754.416 304.074C752.155 302.668 749.666 301.349 746.84 300.048C745.958 299.644 745.569 298.589 745.975 297.71C746.381 296.831 747.441 296.444 748.324 296.848C751.29 298.219 753.904 299.608 756.287 301.085C757.117 301.595 757.364 302.685 756.852 303.511C756.517 304.039 755.934 304.338 755.351 304.338ZM739.424 296.813C739.212 296.813 739 296.778 738.806 296.707C736.475 295.828 733.844 294.897 730.542 293.789C729.624 293.472 729.13 292.47 729.43 291.556C729.748 290.642 730.754 290.15 731.672 290.448C735.01 291.574 737.676 292.523 740.042 293.42C740.96 293.771 741.419 294.773 741.066 295.688C740.801 296.391 740.13 296.813 739.424 296.813ZM306.209 294.932C306.05 294.932 305.874 294.914 305.715 294.861C304.779 294.598 304.231 293.613 304.514 292.681C305.291 289.974 306.05 287.143 306.757 284.26C306.986 283.31 307.94 282.73 308.893 282.959C309.847 283.187 310.429 284.137 310.2 285.086C309.493 288.022 308.717 290.906 307.922 293.666C307.692 294.422 306.986 294.932 306.209 294.932ZM722.738 291.081C722.543 291.081 722.367 291.046 722.172 290.993C719.7 290.167 716.769 289.183 713.785 288.145C712.867 287.829 712.39 286.827 712.708 285.895C713.026 284.981 714.032 284.506 714.968 284.822C717.917 285.86 720.831 286.844 723.303 287.653C724.221 287.969 724.733 288.954 724.415 289.886C724.168 290.624 723.479 291.081 722.738 291.081ZM706.104 285.192C705.892 285.192 705.68 285.156 705.468 285.069C702.555 283.943 699.871 282.818 697.24 281.658C696.357 281.271 695.951 280.216 696.339 279.337C696.728 278.458 697.787 278.054 698.67 278.44C701.248 279.583 703.879 280.673 706.74 281.781C707.64 282.132 708.099 283.152 707.746 284.066C707.464 284.77 706.81 285.192 706.104 285.192ZM689.982 278.018C689.718 278.018 689.435 277.948 689.17 277.825C686.486 276.454 683.855 275.012 681.365 273.518C680.536 273.025 680.253 271.935 680.747 271.109C681.242 270.283 682.337 270.001 683.167 270.493C685.603 271.953 688.164 273.359 690.777 274.695C691.642 275.135 691.978 276.207 691.536 277.069C691.254 277.684 690.636 278.018 689.982 278.018ZM310.376 277.843C310.253 277.843 310.147 277.825 310.023 277.807C309.07 277.614 308.452 276.682 308.646 275.733C309.211 272.972 309.741 270.089 310.253 267.135C310.412 266.186 311.33 265.536 312.283 265.694C313.237 265.852 313.89 266.766 313.731 267.716C313.219 270.704 312.672 273.623 312.107 276.418C311.948 277.262 311.206 277.843 310.376 277.843ZM674.85 269.017C674.497 269.017 674.143 268.911 673.843 268.7C671.406 267.012 668.987 265.219 666.674 263.373C665.915 262.758 665.791 261.668 666.409 260.894C667.027 260.138 668.14 260.015 668.899 260.63C671.142 262.424 673.49 264.164 675.874 265.799C676.669 266.344 676.88 267.452 676.315 268.243C675.962 268.753 675.415 269.017 674.85 269.017ZM313.378 260.507C313.29 260.507 313.202 260.507 313.131 260.49C312.16 260.349 311.489 259.452 311.63 258.503C312.036 255.725 312.425 252.807 312.796 249.818C312.919 248.851 313.802 248.165 314.755 248.288C315.727 248.411 316.415 249.29 316.292 250.24C315.921 253.246 315.532 256.2 315.126 258.995C314.985 259.874 314.226 260.507 313.378 260.507ZM661.112 258.046C660.688 258.046 660.247 257.888 659.911 257.589C657.739 255.602 655.603 253.492 653.555 251.347C652.883 250.644 652.919 249.536 653.625 248.868C654.331 248.2 655.444 248.235 656.115 248.939C658.11 251.048 660.194 253.088 662.313 255.022C663.037 255.672 663.072 256.798 662.419 257.501C662.066 257.852 661.589 258.046 661.112 258.046ZM648.981 245.299C648.469 245.299 647.957 245.071 647.622 244.649C645.661 242.275 643.878 239.849 642.271 237.44C641.742 236.632 641.953 235.542 642.766 234.997C643.578 234.469 644.673 234.68 645.22 235.489C646.739 237.792 648.469 240.113 650.358 242.398C650.977 243.154 650.871 244.262 650.111 244.877C649.776 245.176 649.387 245.299 648.981 245.299ZM315.532 243.049C315.462 243.049 315.409 243.049 315.338 243.031C314.367 242.926 313.661 242.064 313.767 241.097C314.067 238.319 314.349 235.454 314.632 232.359C314.72 231.392 315.585 230.689 316.557 230.777C317.528 230.865 318.234 231.726 318.146 232.693C317.863 235.805 317.563 238.671 317.281 241.467C317.192 242.381 316.433 243.049 315.532 243.049ZM639.322 230.654C638.669 230.654 638.051 230.302 637.751 229.687C636.427 227.085 635.243 224.395 634.149 221.459C633.813 220.545 634.272 219.542 635.19 219.191C636.109 218.857 637.115 219.314 637.468 220.228C638.528 223.041 639.64 225.608 640.912 228.105C641.353 228.966 641 230.021 640.135 230.461C639.87 230.584 639.587 230.654 639.322 230.654ZM317.175 225.52C317.122 225.52 317.069 225.52 317.033 225.52C316.062 225.432 315.338 224.588 315.426 223.621C315.656 221.002 315.886 218.118 316.133 214.848C316.203 213.881 317.051 213.16 318.04 213.231C319.011 213.301 319.735 214.145 319.664 215.13C319.399 218.417 319.17 221.301 318.958 223.92C318.852 224.834 318.093 225.52 317.175 225.52ZM633.054 214.268C632.295 214.268 631.588 213.776 631.359 213.002C630.723 210.875 630.158 208.783 629.54 206.567C629.346 205.882 629.169 205.196 628.975 204.51C628.71 203.578 629.257 202.612 630.211 202.348C631.147 202.084 632.118 202.629 632.383 203.578C632.577 204.264 632.771 204.95 632.948 205.636C633.566 207.833 634.131 209.908 634.749 212C635.032 212.932 634.484 213.916 633.548 214.18C633.372 214.25 633.213 214.268 633.054 214.268ZM318.57 207.956C318.517 207.956 318.481 207.956 318.428 207.956C317.457 207.886 316.733 207.042 316.804 206.075C317.033 203.157 317.263 200.22 317.492 197.319C317.563 196.353 318.411 195.632 319.399 195.702C320.371 195.772 321.095 196.616 321.024 197.601C320.794 200.519 320.565 203.438 320.353 206.356C320.265 207.253 319.488 207.956 318.57 207.956ZM628.163 197.39C627.421 197.39 626.715 196.915 626.485 196.159C625.567 193.241 624.613 190.568 623.607 187.984C623.254 187.087 623.713 186.067 624.613 185.716C625.532 185.364 626.538 185.821 626.891 186.718C627.933 189.373 628.887 192.133 629.84 195.104C630.14 196.036 629.611 197.021 628.692 197.319C628.534 197.355 628.339 197.39 628.163 197.39ZM319.965 190.428C319.912 190.428 319.859 190.428 319.823 190.428C318.852 190.34 318.128 189.496 318.216 188.529C318.481 185.364 318.746 182.498 318.993 179.738C319.082 178.771 319.947 178.068 320.918 178.156C321.889 178.244 322.596 179.105 322.507 180.072C322.242 182.815 321.995 185.663 321.73 188.828C321.642 189.724 320.883 190.428 319.965 190.428ZM621.771 181.021C621.117 181.021 620.482 180.652 620.181 180.019C618.963 177.452 617.621 174.868 616.191 172.319C615.714 171.475 616.014 170.402 616.862 169.928C617.709 169.453 618.786 169.752 619.263 170.596C620.729 173.215 622.124 175.87 623.377 178.507C623.801 179.386 623.413 180.441 622.53 180.846C622.283 180.969 622.035 181.021 621.771 181.021ZM321.624 172.899C321.554 172.899 321.501 172.899 321.43 172.881C320.459 172.776 319.753 171.914 319.859 170.947C320.194 167.906 320.53 164.952 320.883 162.174C321.006 161.207 321.889 160.522 322.86 160.645C323.832 160.768 324.52 161.647 324.397 162.614C324.043 165.374 323.708 168.293 323.39 171.317C323.284 172.231 322.507 172.899 321.624 172.899ZM613.171 165.69C612.589 165.69 612.023 165.409 611.688 164.882C610.152 162.491 608.474 160.082 606.744 157.708C606.179 156.917 606.338 155.827 607.132 155.247C607.927 154.684 609.022 154.843 609.604 155.634C611.37 158.06 613.065 160.522 614.655 162.965C615.184 163.774 614.955 164.864 614.125 165.392C613.825 165.603 613.489 165.69 613.171 165.69ZM323.849 155.44C323.761 155.44 323.673 155.44 323.584 155.423C322.613 155.282 321.96 154.386 322.101 153.419C322.56 150.412 323.037 147.476 323.549 144.681C323.726 143.731 324.644 143.098 325.597 143.257C326.551 143.432 327.187 144.347 327.028 145.296C326.533 148.039 326.056 150.957 325.597 153.928C325.456 154.808 324.697 155.44 323.849 155.44ZM602.806 151.467C602.294 151.467 601.782 151.239 601.429 150.817C599.628 148.601 597.721 146.368 595.761 144.171C595.107 143.45 595.178 142.342 595.902 141.692C596.626 141.041 597.738 141.112 598.392 141.832C600.387 144.065 602.329 146.333 604.166 148.601C604.784 149.357 604.66 150.465 603.901 151.08C603.583 151.344 603.195 151.467 602.806 151.467ZM591.064 138.334C590.605 138.334 590.146 138.158 589.792 137.806C587.797 135.749 585.696 133.692 583.559 131.67C582.853 131.002 582.818 129.895 583.489 129.191C584.16 128.488 585.272 128.453 585.978 129.121C588.15 131.16 590.269 133.27 592.318 135.345C592.988 136.048 592.988 137.156 592.282 137.824C591.947 138.158 591.505 138.334 591.064 138.334ZM326.992 138.14C326.869 138.14 326.745 138.123 326.621 138.105C325.668 137.894 325.068 136.962 325.28 136.013C325.933 133.042 326.639 130.141 327.381 127.38C327.628 126.449 328.599 125.886 329.535 126.132C330.471 126.378 331.036 127.345 330.789 128.277C330.065 130.985 329.376 133.833 328.74 136.751C328.546 137.578 327.805 138.14 326.992 138.14ZM578.262 126.22C577.856 126.22 577.432 126.079 577.096 125.781C574.925 123.882 572.682 121.983 570.404 120.137C569.645 119.522 569.539 118.414 570.157 117.658C570.775 116.902 571.887 116.796 572.647 117.412C574.96 119.293 577.238 121.209 579.445 123.143C580.169 123.776 580.257 124.902 579.604 125.622C579.233 126.027 578.739 126.22 578.262 126.22ZM331.566 121.157C331.389 121.157 331.195 121.121 331.018 121.069C330.1 120.77 329.588 119.768 329.888 118.853C330.842 115.953 331.866 113.14 332.943 110.485C333.314 109.588 334.338 109.149 335.238 109.518C336.139 109.887 336.58 110.907 336.21 111.803C335.168 114.388 334.161 117.131 333.243 119.944C333.014 120.682 332.325 121.157 331.566 121.157ZM564.577 115.109C564.206 115.109 563.836 114.986 563.518 114.757C561.205 113.016 558.838 111.276 556.455 109.588C555.66 109.025 555.466 107.935 556.031 107.144C556.596 106.353 557.691 106.16 558.485 106.722C560.904 108.428 563.323 110.186 565.654 111.962C566.431 112.542 566.573 113.649 565.99 114.423C565.637 114.862 565.107 115.109 564.577 115.109ZM550.186 104.929C549.851 104.929 549.515 104.841 549.215 104.63C546.796 103.03 544.324 101.448 541.834 99.9183C541.004 99.4084 540.757 98.3183 541.269 97.492C541.781 96.6657 542.876 96.4196 543.706 96.9294C546.213 98.4766 548.738 100.076 551.175 101.694C551.987 102.239 552.217 103.329 551.669 104.138C551.316 104.648 550.751 104.929 550.186 104.929ZM338.187 104.894C337.922 104.894 337.658 104.841 337.393 104.7C336.527 104.261 336.157 103.206 336.598 102.344C337.958 99.6194 339.423 96.9997 340.96 94.5383C341.472 93.712 342.566 93.4659 343.396 93.9757C344.226 94.4856 344.473 95.5756 343.961 96.402C342.478 98.7579 341.066 101.29 339.759 103.909C339.459 104.525 338.841 104.894 338.187 104.894ZM535.177 95.6811C534.877 95.6811 534.577 95.6108 534.294 95.4526C531.769 94.0109 529.191 92.5692 526.631 91.1979C525.766 90.7407 525.448 89.6683 525.907 88.8244C526.366 87.9629 527.443 87.6464 528.291 88.1035C530.886 89.4925 533.5 90.9517 536.06 92.411C536.907 92.9033 537.19 93.9757 536.713 94.8196C536.378 95.3647 535.795 95.6811 535.177 95.6811ZM347.511 90.0551C347.122 90.0551 346.751 89.932 346.416 89.6859C345.657 89.0881 345.515 87.9805 346.116 87.2244C347.987 84.851 349.983 82.6005 352.066 80.5083C352.755 79.8227 353.867 79.8227 354.556 80.5083C355.245 81.194 355.245 82.3016 354.556 82.9873C352.578 84.974 350.654 87.119 348.888 89.387C348.552 89.8089 348.04 90.0551 347.511 90.0551ZM519.621 87.3299C519.356 87.3299 519.091 87.2772 518.826 87.1365C516.213 85.8355 513.546 84.5521 510.898 83.339C510.015 82.9346 509.626 81.8797 510.032 81.0006C510.439 80.1215 511.498 79.7348 512.381 80.1391C515.065 81.3698 517.749 82.6709 520.398 83.9895C521.263 84.429 521.616 85.4839 521.192 86.3454C520.892 86.9783 520.256 87.3299 519.621 87.3299ZM503.57 79.9457C503.34 79.9457 503.111 79.893 502.881 79.8051C500.197 78.6623 497.46 77.5547 494.758 76.4998C493.858 76.1481 493.399 75.1284 493.752 74.2318C494.105 73.3351 495.129 72.878 496.03 73.2296C498.767 74.2845 501.539 75.4097 504.258 76.5701C505.159 76.9569 505.565 77.9766 505.194 78.8733C504.912 79.5414 504.258 79.9457 503.57 79.9457ZM359.906 77.6953C359.377 77.6953 358.865 77.4667 358.511 77.0096C357.911 76.236 358.052 75.146 358.812 74.5482C361.16 72.7373 363.65 71.0319 366.228 69.5023C367.058 69.0101 368.152 69.2738 368.647 70.1177C369.141 70.944 368.876 72.0341 368.029 72.5264C365.574 73.9856 363.191 75.6031 360.966 77.3261C360.666 77.5722 360.277 77.6953 359.906 77.6953ZM487.113 73.5637C486.918 73.5637 486.724 73.5285 486.53 73.4582C483.758 72.4912 480.968 71.5594 478.213 70.6803C477.277 70.3814 476.765 69.3969 477.065 68.4826C477.366 67.5684 478.354 67.0409 479.273 67.3398C482.063 68.2189 484.905 69.1683 487.713 70.1529C488.631 70.4693 489.108 71.4891 488.79 72.4033C488.525 73.1065 487.837 73.5637 487.113 73.5637ZM374.951 68.7639C374.28 68.7639 373.626 68.3771 373.344 67.7266C372.955 66.8475 373.344 65.7927 374.244 65.4059C376.928 64.2103 379.754 63.1379 382.667 62.206C383.603 61.9072 384.592 62.417 384.892 63.3313C385.192 64.2631 384.68 65.2476 383.762 65.5465C380.972 66.4432 378.253 67.4805 375.692 68.6233C375.445 68.7112 375.198 68.7639 374.951 68.7639ZM470.267 68.2716C470.108 68.2716 469.949 68.2541 469.79 68.2013C466.965 67.4102 464.105 66.6893 461.297 66.0212C460.344 65.7927 459.761 64.8433 459.99 63.9114C460.22 62.9621 461.173 62.3819 462.109 62.6104C464.952 63.2785 467.848 64.0345 470.726 64.8257C471.662 65.0894 472.21 66.0564 471.962 66.9882C471.75 67.7618 471.044 68.2716 470.267 68.2716ZM453.086 64.1927C452.98 64.1927 452.857 64.1752 452.751 64.1576C449.855 63.595 446.959 63.0851 444.134 62.6456C443.163 62.5049 442.509 61.6083 442.65 60.6413C442.792 59.6743 443.692 59.0238 444.663 59.1645C447.542 59.604 450.491 60.1139 453.439 60.694C454.393 60.8874 455.011 61.8017 454.834 62.7511C454.658 63.6126 453.916 64.1927 453.086 64.1927ZM391.708 63.3137C390.896 63.3137 390.172 62.7511 389.977 61.9423C389.766 60.9929 390.366 60.0611 391.319 59.8501C394.162 59.2172 397.129 58.6898 400.148 58.2678C401.119 58.1272 402.002 58.8128 402.144 59.7622C402.285 60.7292 401.596 61.6083 400.643 61.7489C397.729 62.1533 394.851 62.6632 392.096 63.2785C391.973 63.3137 391.849 63.3137 391.708 63.3137ZM435.64 61.538C435.57 61.538 435.517 61.538 435.446 61.5204C432.515 61.2039 429.584 60.9753 426.741 60.8171C425.77 60.7644 425.028 59.938 425.081 58.9711C425.134 58.0041 425.964 57.2657 426.935 57.3184C429.849 57.4766 432.833 57.7228 435.835 58.0392C436.806 58.1447 437.512 59.0062 437.406 59.9732C437.3 60.8699 436.523 61.538 435.64 61.538ZM409.189 60.8874C408.271 60.8874 407.494 60.1666 407.423 59.2524C407.353 58.2854 408.094 57.4415 409.065 57.3887C411.961 57.1953 414.981 57.1074 418 57.0898C418.971 57.0898 419.766 57.881 419.766 58.848C419.766 59.815 418.971 60.6061 418 60.6061C415.051 60.6061 412.12 60.7116 409.295 60.8874C409.26 60.8874 409.224 60.8874 409.189 60.8874Z" fill="#11A3AA"/>
<path d="M669.482 442.81C669.482 442.81 653.201 464.294 636.921 493.778C622.247 520.362 611.088 556.193 608.616 586.099C601.711 585.765 594.119 585.466 585.908 585.184C537.296 583.461 467.106 582.389 389.059 582.389C300.329 582.389 221.77 583.778 173.494 585.923C171.834 585.993 170.209 586.063 168.62 586.151C108.354 511.782 -12.9898 382.224 98.6778 328.917C98.6778 328.917 106.853 326.438 119.125 321.111C157.937 304.233 237.715 258.855 228.851 173.251C228.851 173.251 225.831 157.287 225.831 135.064C225.831 83.0933 242.359 -3.03824 352.649 0.900008C419.448 3.29109 480.968 37.1354 518.155 91.3038C554.636 144.435 612.959 209.803 660.476 172.495C671.442 163.88 685.939 160.68 699.482 164.478C733.668 174.007 772.497 223.516 669.482 442.81Z" fill="#C8FAFC"/>
</g>
<g opacity="0.15">
<path d="M758.194 589.001C758.194 592.517 592.936 595.366 389.059 595.366C274.037 595.366 171.286 594.451 103.587 593.027C87.9949 592.693 74.2572 592.342 62.6737 591.972C55.0279 591.726 48.318 591.463 42.6145 591.199C27.9409 590.513 19.9243 589.775 19.9243 589.001C19.9243 588.017 32.9381 587.085 56.158 586.241C65.6755 585.907 76.8882 585.573 89.6371 585.274C156.683 583.674 265.826 582.637 389.059 582.637C497.46 582.637 594.966 583.445 662.489 584.729C721.961 585.854 758.194 587.349 758.194 589.001Z" fill="#040C2B"/>
</g>
<g opacity="0.21">
<path d="M575.235 196.969H202.867V466H575.235V196.969Z" fill="#8C8C8C"/>
</g>
<path d="M575.236 163.188H203.008V197.044H575.236V163.188Z" fill="#5AC8D2"/>
<path d="M220.228 183.95C223.387 183.95 225.949 181.525 225.949 178.533C225.949 175.542 223.387 173.117 220.228 173.117C217.069 173.117 214.507 175.542 214.507 178.533C214.507 181.525 217.069 183.95 220.228 183.95Z" fill="#E3E9F7"/>
<path d="M236.912 183.95C240.072 183.95 242.633 181.525 242.633 178.533C242.633 175.542 240.072 173.117 236.912 173.117C233.753 173.117 231.191 175.542 231.191 178.533C231.191 181.525 233.753 183.95 236.912 183.95Z" fill="#E3E9F7"/>
<path d="M253.591 183.95C256.751 183.95 259.312 181.525 259.312 178.533C259.312 175.542 256.751 173.117 253.591 173.117C250.432 173.117 247.871 175.542 247.871 178.533C247.871 181.525 250.432 183.95 253.591 183.95Z" fill="#E3E9F7"/>
<path d="M564.055 211.129H214.088V451.84H564.055V211.129Z" fill="#F4F6FC"/>
<path d="M442.233 270.304V376.129C442.233 380.147 438.961 383.384 434.946 383.384H340.946C336.911 383.384 333.66 380.127 333.66 376.129V250.817C333.66 246.8 336.932 243.562 340.946 243.562H414.894L415.376 244.042L442.233 270.304Z" fill="#5AC8D2"/>
<g opacity="0.15">
<path d="M442.234 270.308H421.318C418.046 270.308 415.376 267.67 415.376 264.393V244.047L442.234 270.308Z" fill="black"/>
</g>
<path d="M387.354 340.385C385.327 340.385 383.681 338.746 383.681 336.728V300.673C383.681 298.654 385.327 297.016 387.354 297.016C389.381 297.016 391.027 298.654 391.027 300.673V336.728C391.027 338.746 389.381 340.385 387.354 340.385Z" fill="white"/>
<path d="M365.574 318.7C365.574 316.682 367.22 315.043 369.248 315.043H405.459C407.486 315.043 409.132 316.682 409.132 318.7C409.132 320.719 407.486 322.358 405.459 322.358H369.248C367.22 322.358 365.574 320.719 365.574 318.7Z" fill="white"/>
<g opacity="0.5">
<path d="M345.624 402.832H340.586L339.522 405.85H337.174L342.092 392.879H344.119L349.057 405.85H346.688L345.624 402.832ZM341.208 401.013H344.982L343.095 395.637L341.208 401.013Z" fill="#313131"/>
<path d="M349.919 400.962C349.919 399.483 350.26 398.284 350.963 397.385C351.645 396.485 352.589 396.026 353.753 396.026C354.777 396.026 355.6 396.385 356.242 397.085V392.148H358.41V405.819H356.443L356.342 404.82C355.7 405.599 354.817 405.999 353.733 405.999C352.609 405.999 351.685 405.539 350.983 404.64C350.26 403.76 349.919 402.521 349.919 400.962ZM352.087 401.162C352.087 402.141 352.267 402.901 352.649 403.461C353.03 404 353.572 404.28 354.255 404.28C355.138 404.28 355.8 403.88 356.202 403.101V398.984C355.8 398.204 355.158 397.824 354.275 397.824C353.572 397.824 353.03 398.104 352.649 398.664C352.267 399.203 352.087 400.043 352.087 401.162Z" fill="#313131"/>
<path d="M360.256 400.962C360.256 399.483 360.597 398.284 361.3 397.385C361.982 396.485 362.926 396.026 364.09 396.026C365.113 396.026 365.936 396.385 366.579 397.085V392.148H368.747V405.819H366.779L366.679 404.82C366.037 405.599 365.154 405.999 364.07 405.999C362.946 405.999 362.022 405.539 361.32 404.64C360.597 403.76 360.256 402.521 360.256 400.962ZM362.424 401.162C362.424 402.141 362.604 402.901 362.986 403.461C363.367 404 363.909 404.28 364.592 404.28C365.475 404.28 366.137 403.88 366.539 403.101V398.984C366.137 398.204 365.495 397.824 364.612 397.824C363.909 397.824 363.367 398.104 362.986 398.664C362.604 399.203 362.424 400.043 362.424 401.162Z" fill="#313131"/>
<path d="M378.042 401.033V405.85H375.774V392.879H380.752C382.197 392.879 383.361 393.259 384.224 394.018C385.088 394.778 385.509 395.777 385.509 397.016C385.509 398.295 385.088 399.274 384.245 399.994C383.402 400.713 382.237 401.053 380.732 401.053H378.042V401.033ZM378.042 399.214H380.752C381.555 399.214 382.177 399.035 382.599 398.655C383.02 398.275 383.241 397.735 383.241 397.016C383.241 396.316 383.02 395.757 382.599 395.337C382.177 394.917 381.575 394.698 380.832 394.698H378.042V399.214Z" fill="#313131"/>
<path d="M392.333 398.205C392.052 398.165 391.751 398.125 391.45 398.125C390.446 398.125 389.784 398.505 389.442 399.265V405.86H387.254V396.227H389.322L389.382 397.306C389.904 396.467 390.627 396.047 391.57 396.047C391.871 396.047 392.132 396.087 392.333 396.167V398.205Z" fill="#313131"/>
<path d="M392.976 400.94C392.976 400.001 393.156 399.141 393.538 398.382C393.919 397.622 394.441 397.043 395.123 396.643C395.806 396.243 396.589 396.023 397.472 396.023C398.777 396.023 399.84 396.443 400.643 397.283C401.466 398.122 401.888 399.221 401.968 400.62V401.12C401.968 402.079 401.788 402.919 401.426 403.658C401.065 404.398 400.543 404.977 399.861 405.397C399.178 405.817 398.395 406.016 397.492 406.016C396.127 406.016 395.043 405.557 394.22 404.657C393.397 403.758 392.996 402.539 392.996 401.04V400.94H392.976ZM395.143 401.14C395.143 402.139 395.344 402.899 395.766 403.478C396.187 404.058 396.749 404.318 397.492 404.318C398.235 404.318 398.797 404.038 399.198 403.458C399.6 402.879 399.82 402.059 399.82 400.96C399.82 399.981 399.62 399.221 399.198 398.642C398.777 398.062 398.215 397.782 397.492 397.782C396.789 397.782 396.227 398.062 395.806 398.622C395.364 399.181 395.143 400.021 395.143 401.14Z" fill="#313131"/>
<path d="M403.413 400.962C403.413 399.483 403.754 398.284 404.456 397.385C405.139 396.485 406.082 396.026 407.246 396.026C408.27 396.026 409.093 396.385 409.735 397.085V392.148H411.903V405.819H409.936L409.836 404.82C409.194 405.599 408.31 405.999 407.226 405.999C406.102 405.999 405.179 405.539 404.476 404.64C403.754 403.76 403.413 402.521 403.413 400.962ZM405.58 401.162C405.58 402.141 405.761 402.901 406.143 403.461C406.524 404 407.066 404.28 407.748 404.28C408.632 404.28 409.294 403.88 409.695 403.101V398.984C409.294 398.204 408.652 397.824 407.768 397.824C407.066 397.824 406.524 398.104 406.143 398.664C405.781 399.203 405.58 400.043 405.58 401.162Z" fill="#313131"/>
<path d="M420.015 404.917C419.372 405.656 418.469 406.036 417.305 406.036C416.261 406.036 415.458 405.736 414.916 405.116C414.374 404.497 414.113 403.617 414.113 402.458V396.223H416.281V402.438C416.281 403.657 416.783 404.277 417.807 404.277C418.87 404.277 419.573 403.897 419.954 403.138V396.223H422.122V405.856H420.075L420.015 404.917Z" fill="#313131"/>
<path d="M428.304 404.301C428.845 404.301 429.287 404.141 429.648 403.821C430.01 403.502 430.19 403.122 430.231 402.662H432.278C432.258 403.262 432.057 403.821 431.716 404.341C431.355 404.861 430.893 405.28 430.291 405.58C429.689 405.88 429.046 406.04 428.344 406.04C426.999 406.04 425.915 405.6 425.132 404.721C424.329 403.841 423.948 402.642 423.948 401.103V400.883C423.948 399.424 424.349 398.245 425.132 397.366C425.915 396.487 426.999 396.047 428.344 396.047C429.488 396.047 430.431 396.387 431.154 397.046C431.876 397.706 432.258 398.585 432.298 399.684H430.251C430.23 399.125 430.03 398.685 429.689 398.325C429.327 397.966 428.886 397.786 428.324 397.786C427.621 397.786 427.079 398.045 426.698 398.545C426.316 399.045 426.116 399.824 426.116 400.864V401.203C426.116 402.243 426.296 403.022 426.678 403.542C427.039 404.041 427.601 404.301 428.304 404.301Z" fill="#313131"/>
<path d="M436.654 393.863V396.202H438.36V397.801H436.654V403.177C436.654 403.536 436.734 403.816 436.875 403.976C437.015 404.136 437.276 404.216 437.658 404.216C437.899 404.216 438.159 404.196 438.42 404.136V405.815C437.919 405.955 437.457 406.015 436.995 406.015C435.329 406.015 434.486 405.095 434.486 403.257V397.801H432.9V396.202H434.486V393.863H436.654Z" fill="#313131"/>
</g>
</svg>
