<svg width="20" height="20" viewBox="0 0 20 20" fill="none" xmlns="http://www.w3.org/2000/svg">
<g clip-path="url(#clip0_7473_1354)">
<path d="M12.899 14.3202C11.2917 15.5688 9.26893 16.1578 7.2426 15.9673C5.21626 15.7769 3.3387 14.8213 1.99221 13.2951C0.645719 11.7689 -0.0684499 9.78685 -0.00488235 7.75258C0.0586852 5.71831 0.895209 3.78474 2.33436 2.34559C3.77351 0.90644 5.70708 0.0699157 7.74135 0.00634812C9.77562 -0.0572194 11.7576 0.656949 13.2838 2.00344C14.81 3.34993 15.7657 5.22749 15.9561 7.25383C16.1466 9.28016 15.5575 11.3029 14.309 12.9102L19.659 18.2402L18.239 19.6602L12.909 14.3202H12.899ZM7.99897 14.0002C8.7869 14.0002 9.56711 13.845 10.2951 13.5435C11.023 13.2419 11.6845 12.8 12.2416 12.2428C12.7988 11.6857 13.2407 11.0242 13.5422 10.2963C13.8438 9.56834 13.999 8.78813 13.999 8.0002C13.999 7.21226 13.8438 6.43205 13.5422 5.7041C13.2407 4.97614 12.7988 4.31471 12.2416 3.75756C11.6845 3.2004 11.023 2.75845 10.2951 2.45692C9.56711 2.15539 8.7869 2.0002 7.99897 2.0002C6.40767 2.0002 4.88154 2.63234 3.75633 3.75756C2.63111 4.88277 1.99897 6.4089 1.99897 8.0002C1.99897 9.59149 2.63111 11.1176 3.75633 12.2428C4.88154 13.3681 6.40767 14.0002 7.99897 14.0002Z" fill="#888888"/>
</g>
<defs>
<clipPath id="clip0_7473_1354">
<rect width="20" height="20" fill="white"/>
</clipPath>
</defs>
</svg>
