<svg width="70" height="70" viewBox="0 0 70 70" fill="none" xmlns="http://www.w3.org/2000/svg">
<path d="M55.417 20.4165C54.6434 20.4165 53.9016 20.7238 53.3546 21.2708C52.8076 21.8178 52.5003 22.5596 52.5003 23.3332V55.9736C52.4166 57.4485 51.7536 58.8306 50.6555 59.8189C49.5574 60.8071 48.1134 61.3215 46.6378 61.2499H23.3628C21.8873 61.3215 20.4432 60.8071 19.3451 59.8189C18.2471 58.8306 17.584 57.4485 17.5003 55.9736V23.3332C17.5003 22.5596 17.193 21.8178 16.6461 21.2708C16.0991 20.7238 15.3572 20.4165 14.5837 20.4165C13.8101 20.4165 13.0682 20.7238 12.5213 21.2708C11.9743 21.8178 11.667 22.5596 11.667 23.3332V55.9736C11.7502 58.9959 13.0279 61.8621 15.22 63.9444C17.4122 66.0267 20.3402 67.1553 23.3628 67.0832H46.6378C49.6604 67.1553 52.5885 66.0267 54.7806 63.9444C56.9728 61.8621 58.2504 58.9959 58.3336 55.9736V23.3332C58.3336 22.5596 58.0264 21.8178 57.4794 21.2708C56.9324 20.7238 56.1905 20.4165 55.417 20.4165Z" fill="#FC5858"/>
<path d="M58.3333 11.6665H46.6667V5.83317C46.6667 5.05962 46.3594 4.31776 45.8124 3.77078C45.2654 3.22379 44.5235 2.9165 43.75 2.9165H26.25C25.4764 2.9165 24.7346 3.22379 24.1876 3.77078C23.6406 4.31776 23.3333 5.05962 23.3333 5.83317V11.6665H11.6667C10.8931 11.6665 10.1513 11.9738 9.60427 12.5208C9.05729 13.0678 8.75 13.8096 8.75 14.5832C8.75 15.3567 9.05729 16.0986 9.60427 16.6456C10.1513 17.1925 10.8931 17.4998 11.6667 17.4998H58.3333C59.1069 17.4998 59.8487 17.1925 60.3957 16.6456C60.9427 16.0986 61.25 15.3567 61.25 14.5832C61.25 13.8096 60.9427 13.0678 60.3957 12.5208C59.8487 11.9738 59.1069 11.6665 58.3333 11.6665ZM29.1667 11.6665V8.74984H40.8333V11.6665H29.1667Z" fill="#FC5858"/>
<path d="M32.0833 49.5833V29.1667C32.0833 28.3931 31.7761 27.6513 31.2291 27.1043C30.6821 26.5573 29.9402 26.25 29.1667 26.25C28.3931 26.25 27.6513 26.5573 27.1043 27.1043C26.5573 27.6513 26.25 28.3931 26.25 29.1667V49.5833C26.25 50.3569 26.5573 51.0988 27.1043 51.6457C27.6513 52.1927 28.3931 52.5 29.1667 52.5C29.9402 52.5 30.6821 52.1927 31.2291 51.6457C31.7761 51.0988 32.0833 50.3569 32.0833 49.5833Z" fill="#FC5858"/>
<path d="M43.7503 49.5833V29.1667C43.7503 28.3931 43.443 27.6513 42.8961 27.1043C42.3491 26.5573 41.6072 26.25 40.8337 26.25C40.0601 26.25 39.3182 26.5573 38.7713 27.1043C38.2243 27.6513 37.917 28.3931 37.917 29.1667V49.5833C37.917 50.3569 38.2243 51.0988 38.7713 51.6457C39.3182 52.1927 40.0601 52.5 40.8337 52.5C41.6072 52.5 42.3491 52.1927 42.8961 51.6457C43.443 51.0988 43.7503 50.3569 43.7503 49.5833Z" fill="#FC5858"/>
</svg>
