<svg width="34" height="40" viewBox="0 0 34 40" fill="none" xmlns="http://www.w3.org/2000/svg">
<g opacity="0.3">
<path opacity="0.3" d="M23.7439 8.20799C22.8145 8.20711 21.9234 7.84475 21.2662 7.20047C20.609 6.55618 20.2394 5.6826 20.2385 4.77145V0H4.57469C3.36141 0 2.19782 0.472519 1.3399 1.31358C0.481979 2.15465 0 3.29535 0 4.4848V31.5203C0.00180172 32.7086 0.484571 33.8477 1.3423 34.6873C2.20003 35.5269 3.36259 35.9985 4.57469 35.9985H23.3784C24.5905 35.9985 25.7531 35.5269 26.6108 34.6873C27.4685 33.8477 27.9513 32.7086 27.9531 31.5203V8.20799H23.7439Z" fill="#5B5B5B"/>
</g>
<path d="M27.9529 8.20799H23.7437C22.8143 8.20711 21.9232 7.84475 21.266 7.20047C20.6088 6.55618 20.2392 5.6826 20.2383 4.77145V0L27.9529 8.20799Z" fill="#5B5B5B"/>
<path d="M22.202 25.1389H4.65117C4.4821 25.1389 4.31994 25.0731 4.20039 24.9558C4.08083 24.8386 4.01367 24.6797 4.01367 24.5139C4.01412 24.3485 4.08148 24.1899 4.20099 24.0731C4.32049 23.9562 4.48239 23.8906 4.65117 23.8906H22.202C22.3706 23.8906 22.5323 23.9563 22.6515 24.0732C22.7708 24.19 22.8378 24.3486 22.8378 24.5139C22.838 24.5959 22.8217 24.6772 22.7899 24.753C22.758 24.8288 22.7112 24.8977 22.6521 24.9557C22.5931 25.0138 22.5229 25.0599 22.4457 25.0913C22.3684 25.1227 22.2856 25.1389 22.202 25.1389Z" fill="#5B5B5B"/>
<path d="M22.202 18.0998H4.65117C4.48239 18.0998 4.32049 18.0342 4.20099 17.9174C4.08148 17.8005 4.01412 17.642 4.01367 17.4765C4.01367 17.3108 4.08083 17.1518 4.20039 17.0346C4.31994 16.9174 4.4821 16.8516 4.65117 16.8516H22.202C22.2856 16.8516 22.3684 16.8677 22.4457 16.8992C22.5229 16.9306 22.5931 16.9766 22.6521 17.0347C22.7112 17.0928 22.758 17.1617 22.7899 17.2375C22.8217 17.3133 22.838 17.3945 22.8378 17.4765C22.8378 17.6418 22.7708 17.8004 22.6515 17.9173C22.5323 18.0342 22.3706 18.0998 22.202 18.0998Z" fill="#5B5B5B"/>
<path d="M22.202 21.6194H4.65117C4.4821 21.6194 4.31994 21.5535 4.20039 21.4363C4.08083 21.3191 4.01367 21.1602 4.01367 20.9944C4.01412 20.8289 4.08148 20.6704 4.20099 20.5535C4.32049 20.4367 4.48239 20.3711 4.65117 20.3711H22.202C22.3706 20.3711 22.5323 20.4368 22.6515 20.5537C22.7708 20.6706 22.8378 20.8291 22.8378 20.9944C22.838 21.0764 22.8217 21.1576 22.7899 21.2334C22.758 21.3093 22.7112 21.3782 22.6521 21.4362C22.5931 21.4943 22.5229 21.5403 22.4457 21.5718C22.3684 21.6032 22.2856 21.6194 22.202 21.6194Z" fill="#5B5B5B"/>
<path d="M15.2796 14.5803H4.65117C4.48239 14.5803 4.32049 14.5147 4.20099 14.3979C4.08148 14.281 4.01412 14.1225 4.01367 13.957C4.01367 13.7913 4.08083 13.6323 4.20039 13.5151C4.31994 13.3979 4.4821 13.332 4.65117 13.332H15.2796C15.4484 13.3325 15.6101 13.3985 15.7293 13.5157C15.8484 13.6328 15.9154 13.7915 15.9154 13.957C15.9149 14.1222 15.8478 14.2805 15.7287 14.3973C15.6095 14.5141 15.4481 14.5799 15.2796 14.5803Z" fill="#5B5B5B"/>
<path d="M15.2796 11.0608H4.65117C4.48239 11.0608 4.32049 10.9951 4.20099 10.8783C4.08148 10.7614 4.01412 10.6029 4.01367 10.4375C4.01367 10.2717 4.08083 10.1127 4.20039 9.99552C4.31994 9.87831 4.4821 9.8125 4.65117 9.8125H15.2796C15.4484 9.81294 15.6101 9.87897 15.7293 9.99613C15.8484 10.1133 15.9154 10.272 15.9154 10.4375C15.9149 10.6027 15.8478 10.7609 15.7287 10.8777C15.6095 10.9945 15.4481 11.0603 15.2796 11.0608Z" fill="#5B5B5B"/>
<path d="M31.2697 28.4336H10.0129C8.50507 28.4336 7.28271 29.6319 7.28271 31.1101V37.3232C7.28271 38.8014 8.50507 39.9998 10.0129 39.9998H31.2697C32.7776 39.9998 33.9999 38.8014 33.9999 37.3232V31.1101C33.9999 29.6319 32.7776 28.4336 31.2697 28.4336Z" fill="#5B5B5B"/>
<path d="M14.2564 35.5625V36.7741H12.978V35.5625H14.2564Z" fill="white"/>
<path d="M16.1363 35.0149V36.7731H14.9004V31.7617H16.903C17.5099 31.7617 17.974 31.91 18.2919 32.205C18.4528 32.36 18.5783 32.5466 18.6604 32.7525C18.7424 32.9585 18.7791 33.1791 18.7679 33.4C18.7741 33.6913 18.7007 33.979 18.5554 34.2333C18.407 34.4818 18.187 34.6819 17.923 34.8083C17.6046 34.9558 17.255 35.0272 16.903 35.0166L16.1363 35.0149ZM17.5099 33.4C17.5099 32.9555 17.2617 32.7333 16.7653 32.7333H16.1363V34.0383H16.7653C17.2617 34.0427 17.5099 33.8299 17.5099 33.4Z" fill="white"/>
<path d="M23.652 35.5658C23.4391 35.9447 23.1176 36.2542 22.7272 36.4558C22.2879 36.6763 21.7994 36.7857 21.306 36.7741H19.3765V31.7627H21.306C21.7997 31.7505 22.2889 31.8575 22.7306 32.0743C23.1199 32.2716 23.4406 32.5779 23.652 32.9543C23.8732 33.3538 23.9845 33.803 23.975 34.2575C23.9842 34.7136 23.8729 35.1643 23.652 35.5658ZM22.3226 35.3141C22.4608 35.1751 22.5678 35.0093 22.6369 34.8273C22.706 34.6454 22.7356 34.4513 22.7238 34.2575C22.7356 34.064 22.7061 33.8701 22.637 33.6884C22.5679 33.5068 22.4608 33.3413 22.3226 33.2026C22.0134 32.9366 21.6095 32.8012 21.1989 32.8259H20.6124V35.6891H21.1989C21.6091 35.7136 22.0127 35.5789 22.3226 35.3141Z" fill="white"/>
<path d="M28.0095 31.7617V32.7267H25.9134V33.8249H27.5318V34.7466H25.9134V36.7731H24.6758V31.7617H28.0095Z" fill="white"/>
<path d="M21.8907 9.8125H18.8851C18.3612 9.8125 17.9365 10.2289 17.9365 10.7425V13.689C17.9365 14.2026 18.3612 14.619 18.8851 14.619H21.8907C22.4146 14.619 22.8393 14.2026 22.8393 13.689V10.7425C22.8393 10.2289 22.4146 9.8125 21.8907 9.8125Z" fill="#5B5B5B"/>
</svg>
