<svg width="50" height="50" viewBox="0 0 50 50" fill="none" xmlns="http://www.w3.org/2000/svg">
<rect width="50" height="50" rx="5" fill="#F1F1F1"/>
<g clip-path="url(#clip0_6213_3005)">
<path d="M18.3 31.3H14.25C13.7 31.3 13.25 30.85 13.25 30.3V19.7C13.25 19.15 13.7 18.7 14.25 18.7H18.3C18.85 18.7 19.3 19.15 19.3 19.7V30.35C19.25 30.85 18.8 31.3 18.3 31.3ZM15.2 29.35H17.3V20.65H15.2V29.35Z" fill="#888888"/>
<path d="M26.6 36.7499C26.4 36.7499 26.2 36.6999 26.05 36.5999L17.7 31.0999C17.45 30.8999 17.25 30.5999 17.25 30.2999V19.7999C17.25 19.4499 17.4 19.1499 17.7 18.9999L26.05 13.4999C26.35 13.2999 26.75 13.2999 27.05 13.4499C27.35 13.5999 27.55 13.9499 27.55 14.2999V35.8499C27.55 36.1999 27.35 36.5499 27.05 36.6999C26.95 36.6999 26.8 36.7499 26.6 36.7499ZM19.25 29.6999L25.65 33.8999V16.0499L19.25 20.2999V29.6999Z" fill="#888888"/>
<path d="M33.3999 31.75C33.1499 31.75 32.8999 31.65 32.6999 31.45C32.2999 31.05 32.2999 30.45 32.6999 30.05C35.4499 27.25 35.4499 22.7 32.6999 19.85C32.2999 19.45 32.3499 18.85 32.6999 18.45C33.0999 18.05 33.6999 18.1 34.0999 18.45C37.5999 22 37.5999 27.8 34.0999 31.4C33.9499 31.65 33.6999 31.75 33.3999 31.75Z" fill="#888888"/>
<path d="M30.3999 28.7001C30.1499 28.7001 29.8999 28.6001 29.6999 28.4001C29.2999 28.0001 29.2999 27.4001 29.6999 27.0001C30.7999 25.9001 30.7999 24.1001 29.6999 22.9501C29.2999 22.5501 29.3499 21.9501 29.6999 21.5501C30.0999 21.1501 30.6999 21.2001 31.0999 21.5501C32.9499 23.4001 32.9499 26.4501 31.0999 28.3501C30.8999 28.6001 30.6499 28.7001 30.3999 28.7001Z" fill="#888888"/>
</g>
<rect x="32.7588" y="13" width="2" height="30" rx="1" transform="rotate(41.1948 32.7588 13)" fill="#888888"/>
<defs>
<clipPath id="clip0_6213_3005">
<rect width="24" height="24" fill="white" transform="translate(13 13)"/>
</clipPath>
</defs>
</svg>
