<svg width="50" height="50" viewBox="0 0 50 50" fill="none" xmlns="http://www.w3.org/2000/svg">
<rect width="50" height="50" rx="5" fill="#F1F1F1"/>
<path d="M24.3302 30.1429C21.4944 30.1429 19.1874 27.8359 19.1874 25V18.1429C19.1874 15.307 21.4944 13 24.3302 13C27.1661 13 29.4731 15.307 29.4731 18.1429V25C29.4731 27.8359 27.1661 30.1429 24.3302 30.1429ZM24.3302 14.7143C22.4398 14.7143 20.9016 16.2524 20.9016 18.1429V25C20.9016 26.8904 22.4398 28.4286 24.3302 28.4286C26.2206 28.4286 27.7588 26.8904 27.7588 25V18.1429C27.7588 16.2524 26.2206 14.7143 24.3302 14.7143ZM32.0445 23.2857C31.5711 23.2857 31.1874 23.6695 31.1874 24.1429V25C31.1874 28.7811 28.1113 31.8571 24.3302 31.8571C20.5491 31.8571 17.4731 28.7811 17.4731 25V24.1429C17.4731 23.6695 17.0893 23.2857 16.6159 23.2857C16.1426 23.2857 15.7588 23.6695 15.7588 24.1429V25C15.7588 29.4372 19.1477 33.0966 23.4731 33.5279V35.2857H21.7588C21.2854 35.2857 20.9016 35.6695 20.9016 36.1429C20.9016 36.6162 21.2854 37 21.7588 37H26.9016C27.375 37 27.7588 36.6162 27.7588 36.1429C27.7588 35.6695 27.375 35.2857 26.9016 35.2857H25.1874V33.5279C29.5127 33.0964 32.9016 29.437 32.9016 25V24.1429C32.9016 23.6695 32.5179 23.2857 32.0445 23.2857Z" fill="#888888"/>
</svg>
