<svg width="50" height="50" viewBox="0 0 50 50" fill="none" xmlns="http://www.w3.org/2000/svg">
<rect width="50" height="50" rx="5" fill="#F1F1F1"/>
<path d="M34.7749 19.5426C34.4424 19.3632 34.067 19.2787 33.6897 19.2984C33.3124 19.3181 32.9478 19.4412 32.6358 19.6542L28.6664 22.3181V20.2C28.6657 19.6167 28.4337 19.0575 28.0213 18.6451C27.6089 18.2327 27.0497 18.0007 26.4664 18H16.2C15.6167 18.0007 15.0575 18.2327 14.6451 18.6451C14.2327 19.0575 14.0007 19.6167 14 20.2V30.4664C14.0007 31.0497 14.2327 31.6089 14.6451 32.0213C15.0575 32.4337 15.6167 32.6657 16.2 32.6664H26.4664C27.0497 32.6657 27.6089 32.4337 28.0213 32.0213C28.4337 31.6089 28.6657 31.0497 28.6664 30.4664V28.3482L32.6366 31.0122C32.9478 31.2266 33.3125 31.3506 33.69 31.3703C34.0675 31.39 34.443 31.3047 34.7749 31.1238C35.1529 30.9139 35.4666 30.605 35.6823 30.2304C35.8981 29.8557 36.0077 29.4294 35.9996 28.9971V21.6695C36.0078 21.2372 35.8981 20.8108 35.6824 20.4361C35.4666 20.0614 35.1529 19.7525 34.7749 19.5426V19.5426ZM27.1997 30.4664C27.1995 30.6608 27.1222 30.8472 26.9847 30.9847C26.8472 31.1222 26.6608 31.1995 26.4664 31.1997H16.2C16.0055 31.1995 15.8192 31.1222 15.6817 30.9847C15.5442 30.8472 15.4669 30.6608 15.4666 30.4664V20.2C15.4669 20.0055 15.5442 19.8192 15.6817 19.6817C15.8192 19.5442 16.0055 19.4669 16.2 19.4666H26.4664C26.6608 19.4669 26.8472 19.5442 26.9847 19.6817C27.1222 19.8192 27.1995 20.0055 27.1997 20.2V30.4664ZM34.5329 28.9969C34.5409 29.1634 34.5033 29.329 34.4243 29.4758C34.3454 29.6227 34.2279 29.7453 34.0846 29.8305C33.9871 29.8856 33.8758 29.9115 33.764 29.9052C33.6522 29.8988 33.5446 29.8605 33.4539 29.7947L28.6664 26.5822V24.0842L33.453 20.8723C33.5443 20.8074 33.6519 20.7697 33.7637 20.7633C33.8754 20.757 33.9866 20.7824 34.0846 20.8365C34.2278 20.9216 34.3452 21.0441 34.4242 21.1909C34.5032 21.3376 34.5407 21.5031 34.5329 21.6695V28.9969Z" fill="#888888" stroke="#888888" stroke-width="0.5"/>
<rect x="31.7593" y="13" width="2" height="30" rx="1" transform="rotate(41.1948 31.7593 13)" fill="#888888"/>
</svg>
