<svg width="32" height="32" viewBox="0 0 32 32" fill="none" xmlns="http://www.w3.org/2000/svg">
<rect opacity="0.2" width="32" height="32" rx="4" fill="#5AC8D2"/>
<path fill-rule="evenodd" clip-rule="evenodd" d="M13.4997 16.5537C16.2543 16.5537 18.4624 14.3171 18.4624 11.5268C18.4624 8.73663 16.2543 6.5 13.4997 6.5C10.7452 6.5 8.53711 8.73663 8.53711 11.5268C8.53711 14.3171 10.7452 16.5537 13.4997 16.5537ZM13.5 19.0152C9.45422 19.0152 6 19.6621 6 22.2464C6 24.8298 9.4332 25.5 13.5 25.5C17.5448 25.5 21 24.8531 21 22.2688C21 19.6844 17.5668 19.0152 13.5 19.0152ZM23.8979 13.5879H25.101C25.5962 13.5879 26 13.9973 26 14.4995C26 15.0016 25.5962 15.4111 25.101 15.4111H23.8979V16.5884C23.8979 17.0906 23.4952 17.5 22.999 17.5C22.5038 17.5 22.1 17.0906 22.1 16.5884V15.4111H20.899C20.4027 15.4111 20 15.0016 20 14.4995C20 13.9973 20.4027 13.5879 20.899 13.5879H22.1V12.4116C22.1 11.9094 22.5038 11.5 22.999 11.5C23.4952 11.5 23.8979 11.9094 23.8979 12.4116V13.5879Z" fill="#5AC8D2"/>
</svg>
