<?xml version="1.0" encoding="UTF-8"?>
<svg id="Layer_2" data-name="Layer 2" xmlns="http://www.w3.org/2000/svg" viewBox="0 0 1181.7 1037.4">
  <defs>
    <style>
      .cls-1 {
        fill: #fff;
      }

      .cls-2 {
        fill: none;
        stroke: #231f20;
        stroke-miterlimit: 10;
        stroke-width: 8px;
      }

      .cls-3 {
        fill: #21bfe8;
      }

      .cls-4 {
        fill: #231f20;
        font-family: Korto-Bold, Korto;
        font-size: 49.73px;
        font-weight: 700;
      }

      .cls-5 {
        letter-spacing: -.03em;
      }

      .cls-6 {
        fill: #010101;
      }
    </style>
  </defs>
  <g id="Layer_1-2" data-name="Layer 1">
    <g>
      <path class="cls-3" d="M1179.46,684v234.99H0v-234.99H1179.46Z"/>
      <polygon class="cls-1" points="136.46 853.13 136.46 883.53 38.36 883.53 38.36 717.59 132.73 717.59 132.73 748.03 75.17 748.03 75.17 784.84 128.67 784.84 128.67 815.19 75.17 815.19 75.17 853.13 136.46 853.13"/>
      <path class="cls-1" d="M345.62,717.59l-56.37,165.94h-41.73l-55.69-165.94h39.7l34.1,115.49c1.66,5.38,2.78,10.93,3.31,16.55h.7c.65-5.77,1.83-11.46,3.53-17.02l33.88-115.03h38.58Z"/>
      <polygon class="cls-1" points="510.06 853.13 510.06 883.53 411.96 883.53 411.96 717.59 506.31 717.59 506.31 748.03 448.8 748.03 448.8 784.84 502.31 784.84 502.31 815.19 448.8 815.19 448.8 853.13 510.06 853.13"/>
      <path class="cls-1" d="M730.2,717.59v165.94h-37.19l-67.42-104.27c-2.97-4.43-5.72-9.03-8.21-13.75h-.46c.59,5.86,.89,14.8,.91,26.84v91.19h-34.8v-165.94h39.7l64.91,101.02c2.96,4.58,5.67,9.07,8.21,13.55h.46c-.79-7.56-1.11-15.19-.91-22.8v-91.76h34.8Z"/>
      <polygon class="cls-1" points="929.26 717.59 929.22 748.03 882.54 748.03 882.54 883.53 845.6 883.53 845.6 748.03 799.21 748.03 799.21 717.59 929.26 717.59"/>
      <path class="cls-1" d="M1126.34,737.99c-14.4-15.51-33.27-23.27-56.64-23.27-24.7,0-44.55,8.11-59.52,24.34-14.99,16.23-22.47,37.43-22.47,63.63,.05,24.9,7.41,45.08,22.11,60.54,14.71,15.46,33.8,23.19,57.28,23.19,24-.05,43.48-8.05,58.44-24.02,14.96-15.96,22.44-36.98,22.44-63.06-.02-25.4-7.23-45.85-21.63-61.36Zm-28.36,102.27c-3.71,4.41-8.34,7.95-13.54,10.37-5.2,2.41-10.87,3.64-16.59,3.61-5.73-.05-11.37-1.35-16.55-3.82-5.16-2.49-9.75-6.08-13.41-10.55-7.61-9.78-11.41-22.78-11.41-38.98s3.8-29.22,11.41-39.05c3.59-4.79,8.27-8.62,13.61-11.19,5.37-2.56,11.24-3.79,17.16-3.57v-.07c5.73-.23,11.42,.96,16.59,3.47,5.18,2.51,9.67,6.26,13.08,10.93,7.22,9.61,10.85,22.99,10.85,40.17s-3.73,29.41-11.21,38.7Z"/>
      <path class="cls-6" d="M92.17,1011.65h7.5c7.32,.39,14.52-1.95,20.25-6.57,2.47-2.12,4.45-4.77,5.76-7.77,1.32-2.99,1.95-6.25,1.85-9.53-.02-15.05-8.84-22.59-26.45-22.59h-24.66v70.9h15.75v-24.45Zm0-34.2h6.2c8.38-.15,12.58,3.5,12.58,10.94s-4.19,11.15-12.58,11.15h-6.2v-22.08Z"/>
      <path class="cls-6" d="M299.05,1036.09l-24.83-70.9h-18.67l-25.47,70.9h17.05l4.93-15.77h24.87l4.97,15.77h17.15Zm-25.71-28.06h-17.89l7.61-24.01c.64-2.01,1.04-4.08,1.2-6.18h.39c.18,2.15,.58,4.29,1.2,6.36l7.5,23.83Z"/>
      <path class="cls-6" d="M457.74,1033.59v-14.69c-5.11,3.05-10.94,4.63-16.87,4.57-2.84,.14-5.68-.33-8.32-1.39-2.65-1.05-5.04-2.67-7.03-4.72-3.96-4.5-6.01-10.39-5.71-16.41-.16-3.1,.29-6.2,1.33-9.12,1.04-2.92,2.65-5.6,4.73-7.88,2.07-2.12,4.55-3.77,7.29-4.86,2.74-1.09,5.66-1.59,8.6-1.46,5.61-.09,11.15,1.37,15.99,4.25v-15.36c-5.56-1.9-11.4-2.79-17.26-2.64-4.97-.19-9.92,.67-14.54,2.52-4.62,1.84-8.82,4.63-12.34,8.2-3.48,3.64-6.2,7.97-7.98,12.71-1.78,4.74-2.59,9.8-2.38,14.87-.22,4.67,.48,9.33,2.05,13.72,1.58,4.39,4.01,8.41,7.14,11.84,3.34,3.28,7.3,5.83,11.66,7.48,4.35,1.66,8.99,2.38,13.63,2.13,6.86,.27,13.7-1.01,20.01-3.75Z"/>
      <path class="cls-6" d="M627.83,1036.09l-26.45-37.1,24.38-33.81h-18.77l-19.3,29.55c-.92,1.72-1.55,3.04-1.94,3.97h-.25v-33.52h-15.74v71h15.74v-34.69h.25c.52,1.33,1.14,2.64,1.83,3.89l20.39,30.7h19.87Z"/>
      <path class="cls-6" d="M795.82,1036.09l-24.73-70.9h-18.67l-25.43,70.9h17.05l4.93-15.77h24.87l4.97,15.77h17.01Zm-25.75-28.06h-17.68l7.57-24.01c.65-2,1.06-4.08,1.23-6.18h.21c.19,2.15,.58,4.28,1.16,6.36l7.5,23.83Z"/>
      <path class="cls-6" d="M961.77,1031.34l-.25-35.66h-29.72v12.76h14.08v13.87c-2.83,1.2-5.9,1.77-8.98,1.64-2.77,.13-5.53-.33-8.11-1.37-2.57-1.03-4.9-2.61-6.82-4.63-3.7-4.93-5.64-10.98-5.53-17.18,.11-6.19,2.28-12.16,6.16-16.95,2.07-2.15,4.56-3.84,7.31-4.95,2.75-1.12,5.7-1.63,8.65-1.51,6.89-.23,13.73,1.4,19.8,4.75v-14.97c-6.3-2.19-12.93-3.26-19.59-3.15-5.15-.23-10.29,.58-15.13,2.39-4.84,1.81-9.27,4.59-13.04,8.15-3.52,3.56-6.28,7.82-8.1,12.51-1.82,4.7-2.66,9.72-2.47,14.76-.26,4.8,.47,9.6,2.14,14.09,1.68,4.49,4.26,8.57,7.58,12,7.27,6.6,16.82,10.01,26.55,9.47,8.87,.31,17.65-1.76,25.47-6.01Z"/>
      <path class="cls-6" d="M1116.96,1036.09v-12.83h-26.28v-16.34h22.86v-12.97h-22.86v-15.76h24.65v-13.01h-40.29v70.9h41.92Z"/>
      <path class="cls-3" d="M779.7,548.63c-.05,.09-.13,.15-.22,.18-.09,.03-.19,.02-.28-.03-.08-.05-.15-.13-.17-.22-.03-.09-.02-.19,.03-.28,0-.04,0-.09,.02-.13,.02-.04,.05-.08,.08-.11,.03-.03,.07-.05,.11-.07,.04-.01,.08-.02,.13-.01-.06-.49,.05-.99,.33-1.4,.27-.41,.68-.71,1.15-.85,.48-.29,.87-.71,1.13-1.22,.24,.51,.62,.93,1.1,1.22,.47,.13,.88,.43,1.15,.85,.28,.41,.39,.91,.33,1.4,.05,0,.09,0,.13,.01,.05,.01,.08,.04,.11,.07,.04,.03,.06,.07,.08,.11,.02,.04,.03,.09,.03,.13,0,.05,0,.1-.02,.14-.02,.05-.04,.09-.08,.12-.03,.03-.08,.06-.12,.08-.04,.02-.09,.02-.14,.02v21.44l-26.24-6.29v-3.82l21.35,5.11v-16.44Z"/>
      <path class="cls-3" d="M709.64,536.91l3.17-.07c0-10.54,5.18-12.83,10.14-15.33,3.29-1.96,5.96-4.83,7.68-8.29,1.7,3.46,4.36,6.34,7.64,8.29,4.97,2.5,10.14,4.79,10.14,15.33h3.1v3.29h-4.19v4.36c-.48,.94-1.06,1.83-1.73,2.64-.62,.69-1.09,1.49-1.39,2.37-.3,.88-.41,1.81-.34,2.74v7.65h9.55v-18.05h-.42c-.09,0-.18-.04-.25-.1s-.1-.16-.1-.25,.04-.19,.1-.25c.07-.07,.16-.11,.25-.11-.04-.49,.08-.97,.35-1.38,.27-.4,.67-.7,1.13-.84,0-.3,.12-.59,.33-.81,.21-.21,.5-.33,.8-.33s.59,.12,.8,.33c.21,.21,.33,.51,.33,.81,.46,.14,.86,.43,1.13,.84,.27,.4,.39,.89,.35,1.38,.09,0,.18,.04,.25,.11,.07,.07,.1,.16,.1,.25s-.04,.19-.1,.25c-.07,.07-.16,.1-.25,.1v18.69l-2.43-.5v3.75h-43.43v-3.82h4.65v-7.65c.14-1.85-.42-3.68-1.59-5.11-.61-.83-1.14-1.71-1.58-2.64v-4.36h-4.19v-3.29Zm22.54,15.4l.11,7.65h8.81v-7.65c.06-.97-.11-1.94-.49-2.83-.39-.89-.98-1.67-1.73-2.28,.06-.33,.04-.67-.04-.99-.08-.32-.24-.62-.45-.88-.21-.26-.48-.46-.78-.6-.3-.14-.62-.21-.95-.21s-.66,.07-.95,.21c-.3,.14-.56,.35-.78,.6-.21,.26-.36,.56-.45,.88-.09,.32-.1,.66-.04,.99-.76,.6-1.36,1.38-1.75,2.27-.39,.89-.56,1.87-.5,2.84Zm-11.94,0v7.65h8.91v-7.65c.06-.97-.11-1.94-.49-2.83-.39-.89-.98-1.67-1.73-2.28-.85-.79-1.61-1.67-2.25-2.64-.62,.98-1.37,1.86-2.22,2.64-.75,.61-1.34,1.39-1.73,2.28-.39,.89-.56,1.86-.49,2.83Z"/>
      <path class="cls-3" d="M138.85,510.9c-.34-.06-.69-.04-1.02,.05-.33,.09-.64,.26-.9,.48-.26,.22-.48,.5-.63,.82-.15,.32-.23,.66-.23,1.01H40.22v-5.93h102.15v3.57h-3.52Z"/>
      <path class="cls-3" d="M148.43,447.04h-.14c-.7-.08-1.34-.42-1.81-.95-.47-.53-.73-1.22-.73-1.93,0-.71,.26-1.4,.73-1.93,.47-.53,1.11-.87,1.81-.95v-1.89c0-6.29,11.69-20.58,11.69-20.58,0,0,11.69,14.44,11.69,20.58v1.89c.7,.08,1.34,.42,1.81,.95,.47,.53,.73,1.22,.73,1.93s-.26,1.4-.73,1.93c-.47,.53-1.11,.87-1.81,.95v23.91h.7c.39,0,.77,.16,1.05,.44,.28,.28,.43,.66,.43,1.06s-.16,.78-.43,1.06c-.28,.28-.65,.44-1.05,.44h-24.66c-.39,0-.77-.16-1.05-.44-.28-.28-.43-.66-.43-1.06s.16-.78,.43-1.06c.28-.28,.65-.44,1.05-.44h.7v-23.91Zm18.11,4.86v10.51h3.17v-10.51c0-1.39-.7-2.5-1.59-2.5s-1.58,1.11-1.58,2.5Zm-8.88,0v10.51h4.97v-10.51c0-.33-.06-.66-.19-.97-.13-.31-.31-.58-.54-.82-.23-.23-.51-.42-.81-.54-.3-.12-.63-.18-.95-.18-.32,0-.64,.06-.94,.19-.3,.13-.57,.31-.8,.54-.23,.23-.41,.51-.53,.81-.12,.3-.19,.63-.19,.96Zm-7.04,0v10.51h3.13v-10.51c0-1.39-.74-2.5-1.58-2.5s-1.55,1.11-1.55,2.5Z"/>
      <path class="cls-3" d="M270.84,618.14v4.57h-7.57c-1.62,0-1.2-2.29-1.2-2.29-1.3,0-1.3-2.43-1.3-2.43h2.64c-1.9-38.52-34.84-43.99-34.84-43.99,0,0-33.08,5.61-34.84,44.13h2.61s.18,2.43-1.27,2.43c0,0,.39,2.29-1.2,2.29h-7.57v-4.72h3.28c1.87-43.27,38.99-49.39,38.99-49.39,0,0,36.99,6.11,38.75,49.39h3.52Z"/>
      <path class="cls-3" d="M901.67,466.26v-2.68l-2.43-2.68h239.03l-2.43,2.68v2.68h-234.18Z"/>
      <path class="cls-3" d="M1130.78,439.53v18.26h-224.03v-18.26h224.03Z"/>
      <path class="cls-3" d="M1124.22,414.88v18.62h-210.92v-18.62h210.92Z"/>
      <path class="cls-3" d="M1065.29,362.21v7.54h-93.03v-7.54h93.03Z"/>
      <path class="cls-3" d="M1018.76,343.95c12.25-.02,24.07,4.56,33.19,12.86h-66.33c9.1-8.31,20.91-12.9,33.15-12.86Z"/>
      <path class="cls-3" d="M902.45,479.81l-1.62-4.68h235.86l-1.62,4.68h-232.62Z"/>
      <path class="cls-3" d="M1107.63,373.53v38.41h-177.75v-38.41h177.75Zm-141.43,30.12c2.66,0,5.2-1.09,7.08-2.99,1.88-1.91,2.93-4.49,2.93-7.19,0-2.02-.59-3.99-1.69-5.66-1.1-1.68-2.67-2.98-4.51-3.75-1.84-.77-3.86-.97-5.81-.57-1.95,.4-3.74,1.37-5.14,2.8-1.4,1.43-2.36,3.25-2.74,5.22-.38,1.98-.18,4.03,.59,5.89,.77,1.86,2.05,3.45,3.71,4.56,1.66,1.12,3.6,1.71,5.59,1.7Zm91.58,.96v-22.26h-17.97v-1.86h-41.99v1.86h-17.97v22.26h17.97v1.82h41.99v-1.82h17.97Zm13.59-.96h-.07c1.32,.01,2.63-.25,3.86-.75,1.23-.51,2.34-1.26,3.29-2.2,.93-.95,1.68-2.07,2.19-3.31,.51-1.24,.77-2.57,.77-3.91,0-2.01-.59-3.98-1.69-5.66-1.1-1.67-2.67-2.98-4.5-3.75-1.84-.77-3.85-.97-5.81-.58-1.95,.39-3.73,1.36-5.14,2.79-1.4,1.42-2.36,3.24-2.75,5.21-.38,1.98-.18,4.02,.57,5.88,.76,1.86,2.05,3.45,3.7,4.57,1.65,1.12,3.59,1.72,5.58,1.72Z"/>
      <path class="cls-3" d="M944.86,544.59v16.22h-31.03v-16.22h31.03Z"/>
      <path class="cls-3" d="M944.86,519.08v6.61h-31.03v-6.61h31.03Z"/>
      <path class="cls-3" d="M928.7,505.39c-2.07,0-4.05-.83-5.51-2.31-1.46-1.48-2.28-3.49-2.28-5.58,0-1.56,.46-3.09,1.31-4.39,.86-1.3,2.08-2.31,3.5-2.91,1.42-.6,2.99-.75,4.5-.45,1.51,.3,2.9,1.06,3.98,2.16,1.09,1.1,1.83,2.51,2.14,4.04,.3,1.53,.15,3.12-.44,4.56-.59,1.44-1.59,2.68-2.87,3.54-1.28,.87-2.78,1.33-4.32,1.33Z"/>
      <path class="cls-3" d="M963.22,484.67l-.11,44.63h3.52v2.97h-11.2l-1.23,3h11.06l-2.18,3v30.95h3.52l-1.19,3-2.18,2.97v3.14h2.18v3h-2.18v106.24h-11.2v-26.12h-45.29v26.12h-11.24v-2.47H420.44v-29.98h4.47l1.51-37.41c-2.68-.79-5.32-1.57-7.93-2.43,.64,1.13,1.03,2.39,1.15,3.7,.12,1.3-.05,2.61-.48,3.84-.27,.68-.61,1.33-1.02,1.93v58.89h-31.7v-49.71l-7.47,15.94v33.77h-15.92c-.44,.61-1.08,1.05-1.81,1.23-.73,.18-1.5,.1-2.17-.23-.46-.23-.86-.58-1.16-1h-33.32v-99.66h-2.36v-3.29h-1.8v-4.32h3.52v-9.22c-1.22-.05-2.42-.35-3.52-.89v10.11h-1.62v99.34h.28v2.64h1.69v2.64h2.18v2.64h-57.24c0-5.29,2.92-5.29,2.92-5.29v-50.74c-2.92,0-2.92-2.14-2.92-4.68h7.86v-5.04h-3.52c-1.97-46.21-41.63-52.71-41.63-52.71,0,0-39.63,6.5-41.6,52.71h-3.52v5.04h7.85c0,2.54-.11,4.68-2.92,4.68v50.74s2.92,0,2.92,5.29h-57.31v-2.64h2.18v-2.64h.95v-101.99h-.7v-14.29h-3.52v14.29h3.52v4.32h-1.8v3.29h-2.36v99.45h-54.39v-99.66h-2.36v-3.29h-1.8v-4.32h2.04v-14.29h-3.52v14.29h-2.71v107.2h-30.82v-107.2c-4.16,0-3.52-5.4-3.52-5.4-.47-.1-.92-.31-1.3-.61-.38-.3-.69-.69-.9-1.13-.21-.44-.32-.93-.32-1.42,0-.49,.11-.97,.33-1.41-.96-.15-1.84-.65-2.46-1.42-.62-.77-.93-1.74-.89-2.72l-4.02-5.07h12.86v-1.79h103.31l.42,1.79h1.69l-.81-3.57h-3.52c-1.66,0-2.99-.96-2.99-2.25s1.34-2.29,2.99-2.29h-3.77c-1.66,0-2.99,1-2.99,2.29H36.71v-20.33l-3.52-6.83h5.6v-5.54h100.18l2.22,5.68,.39,1.04v23.84h3.73v-23.87l.25,.61h2.39l-2.39-7.33h-2.92c-.6,0-1.17-.24-1.59-.67-.42-.43-.66-1.01-.66-1.62s.24-1.19,.66-1.62c.42-.43,1-.67,1.59-.67h3.52v-9.51h2.18v-19.98l-4.3-6.25h32.41l-4.3,6.25v19.98h2.18v9.36h3.52c.6,0,1.17,.24,1.59,.67,.42,.43,.66,1.01,.66,1.62s-.24,1.19-.66,1.62-1,.67-1.59,.67h4.93c.6,0,1.17-.24,1.59-.67,.42-.43,.66-1.01,.66-1.62s-.24-1.19-.66-1.62c-.42-.43-1-.67-1.59-.67h-3.52v-9.51h-1.94v-19.98l1.94-3.11,1.94-2.86h-3.87v-4.15h.63c.18,0,.37-.06,.53-.14,.17-.08,.32-.19,.44-.33,.12-.14,.22-.3,.28-.48,.06-.18,.09-.37,.08-.55,0-.19-.02-.38-.08-.55-.06-.18-.16-.34-.28-.48-.12-.14-.27-.25-.44-.33-.17-.08-.35-.13-.53-.14h-.63v-6.47h93.84c-.3-.68-.52-1.38-.67-2.11-.4-2.37,.14-4.8,1.5-6.77,1.36-1.97,3.43-3.31,5.76-3.74,1.23-.22,2.5-.18,3.71,.13,1.21,.31,2.35,.87,3.33,1.66v-2.22c-.21-1.5-.49-3-.49-4.47-.61-.09-1.17-.38-1.6-.83-.43-.45-.7-1.03-.77-1.65-.07-.62,.07-1.25,.39-1.78,.32-.53,.81-.94,1.38-1.17-.28-3.79-.6-7.36-.6-10.93-.83,1.01-1.86,1.82-3.03,2.37-1.17,.56-2.44,.84-3.73,.84-2.36,0-4.63-.95-6.3-2.65-1.67-1.7-2.61-4-2.61-6.39s.94-4.7,2.61-6.39c1.67-1.7,3.94-2.65,6.3-2.65,1.29,0,2.56,.29,3.73,.84,1.17,.56,2.2,1.36,3.03,2.37,.23-7.77,.89-15.53,1.97-23.23-1.41,1.19-3.14,1.91-4.96,2.06-1.82,.16-3.65-.26-5.23-1.18-1.58-.93-2.85-2.33-3.63-4.01-.78-1.68-1.03-3.56-.71-5.39,.31-1.83,1.17-3.52,2.45-4.84,1.29-1.32,2.94-2.21,4.74-2.55,1.8-.34,3.66-.11,5.32,.66,1.67,.77,3.06,2.03,3.99,3.63,1.56-7.59,3.56-15.09,5.99-22.44-1.59,.93-3.43,1.34-5.25,1.17-1.83-.17-3.56-.9-4.97-2.09-1.41-1.2-2.41-2.81-2.89-4.61-.47-1.8-.39-3.7,.24-5.45,.63-1.75,1.77-3.26,3.28-4.33,1.5-1.07,3.3-1.64,5.13-1.64,1.84,0,3.63,.57,5.13,1.64,1.5,1.07,2.65,2.58,3.27,4.33,2.85-7.27,6.11-14.37,9.76-21.26-1.21,.48-2.5,.68-3.79,.58-1.29-.09-2.55-.48-3.67-1.12-1.02-.59-1.91-1.39-2.62-2.33-.71-.94-1.24-2.02-1.54-3.17-.3-1.15-.38-2.35-.23-3.52,.15-1.18,.53-2.32,1.12-3.35s1.36-1.93,2.29-2.66c.93-.72,1.99-1.26,3.12-1.56,1.13-.31,2.31-.39,3.47-.23,1.16,.15,2.28,.54,3.3,1.13,1.13,.67,2.09,1.59,2.82,2.69,.73,1.1,1.21,2.35,1.4,3.67,4.12-6.72,8.61-13.2,13.46-19.4-1.29,.3-2.63,.29-3.92-.02-1.29-.31-2.49-.91-3.51-1.76-1.7-1.58-2.74-3.76-2.89-6.1-.15-2.34,.59-4.64,2.07-6.43,1.48-1.79,3.59-2.94,5.88-3.19,2.29-.26,4.6,.4,6.42,1.82,1.01,.88,1.8,1.98,2.33,3.22,.52,1.24,.76,2.58,.7,3.93,5.2-5.92,10.74-11.53,16.59-16.8-1.33,.06-2.65-.2-3.87-.73-1.22-.54-2.3-1.35-3.17-2.37-1.52-1.84-2.26-4.22-2.06-6.61,.21-2.39,1.34-4.6,3.15-6.15,1.81-1.54,4.15-2.3,6.51-2.09,2.36,.21,4.54,1.36,6.06,3.2,.85,1.03,1.45,2.25,1.77,3.56,.31,1.31,.32,2.67,.03,3.98,6.11-4.92,12.5-9.48,19.13-13.65-1.3-.19-2.53-.67-3.62-1.41-1.09-.74-1.99-1.73-2.65-2.87-1.18-2.08-1.5-4.55-.89-6.87,.61-2.32,2.11-4.29,4.16-5.49,2.05-1.2,4.49-1.52,6.77-.9,2.29,.62,4.23,2.14,5.42,4.22,.64,1.14,1.01,2.42,1.11,3.73,.09,1.31-.11,2.62-.58,3.85,6.85-3.7,13.91-6.99,21.13-9.86-1.71-.64-3.19-1.79-4.24-3.31-1.05-1.52-1.61-3.32-1.61-5.17,0-1.85,.56-3.66,1.6-5.18,1.04-1.52,2.52-2.68,4.23-3.32,1.71-.64,3.58-.73,5.34-.26,1.77,.47,3.35,1.48,4.53,2.89,1.18,1.41,1.91,3.16,2.08,5,.17,1.84-.22,3.7-1.12,5.31,7.25-2.45,14.64-4.48,22.12-6.08-1.1-.65-2.05-1.54-2.78-2.6-.73-1.06-1.22-2.27-1.44-3.55-.2-1.17-.18-2.38,.08-3.54,.25-1.16,.73-2.26,1.41-3.24,.67-.98,1.53-1.81,2.52-2.45,.99-.64,2.1-1.08,3.25-1.28,1.16-.21,2.34-.18,3.49,.08,1.15,.26,2.23,.74,3.19,1.43,.96,.68,1.78,1.55,2.41,2.56,.63,1.01,1.06,2.13,1.26,3.3,.21,1.26,.14,2.55-.18,3.78-.33,1.23-.91,2.38-1.72,3.36,7.59-1.11,15.23-1.76,22.9-1.97-1.41-1.2-2.42-2.8-2.9-4.6-.48-1.8-.4-3.71,.23-5.46,.63-1.75,1.77-3.27,3.27-4.33,1.5-1.07,3.3-1.64,5.13-1.64s3.63,.57,5.13,1.64c1.5,1.07,2.65,2.58,3.27,4.33,.63,1.75,.71,3.66,.23,5.46-.48,1.8-1.49,3.41-2.9,4.6,7.66,.2,15.31,.86,22.9,1.97-1.17-1.43-1.88-3.18-2.03-5.03-.15-1.85,.25-3.7,1.17-5.31,.92-1.61,2.29-2.89,3.95-3.68,1.66-.79,3.51-1.04,5.32-.73,1.8,.32,3.47,1.18,4.77,2.49,1.3,1.3,2.18,2.98,2.51,4.81,.33,1.83,.1,3.71-.65,5.4-.76,1.69-2.01,3.1-3.58,4.05,7.48,1.6,14.87,3.63,22.12,6.08-.75-1.33-1.16-2.82-1.19-4.35-.03-1.53,.33-3.04,1.03-4.39,.7-1.35,1.73-2.51,2.99-3.35,1.26-.84,2.71-1.35,4.21-1.47,1.5-.12,3.01,.14,4.39,.77,1.38,.63,2.57,1.6,3.48,2.82,.91,1.22,1.5,2.66,1.71,4.17,.21,1.51,.05,3.06-.48,4.49-.46,1.23-1.17,2.34-2.09,3.26-.92,.92-2.02,1.64-3.23,2.1,7.23,2.87,14.29,6.18,21.13,9.9-.47-1.23-.67-2.55-.58-3.87,.09-1.32,.47-2.59,1.11-3.75,1.18-2.08,3.13-3.6,5.42-4.22,2.29-.62,4.72-.3,6.77,.9,2.05,1.2,3.55,3.17,4.16,5.49,.61,2.32,.3,4.79-.89,6.87-.66,1.15-1.57,2.14-2.66,2.88-1.09,.74-2.34,1.22-3.64,1.41,6.63,4.17,13.02,8.73,19.13,13.65-.28-1.31-.26-2.67,.05-3.98,.31-1.3,.91-2.52,1.74-3.56,.96-1.17,2.2-2.08,3.6-2.63,1.4-.55,2.91-.74,4.4-.54,1.49,.2,2.9,.78,4.11,1.69,1.21,.91,2.17,2.11,2.79,3.49,.62,1.39,.89,2.91,.78,4.43-.11,1.52-.6,2.98-1.43,4.26-.82,1.27-1.95,2.31-3.28,3.03-1.33,.71-2.81,1.07-4.31,1.04,5.87,5.26,11.41,10.88,16.59,16.83-.05-1.55,.28-3.08,.98-4.46,.7-1.38,1.73-2.55,3-3.41,1.27-.86,2.73-1.37,4.25-1.5,1.52-.12,3.05,.15,4.44,.79,1.39,.64,2.59,1.64,3.49,2.89,.9,1.25,1.47,2.71,1.66,4.25,.19,1.54-.01,3.1-.59,4.53-.57,1.43-1.5,2.7-2.69,3.67-1.03,.85-2.24,1.46-3.53,1.77-1.29,.31-2.64,.32-3.94,.02,4.86,6.2,9.36,12.68,13.49,19.4,.19-1.32,.66-2.57,1.39-3.67,.73-1.1,1.7-2.02,2.83-2.69,2.05-1.2,4.49-1.52,6.77-.9,2.29,.62,4.23,2.14,5.42,4.22,1.18,2.08,1.5,4.55,.89,6.87-.62,2.32-2.11,4.29-4.16,5.49-1.13,.65-2.39,1.03-3.69,1.12-1.3,.09-2.6-.11-3.81-.59,3.66,6.89,6.92,13.99,9.76,21.26,.61-1.75,1.75-3.27,3.24-4.34,1.5-1.07,3.29-1.65,5.12-1.65s3.62,.58,5.12,1.65c1.5,1.07,2.63,2.59,3.24,4.34,.64,1.74,.74,3.64,.27,5.44-.46,1.8-1.47,3.41-2.87,4.6-1.4,1.2-3.13,1.93-4.96,2.09-1.83,.16-3.65-.26-5.24-1.19,2.43,7.36,4.43,14.85,5.99,22.44,.66-1.11,1.54-2.07,2.59-2.81,1.05-.74,2.24-1.24,3.5-1.48,1.47-.26,2.98-.15,4.4,.33,1.42,.48,2.69,1.32,3.7,2.43,1.01,1.11,1.73,2.47,2.1,3.94,.36,1.47,.35,3.01-.02,4.48-.38,1.47-1.11,2.81-2.13,3.92-1.02,1.1-2.31,1.93-3.73,2.4-1.42,.47-2.93,.57-4.4,.29-1.47-.28-2.84-.93-4-1.89,1.09,7.7,1.74,15.45,1.94,23.23,1.18-1.42,2.76-2.43,4.52-2.91,1.77-.48,3.63-.39,5.35,.24,1.72,.64,3.2,1.79,4.25,3.31,1.05,1.52,1.61,3.33,1.61,5.18s-.56,3.66-1.61,5.18c-1.05,1.52-2.53,2.67-4.25,3.31-1.72,.64-3.58,.72-5.35,.24-1.77-.48-3.34-1.49-4.52-2.91-.21,7.39-.8,14.76-1.8,22.08l.74,.54c1.45-.96,3.14-1.47,4.88-1.46,1.73,0,3.42,.53,4.86,1.51,1.44,.97,2.57,2.36,3.24,3.97,.67,1.62,.86,3.4,.55,5.13-.05,.28-.12,.55-.21,.82,7.04,5.42,13.08,12.05,17.86,19.58,13.1,21.51-3.17,36.13-3.17,36.13,0,0-2.85-4.07-43.26-4.07h-4.72c-.85,1.72-1.66,3.54-2.61,5.29,1.21-.48,2.51-.68,3.81-.59,1.3,.09,2.56,.48,3.69,1.12,1.03,.61,1.93,1.42,2.65,2.38,.72,.96,1.24,2.06,1.54,3.23,35.47,.32,38.75,4.32,38.75,4.32v13.33h4.68v111.21h2.01v-87.84h43.36v87.84h2.71v-87.84l26.24,6.29v81.55h20.01l1.59-39.13h-.46v1.39h-1.06v-1.39c-.26,0-.51-.11-.7-.29-.18-.19-.29-.44-.29-.71,0-.13,.02-.26,.08-.38,.05-.12,.12-.23,.21-.32,.09-.09,.2-.16,.32-.21s.25-.07,.38-.06h1.52l1.72-36.2h-.64v1.39h-1.09v-1.39c-.26,0-.51-.12-.69-.3-.18-.19-.29-.44-.3-.7,0-.26,.11-.5,.3-.69,.18-.18,.43-.28,.69-.28h1.79l1.62-39.77h-.5v-1.39h-.91v1.5h-1.06v-1.39c-.26,0-.5-.12-.67-.31-.18-.19-.28-.44-.28-.7s.1-.5,.28-.68c.18-.18,.42-.28,.67-.28h2.57v-1.72h1.3v-5.93c.05-.76-.19-1.52-.67-2.11-.25-.33-.46-.69-.63-1.07v-1.82h-2.72c-.25,0-.49-.1-.67-.28-.18-.18-.28-.43-.28-.68s.1-.51,.28-.7c.18-.19,.42-.3,.67-.31h2.11c-.14-1.38,.21-2.76,.97-3.9,.76-1.15,1.88-1.99,3.19-2.38,0-.42,.08-.84,.25-1.23,.15-.39,.39-.74,.68-1.04,.3-.3,.64-.53,1.03-.7,.38-.16,.8-.24,1.21-.24s.83,.08,1.21,.24c.39,.16,.74,.4,1.03,.7,.29,.3,.53,.65,.68,1.04,.16,.39,.25,.81,.25,1.23,1.31,.39,2.44,1.23,3.21,2.38,.77,1.15,1.11,2.53,.98,3.91h2.54c.26,0,.51,.12,.69,.3s.29,.43,.3,.7c0,.26-.11,.5-.3,.68-.18,.18-.43,.28-.69,.28h-2.54v1.82c-.2,.38-.44,.74-.7,1.07-.26,.28-.46,.61-.58,.98-.13,.36-.18,.75-.15,1.13v5.93h1.44v1.61h2.54c.26,0,.51,.1,.69,.28,.18,.18,.29,.43,.3,.69,0,.26-.11,.51-.3,.7-.18,.19-.43,.29-.69,.3v1.39h-1.09v-1.39h-.92v1.39h-.46l1.59,39.77h1.8c.25,0,.49,.1,.67,.28,.18,.18,.28,.43,.28,.68s-.1,.51-.28,.69c-.18,.19-.42,.3-.67,.31v1.39h-1.06v-1.39h-.81l1.45,36.2h1.19c.25,0,.5,.1,.67,.28,.18,.18,.28,.43,.28,.68s-.1,.51-.28,.7c-.18,.19-.42,.3-.67,.31v1.39h-1.02l1.52,37.74h40.16l2.08-51.42h-.49v1.82h-1.41v-1.82c-.34,0-.66-.14-.9-.38-.25-.24-.38-.57-.38-.91s.13-.67,.38-.91c.24-.24,.56-.38,.9-.38h2.01l1.9-47.56h-.84v1.86h-1.41v-1.86c-.34,0-.66-.14-.9-.38-.24-.24-.38-.57-.38-.91s.14-.67,.38-.91c.24-.24,.56-.38,.9-.38h2.32l2.11-52.24h-.64v-1.86h-1.23v1.86h-1.38v-1.86c-.34,0-.66-.14-.9-.38-.24-.24-.37-.57-.37-.91s.13-.67,.37-.91c.24-.24,.56-.38,.9-.38h3.52v-2.22h1.72v-7.79c.05-.5,0-1-.16-1.48-.15-.48-.4-.92-.72-1.3-.32-.45-.61-.93-.84-1.43v-2.36h-3.52c-.34,0-.66-.14-.9-.38-.24-.24-.37-.57-.37-.91s.13-.68,.37-.92c.24-.25,.56-.39,.9-.4h2.75c-.18-1.81,.28-3.63,1.28-5.14,1-1.51,2.5-2.62,4.21-3.15,0-1.12,.44-2.19,1.22-2.98,.78-.79,1.84-1.24,2.94-1.24s2.16,.44,2.94,1.24c.78,.79,1.22,1.86,1.22,2.98,1.72,.52,3.21,1.63,4.21,3.15,1,1.51,1.46,3.33,1.28,5.14h2.75c.34,0,.66,.15,.9,.4,.24,.25,.38,.58,.38,.92s-.14,.67-.38,.91c-.24,.24-.56,.38-.9,.38h-3.52v2.36c-.25,.51-.56,.99-.92,1.43-.33,.38-.57,.82-.74,1.3-.15,.48-.21,.99-.18,1.49v7.93h1.83v2.22h2.43v-11.36h67.74v1.57Zm-832.64,61.75v-11.72h-58.82v11.72h58.82Zm-85.52,29.95v-14.29h-3.52v14.29h3.52Zm10.14,0v-14.29h-3.52v14.29h3.52Zm10.14,0v-14.29h-3.52v14.29h3.52Zm58.12,28.59h-4.37v5.18h6.38c-.51-1.79-1.18-3.52-2.01-5.18Zm-4.37-.75h3.8c-.95-1.87-2.13-3.61-3.52-5.18h-.28v5.18Zm6.62,6.68h-6.62v5.18h7.64c-.23-1.75-.57-3.48-1.02-5.18Zm-36.6,11.9v-5.97h-6.38c-.23,1.98-.35,3.97-.35,5.97h6.73Zm0-6.72v-5.18h-5.25c-.45,1.7-.79,3.43-1.02,5.18h6.27Zm0-5.93l.04-5.18h-2.96c-.84,1.66-1.52,3.39-2.04,5.18h4.97Zm0-5.93v-3.89c-.97,1.22-1.83,2.52-2.57,3.89h2.57Zm5.85,18.58v-5.9h-5.07v5.9h5.07Zm0-6.72v-5.18h-5.07v5.18h5.07Zm0-5.93v-5.18h-5.07v5.18h5.07Zm0-5.93v-5.18h-4.72l-.35,.39v4.79h5.07Zm0-5.93v-3.18c-1.43,.93-2.76,1.99-3.98,3.18h3.98Zm5.85,24.51v-5.9h-5.07v5.9h5.07Zm0-6.72v-5.18h-5.07v5.18h5.07Zm0-5.93v-5.18h-5.07v5.18h5.07Zm0-5.93v-5.18h-5.07v5.18h5.07Zm0-5.93v-5.79c-1.77,.53-3.48,1.27-5.07,2.22v3.57h5.07Zm5.85,24.51v-5.9h-5.11v5.9h5.11Zm0-6.72v-5.18h-5.11v5.18h5.11Zm0-5.93v-5.18h-5.11v5.18h5.11Zm0-5.93v-5.18h-5.11v5.18h5.11Zm0-5.93v-6.36c-1.13-.29-1.87-.29-1.87-.29-1.09,.12-2.18,.32-3.24,.61v6.04h5.11Zm5.85,24.51v-5.9h-5.11v5.9h5.11Zm0-6.72v-5.18h-5.11v5.18h5.11Zm0-5.93v-5.18h-5.11v5.18h5.11Zm0-5.93v-5.18h-5.11v5.18h5.11Zm0-5.93v-4.18c-1.63-.81-3.34-1.44-5.11-1.86v6.04h5.11Zm5.85,24.51v-5.9h-5.11v5.9h5.11Zm0-6.72v-5.18h-5.11v5.18h5.11Zm0-5.93v-5.18h-5.11v5.18h5.11Zm0-5.93v-5.18h-5.11v5.18h5.11Zm0-5.93v-.39c-1.54-1.42-3.25-2.62-5.11-3.57v3.97h5.11Zm.74,24.51l8.1,.07c0-1.99-.12-3.99-.35-5.97h-7.75v5.9Zm3.52-60.75v14.29h3.52v-14.29h-3.52Zm-10.18,0v14.29h3.52v-14.29h-3.52Zm-10.14,0v14.29h3.52v-14.29h-3.52Zm-10.14,0v14.29h3.52v-14.29h-3.52Zm-10.14,0v14.29h3.52v-14.29h-3.52Zm92.75-43.85l-2.54,7.33h2.54l2.85-7.33h-2.85Zm-1.37,35.09l-1.16,7.36h1.51l1.41-7.36h-1.76Zm-11.45-35.09l-.28,7.33h2.36l.78-7.33h-2.85Zm-.92,35.09h-1.62v7.36h1.62v-7.36Zm-2.64-35.09h-2.89l.77,7.33h2.4l-.28-7.33Zm-11.48,35.09h-1.76l1.41,7.36h1.58l-1.23-7.36Zm-2.85,5.72v1.86h.42l-.42-1.86Zm6.62,99.7v-87.73h-6.24v87.73h6.24Zm-.63-97.84h1.59l-.88-7.36h-1.76l1.06,7.36Zm.74-35.13h2.43l-1.37-7.33h-2.85l1.8,7.33Zm4.44,27.77l.46,7.36h1.58l-.28-7.36h-1.76Zm7.96,105.2v-87.73h-6.27v87.73h6.27Zm1.23-97.84l.46-7.36h-1.76l-.28,7.36h1.59Zm3.84-42.45l-1.34,7.33h2.4l1.8-7.33h-2.85Zm1.09,35.09l-.63,7.36h1.37l1.02-7.36h-1.76Zm6.41,105.2v-87.73h-6.27v87.73h6.27Zm3.24-104.88l.11-.32h-1.76l-1.59,7.36h1.59l1.09-4.57,.56-2.47Zm401.17,75.04l7.47,15.76c.14-.86,.56-1.65,1.2-2.23,.64-.58,1.46-.92,2.32-.95,.5,0,.99,.1,1.45,.29,.46,.19,.88,.48,1.23,.84,.35,.36,.63,.78,.81,1.25,.19,.47,.28,.97,.28,1.47v10.04h8.74v-17.87c0-10.93-4.26-12.51-7.04-13.9-1.92-1.03-3.74-2.23-5.46-3.57-1.73,1.34-3.57,2.54-5.49,3.57-1.22,.46-2.34,1.16-3.28,2.07-.94,.91-1.7,2-2.21,3.22Zm27.97-68.79l.04-.11c2.15-2.07,4.37-4.18,6.23-6.4v-9.68h4.02l-4.4-3.57h-3.1v4.36c-.44,.93-.97,1.82-1.59,2.64-1.16,1.43-1.73,3.26-1.58,5.11v7.65h.39Zm-4.65,33.66l.04-.11c.18-3.34-.52-6.67-2.01-9.65-5.4,4.25-11.01,8.22-16.8,11.9,1.79,.29,3.44,1.13,4.76,2.39,.52-.28,1.1-.44,1.69-.47,1,0,1.96,.42,2.67,1.14,.71,.72,1.1,1.7,1.1,2.72v9.93h8.56v-17.87Zm-104.26-73.54l2.08,11.94v-1h1.41v-5.93c.03-.38-.02-.77-.14-1.13-.12-.36-.31-.7-.57-.98-.27-.33-.5-.69-.7-1.07v-1.82h-2.08Zm4.61,10.93h3.66v-5.93c.03-.4-.04-.8-.2-1.17-.16-.37-.41-.69-.72-.94,0-.25-.1-.48-.27-.66s-.41-.27-.65-.27-.48,.1-.65,.27c-.17,.17-.27,.41-.27,.66-.31,.25-.55,.58-.71,.94-.16,.37-.23,.77-.21,1.17v5.93Zm161.54-100.06v-4.5h-1.69v2.14c-.36-.14-.74-.22-1.13-.21,.7,0,1.37,.27,1.89,.74,.52,.47,.85,1.13,.93,1.83Zm-.7,11.26l-.14-.11c.07-.64,.14-1.29,.39-1.86-.4,.35-.87,.61-1.37,.75l1.13,1.22Zm-3.28-15.76l-65.73,.04c-.13,5.64-.63,11.26-1.51,16.83l53.61,9.61c5.01-3.44,9.63-7.43,13.77-11.9-.93,.05-1.85-.28-2.54-.92-.69-.64-1.11-1.53-1.16-2.47-.05-.95,.28-1.87,.91-2.58,.63-.7,1.5-1.13,2.44-1.17-.46-.25-.84-.62-1.11-1.07-.27-.45-.41-.97-.4-1.5,0-.57,.15-1.13,.46-1.61,.31-.48,.75-.85,1.27-1.07v-2.18Zm-17.37,29.12l-50.37-9c-1.07,5.55-2.54,11.01-4.4,16.33l32.55,12.01c6.58-7.37,14.05-13.86,22.23-19.33Zm-33.11,43.27c.19-5.82,1.97-11.47,5.14-16.33,1.13-1.79,2.32-3.47,3.52-5.11l-31.56-11.43c-1.97,5.28-4.32,10.41-7.05,15.33l29.94,17.55Zm-27.26,53.39v7.65h7.04l-7.04-8.4c-.02,.25-.02,.5,0,.75Zm1.44-4.29l7.5,9v-4.72c.07-.97-.11-1.95-.5-2.84-.39-.89-.99-1.67-1.75-2.27,.06-.33,.04-.67-.04-.99-.08-.32-.24-.62-.45-.88-.21-.26-.48-.46-.77-.6-.3-.14-.62-.21-.95-.21s-.66,.07-.95,.21c-.3,.14-.56,.35-.77,.6-.21,.26-.37,.56-.45,.88-.08,.32-.1,.66-.04,.99-.25,.25-.53,.5-.81,.82Zm19.44,4.29v-.04c.06-.96-.11-1.93-.5-2.81-.39-.88-.97-1.66-1.72-2.26-.85-.78-1.6-1.67-2.22-2.64-.64,.97-1.4,1.86-2.25,2.64-.75,.61-1.34,1.39-1.73,2.28-.39,.89-.56,1.86-.49,2.83v7.65h8.91v-7.65Zm-17.96-30.73v-.04c1.11-.58,2.14-1.3,3.07-2.14l-22.02-18.76c-3.65,4.27-7.59,8.27-11.8,11.97l20.08,24.3h.53c0-10.54,5.18-12.83,10.14-15.33Zm-19.3-25.59v-.04c3.37-4.22,6.43-8.69,9.16-13.37l-79.96-46.85,70.8,60.25Zm-69.15-63.18l80.03,46.99c2.59-4.78,4.85-9.73,6.76-14.83l-86.79-32.16Zm92.15,13.15l-91.05-16.4,86.83,32.16c1.79-5.14,3.2-10.41,4.23-15.76Zm-90.46-19.55l90.98,16.26c.88-5.38,1.36-10.81,1.44-16.26h-92.43Zm0-3.36h92.43c-.09-5.45-.57-10.88-1.44-16.26l-90.98,16.26Zm-.56-3.25l91.05-16.4c-1.03-5.35-2.44-10.62-4.23-15.76l-86.83,32.16Zm-1.09-3.15l86.79-32.05c-1.91-5.1-4.17-10.05-6.76-14.83l-80.03,46.88Zm-1.66-2.89l79.96-46.85c-2.73-4.69-5.79-9.17-9.16-13.4l-70.8,60.25Zm68.62,84.69l-70.77-60.28,59.39,71.86c4.07-3.57,7.87-7.44,11.38-11.58Zm-13.84,13.76l-59.04-71.4,.53,1.14,45.26,79.55c4.64-2.76,9.06-5.86,13.24-9.29Zm-6.3,41.2l4.83,10.4,7.47-1.79-20.47-35.91-3.73,1.97,8.21,17.58c.47-.29,.85-.71,1.09-1.22,.26,.5,.65,.92,1.13,1.22,.47,.13,.88,.43,1.15,.85,.27,.41,.39,.91,.33,1.4,.04,0,.09,0,.13,.01,.04,.01,.08,.04,.12,.07,.03,.03,.06,.07,.08,.11,.02,.04,.03,.09,.03,.13,0,.05,0,.1-.01,.14-.02,.05-.04,.09-.08,.12-.03,.03-.08,.06-.12,.08-.05,.02-.09,.02-.14,.02v4.82Zm-13.24-28.3l3.52-1.86-24.87-43.67,21.35,45.53Zm-5.92,2.89l-25.4-54.1,15.99,44.17h1.41c.25,0,.5,.12,.67,.31,.18,.19,.28,.44,.28,.7,0,.26-.1,.5-.28,.68-.18,.18-.42,.28-.67,.28h-.7l3.52,10.08c1.66-.68,3.49-1.32,5.18-2.11Zm-14.09-5.07l.14,.11c0-.25-.1-.48-.27-.66s-.41-.27-.65-.27-.48,.1-.65,.27c-.17,.17-.27,.41-.27,.66-.31,.25-.55,.58-.71,.94-.16,.37-.23,.77-.21,1.17v5.93h3.52v-6.04c.03-.4-.04-.8-.2-1.17-.16-.37-.41-.69-.72-.94Zm2.18,8.15h1.27v1.07c.81-.25,1.62-.46,2.4-.75l-2.99-8.36c-.48,.59-.72,1.34-.67,2.11v5.93Zm3.13,46.81l.99,29.91c7.42-1.52,14.74-3.53,21.91-6v-7.75l-21.42-59.68-.92,.29v1.5h-1.06v-1.04l-.92,.29v.75h-.49l1.62,39.77h1.76c.26,0,.5,.1,.68,.28,.18,.18,.29,.43,.3,.68,0,.26-.11,.51-.3,.7-.18,.19-.43,.29-.69,.3v1.39h-1.09v-1.39h-.39Zm4.79-44.56l18.32,51.03v-10.72l6.34-1.5-1.48-3.18-4.86,1.18v-11.54l-12.86-27.48c-1.94,.82-3.63,1.54-5.46,2.22Zm23.78,60.25l-.11,6.4c3.91-1.5,7.75-3.14,11.52-4.86l-7.26-15.47c-1.66,1.39-4.16,2.97-4.16,13.94Zm5.78-26.3l1.48,3.18,8.07-1.93-1.76-3.11-7.78,1.86Zm17.61,21.65v-6.32l-2.68-4.72v12.51l2.68-1.47Zm27.33-9.47c-1.16-.63-2.29-1.32-3.38-2.07-4.3,3.19-8.72,6.24-13.28,9.15-.43,1.56-.69,3.17-.78,4.79,6.02-3.63,11.84-7.59,17.44-11.86Zm-27.33-12.22h27.97l-2.92-3.57h-24.87v-3.75l-2.43,.5v-18.62h-.67c-.09,0-.18-.04-.25-.1-.07-.07-.1-.16-.1-.25s.04-.19,.1-.25c.07-.07,.16-.11,.25-.11-.04-.49,.08-.97,.35-1.38,.27-.4,.67-.7,1.13-.84,0-.3,.12-.59,.33-.81,.21-.21,.5-.33,.8-.33s.59,.12,.8,.33c.21,.21,.33,.51,.33,.81,.46,.14,.86,.43,1.13,.84,.27,.4,.39,.89,.35,1.38,.09,0,.18,.04,.25,.11,.07,.07,.1,.16,.1,.25s-.04,.19-.1,.25c-.07,.07-.16,.1-.25,.1v18.12h9.55v-7.65c.07-.93-.04-1.86-.34-2.74-.3-.88-.77-1.69-1.39-2.37-.67-.82-1.24-1.7-1.73-2.64v-.54l-3.17-3.82h-1.02v-1.25l-19.97-24.16c-4.32,3.56-8.9,6.78-13.7,9.65l21.13,36.88,5.67-1.36v3.82l-3.77,.89,1.76,3.11,2.01-.5v4l2.68,4.72v-8.72Zm29.17-3.57l2.43,3.07c1.27-1,2.4-2.04,3.52-3.07h-5.95Zm21.13-33.2l-.14,.07s1.69-2.07,15.96-3.54c1.59-2.47,3.14-5,4.65-7.54l-6.52-3.82c-12.82,1.21-14.09,3.04-14.09,3.04-4.32-4.31-7.14-9.93-8.03-16.01l-31.7-18.65c-2.84,4.86-6.02,9.5-9.51,13.9l22.12,18.83c.89-1.12,1.68-2.31,2.36-3.57,1.7,3.46,4.36,6.34,7.64,8.29,4.44,2.25,9.05,4.36,9.97,12.4l7.29,6.18v-9.58Zm19.94-15.15l2.32,1.36,.85-1.54-3.17,.18Zm24.66-81.55l-.14,.07c.59,.14,1.14,.44,1.59,.86v-2.79c-.11,.39-.29,.76-.54,1.08-.25,.32-.56,.58-.91,.78Zm1.34-10.72h.11c-.08-9.77-.92-19.52-2.5-29.16l-68.83,12.33c.88,5.57,1.39,11.19,1.51,16.83h64.14c-.05-.31-.05-.62,0-.93,0-.57,.15-1.13,.46-1.61,.31-.48,.75-.85,1.27-1.07v-7.54s-.04-1.21,1.13-1.21,1.16,1.21,1.16,1.21v7.51c-.36-.14-.74-.22-1.13-.21,.77,0,1.5,.31,2.04,.86s.85,1.3,.85,2.07c-.02,.32-.09,.63-.21,.93Zm-71.58-20.12l68.62-12.29c-1.75-9.62-4.25-19.08-7.47-28.3l-65.55,24.26c1.87,5.32,3.34,10.78,4.4,16.33Zm-5.78-19.48l65.66-24.26c-3.39-9.14-7.49-18-12.26-26.48l-60.44,35.41c2.72,4.92,5.08,10.05,7.04,15.33Zm-8.7-18.19l60.48-35.34c-4.9-8.41-10.44-16.43-16.56-23.98l-53.44,45.42c3.5,4.4,6.67,9.04,9.51,13.9Zm-11.55-16.44l53.47-45.53c-6.26-7.42-13.08-14.34-20.4-20.69l-44.88,54.25c4.21,3.7,8.15,7.7,11.8,11.97Zm-2.54,2.14v.04c-3.49-4.15-7.3-8.02-11.38-11.58l-59.35,71.76,70.73-60.21Zm-73.23,58.07l59.39-71.83c-4.18-3.43-8.61-6.53-13.24-9.29l-46.14,81.12Zm-2.85-1.68l46.32-81.19c-4.71-2.63-9.59-4.92-14.62-6.86l-31.7,88.05Zm-3.1-1.14l31.6-88.05c-5.07-1.81-10.26-3.25-15.53-4.29l-16.06,92.34Zm24.3,104.7l-24.3-67.61,13.03,74.86h1.94c-.13-1.38,.22-2.76,.98-3.91,.76-1.15,1.9-1.99,3.21-2.38,1.38-.85,2.49-2.09,3.17-3.57,.5,.98,1.17,1.86,1.97,2.61Zm10.57,103.63l-.07-.07c6.59-1.36,13.1-3.08,19.51-5.15v-3.89c-7.14,2.38-14.41,4.34-21.77,5.86v2.75h1.51c.17,0,.33,.05,.47,.14,.14,.09,.26,.21,.34,.37Zm27.3-8l-.07-.07c4.12-1.57,8.17-3.29,12.19-5.15l-1.55-3.36c-3.87,1.79-7.82,3.47-11.84,5l1.27,3.57Zm9.79-25.59l2.04,4.32c-.3-1.6-1-3.09-2.04-4.32Zm8.52,13.26v4.22c.88-.46,1.76-1,2.68-1.46v-4.18l-2.68,1.43Zm2.68,10.29v0Zm36.18-37.2l5.57-.18c1.3-1.07,2.54-2.32,3.8-3.57v-5.18l-2.01,2.04v3.32h-3.52l-3.84,3.57Zm7.26,7.4v.29c.67-.07,1.34-.07,2.01,0v-2.25l-2.01,1.96Zm26.84-47.78l4.44-.14c.67-1.25,1.41-2.39,2.08-3.57l-3.17-1.82c-1.09,1.96-2.22,3.72-3.35,5.54Zm8.17-6.57h-.07c.99-1.86,1.9-3.57,2.92-5.25h-4.23c-.6,1.14-1.16,2.29-1.8,3.39l3.17,1.86Zm20.08-75.04h-.07c1.09,.82,2.18,1.79,3.28,2.89,.86-7.17,1.33-14.39,1.41-21.62h-3.52c-.04,6.26-.41,12.51-1.09,18.72Zm4.76-22.08l.07-.18c-.11-10.12-.98-20.21-2.61-30.2l-3.52,.64c1.61,9.83,2.46,19.77,2.54,29.73h3.52Zm-3.21-33.63l-.07-.18c-1.75-9.95-4.27-19.75-7.54-29.3l-3.52,1.25c3.29,9.39,5.84,19.03,7.61,28.84l3.52-.61Zm-8.88-32.63l-.07-.18c-3.54-9.55-7.82-18.79-12.79-27.66l-3.17,1.82c4.86,8.76,9.05,17.88,12.51,27.3l3.52-1.29Zm-14.41-30.48l-.07-.18c-5.07-8.71-10.8-17-17.15-24.8l-2.82,2.36c6.24,7.7,11.89,15.89,16.87,24.48l3.17-1.86Zm-40.68-49.13l-2.47,2.75c7.46,6.46,14.41,13.51,20.78,21.08l2.82-2.39c-6.49-7.68-13.56-14.85-21.13-21.44Zm-27.12-19.65l-1.8,3.22c8.47,5.04,16.53,10.76,24.09,17.12l2.36-2.86c-7.75-6.48-16-12.32-24.66-17.47Zm20.18,22.87v-.11c-7.44-6.21-15.34-11.82-23.64-16.8l-34.94,61.39c4.8,2.87,9.38,6.09,13.7,9.65l44.88-54.14Zm-50.23-37.49l-1.27,3.36c9.19,3.51,18.09,7.76,26.63,12.69l1.83-3.22c-8.71-5.01-17.81-9.3-27.19-12.83Zm23.74,19.05v-.11c-8.37-4.84-17.11-9-26.14-12.44l-23.88,66.72c5.21,2,10.26,4.38,15.11,7.15l34.91-61.32Zm-55.9-28.05l-.63,3.72c9.67,1.79,19.17,4.37,28.43,7.72l1.27-3.57c-9.47-3.4-19.18-6.03-29.06-7.86Zm26.7,14.47v-.11c-9.09-3.22-18.42-5.72-27.9-7.47l-12.12,69.75c5.46,1.09,10.84,2.57,16.1,4.43l23.92-66.61Zm-59.88-17.87v3.65c9.83,.07,19.64,.93,29.34,2.57l.63-3.57c-9.91-1.68-19.93-2.56-29.98-2.64Zm0,7.15v70.83c5.57,.11,11.13,.62,16.63,1.54l12.15-69.83c-9.51-1.61-19.13-2.46-28.78-2.54Zm0,74.15v93.8l16.06-92.3c-5.31-.88-10.68-1.38-16.06-1.5Zm0,131.83v93.95c5.38-.12,10.75-.62,16.06-1.5l-.28-1.54c-.18-.06-.33-.18-.44-.33-.11-.15-.18-.34-.19-.53,.02-.28,.15-.53,.35-.71l-15.5-89.34Zm0,97.13l.14,70.83c5.25-.04,10.43-.32,15.53-.82l1.34-33.09h-.81v1.39h-1.06v-1.39c-.26,0-.5-.12-.67-.31-.18-.19-.28-.44-.28-.7s.1-.5,.28-.68c.18-.18,.42-.28,.67-.28h1.8l1.13-28.16-1.44-8.33c-5.5,.93-11.05,1.44-16.63,1.54Zm0,74.15v3.72c5.14-.04,10.21-.29,15.25-.75v-.64h-1.02v-1.39c-.26,0-.5-.12-.67-.31-.18-.19-.28-.44-.28-.7,0-.2,.08-.39,.21-.54-4.44,.36-8.95,.61-13.49,.61Zm-3.28-384.18c-10.03,.06-20.04,.92-29.94,2.57l.63,3.57c9.69-1.64,19.49-2.5,29.31-2.57v-3.57Zm-148.65,333.58v12.01h3.52v-14.29h-1.87c-.42,.85-.98,1.62-1.66,2.29Zm83.06,11.83h1.76v-3.75l-1.76,3.75Zm-8.38-14.29l-.46,.18-3.06,5.36v8.76h3.52v-14.29Zm-13.77,14.29l1.27-.18,2.25-3.97v-10.15h-3.52v14.29Zm-29.69,0h2.89v-2.39l-2.96-2.36-.67,.82v3.32l.74,.61Zm-60.62-56.46l.07-1.5h-2.89v3.07c.35-.3,.73-.58,1.13-.82,.54-.3,1.11-.55,1.69-.75Zm-7.04-60.03v2.54h2.96c-.18-.96-.42-1.97-.6-2.93l-2.36,.39Zm14.09-18.58v.04c.7,.08,1.34,.42,1.81,.95,.47,.53,.73,1.22,.73,1.93s-.26,1.4-.73,1.93c-.47,.53-1.11,.87-1.81,.95v6.93l59.67-10.72c-.92-5.57-1.42-11.19-1.51-16.83h-64.25c2.99,4.43,6.09,9.79,6.09,12.94v1.89Zm-9.23,10.72l-.11-.11c0-.62-.23-1.22-.63-1.68,.25,1.57,.46,3.43,.74,5.15v-3.36Zm3.95,0v3l3.13-.54v-2.47c0-1.39-.67-2.5-1.55-2.5s-1.58,1.11-1.58,2.5Zm0,6.4v4.11h3.13v-4.68l-3.13,.57Zm5.95,15.65l-5.85,.07c.35,1.39,.78,2.79,1.16,4.15h8.31l-4.3,6.25v2.39l64.53-23.84c-1.84-5.33-3.3-10.79-4.37-16.33l-60.16,10.72v13.58h.67c.2,0,.39,.03,.58,.1,.18,.07,.35,.18,.49,.32,.14,.14,.25,.31,.33,.49,.08,.18,.12,.38,.12,.58s-.04,.4-.12,.58c-.08,.18-.19,.35-.33,.49-.14,.14-.31,.25-.49,.32-.18,.07-.38,.11-.58,.1Zm121.31,51.21l.07-.18,.35-8.65-3.95,6.97,3.52,1.86Zm-15.46-17.87h2.25v5.86h-5.11c3.83,3.06,7.86,5.87,12.05,8.4l7.04-12.36,.42-10.43h-.6v-1.86h-1.23v1.86h-1.41v-1.86c-.34,0-.66-.14-.9-.38-.24-.24-.37-.57-.37-.91s.13-.67,.37-.91c.24-.24,.56-.38,.9-.38h3.35v-2.22h1.87v-7.33l-18.63,22.51Zm33.15-19.9l3.52-7.75-3.52,6.4v1.36Zm-2.01-4.5l.04-.11c-.22-.53-.56-.99-.99-1.36-.45-.43-.85-.91-1.2-1.43-.34,.53-.74,1.01-1.2,1.43-.41,.33-.73,.76-.94,1.24-.21,.49-.3,1.02-.26,1.54v6.68l4.54-8Zm-8.63-2.79l.04-.11c-.34,.52-.74,1.01-1.2,1.43l-.85,1c-.29,.55-.43,1.17-.39,1.79v7.9h4.83v-7.79c.03-.53-.06-1.05-.27-1.54-.21-.48-.53-.91-.93-1.25-.46-.43-.88-.91-1.23-1.43Zm-42.97,20.55l-7.96,6.65h14.09c-2.11-2.14-4.19-4.36-6.13-6.65Zm-12.89,6.65l10.74-9.15c-3.48-4.4-6.65-9.04-9.48-13.9l-39.35,23.05h38.08Zm4.05-24.69l.04-.11c2.74,4.72,5.8,9.23,9.16,13.51l70.8-60.25-80,46.85Zm-1.69-2.86l80.03-46.99-86.79,32.16c1.91,5.1,4.17,10.05,6.76,14.83Zm-7.89-17.87l86.79-32.05-91.02,16.3c1.02,5.35,2.44,10.62,4.23,15.76Zm5.04,19.62l.04-.21c-2.68-4.86-5.01-9.92-6.97-15.12l-65.66,24.26c2.15,5.79,4.61,11.43,7.29,16.97h21.13l44.17-25.91Zm-62.35,29.52l-1.23-.07c1.02,1.97,2.04,3.97,3.14,5.9l6.24-3.57h-5.6c-.05-.64-.34-1.23-.81-1.65-.47-.42-1.09-.64-1.72-.6Zm5.78,7.5h44l6.16-5.25h-41.25l-8.91,5.25Zm24.94,16.08h-17.4c2.18,3.07,4.44,6.07,6.83,9l10.57-9Zm30.36-21.44l-6.16,5.25h27.86l4.33-5.25h-26.03Zm28.95,1.64l-2.96,3.57h7.68c-1.62-1.14-3.21-2.29-4.72-3.57Zm10.07,7.15v2h3.06c-1.06-.64-2.04-1.32-3.06-2Zm6.41,4.11l-4.26,7.65v11.61l8.03-17.3c-1.27-.64-2.54-1.29-3.77-1.97Zm19.41-34.09h1.27l.46-1v-2.04l-1.73,3.04Zm5.35,6.72l.18,6.93,2.5-6.93h-.92v-1.86h-.95l-.28,.61v1.25h-.53Zm3.17-1.93l.07,.07v.54l.21-.61h-.28Zm1.02-2.04l7.5-20.98-9.58,20.44h1.06c.2,0,.4,.05,.57,.14,.18,.09,.33,.23,.45,.39Zm-3.52-19.73l18.95-33.13,.53-1.11-22.61,27.3c1.11,.74,2,1.78,2.55,3.01,.55,1.23,.76,2.59,.58,3.93Zm-6.09-8.61l23.18-28.27-70.77,60.25c2.66,3.09,5.48,6.02,8.45,8.79h5.53l21.66-26.19c-.23-.32-.44-.66-.63-1v-2.36h-3.35c-.34,0-.66-.14-.9-.38-.24-.24-.37-.57-.37-.91s.13-.68,.37-.92c.24-.25,.56-.39,.9-.4h2.75c-.17-1.81,.28-3.63,1.28-5.14,1-1.51,2.49-2.62,4.21-3.15,1.79-1.05,3.23-2.6,4.16-4.47,.83,1.65,2.04,3.07,3.52,4.15Zm-58.75-99.56l79.99,46.85-70.8-60.25c-3.37,4.24-6.44,8.72-9.19,13.4Zm78.16,49.85l-80.03-46.99c-2.59,4.78-4.85,9.73-6.76,14.83l86.79,32.16Zm-1.13,3.14l-86.79-32.05c-1.79,5.14-3.2,10.41-4.23,15.76l91.02,16.3Zm-.53,3.25l-90.98-16.26c-.89,5.38-1.38,10.81-1.48,16.26h92.46Zm0,3.36h-92.46c.1,5.45,.59,10.88,1.48,16.26l90.98-16.26Zm-153.9,77.79h2.11v8.33l.56,1.18h3.1c.45,0,.88,.13,1.27,.36-2.5-4.9-4.9-9.86-7.05-14.97v5.11Zm5.85,14.08h-.63c.35,.61,.67,1.29,1.02,1.93l3.17-1.86c-.39-.68-.74-1.39-1.09-2.07-.12,.57-.43,1.09-.88,1.45-.45,.37-1.01,.56-1.59,.55Zm2.04,4.79c.07,.18,.35,.36,.28,.54l.39-.93-.67,.39Zm15.85,23.23l3.42,.04,.74-.61c-2.91-3.6-5.69-7.31-8.35-11.15h-.95v4.93c1.62,2.29,3.38,4.57,5.14,6.79Zm8.84-.25l.32,.25h36.95l7.61-9.15v-2.61h-31.35l-13.53,11.51Zm44.88-3.57l-3.31,3.97h3.31v-3.97Zm-11.55,8.79h-28.99c1.3,1.39,2.61,2.79,3.95,4.15h21.52l3.52-4.15Zm-23.39,15.47c1.16,1.07,2.4,2.14,3.63,3.29v-4.97l-3.06-2.89h-.56v4.57Zm10.14-4.57v4.29l.32,.29,3.21-3.97v-.61h-3.52Zm13.77,14.29l-.11-14.12h-3.52v12.58l2.04,1.54h1.59Zm-10.14-6.65v-1.68l-.85,1,.85,.68Zm14.09-18.47l-3.45,4.15h29.66l2.36-4.15h-28.57Zm32.37,0l-2.57,4.15h7.68l1.94-4.15h-7.04Zm18.81-9.29l-7.01,15.19h6.55v-3.57h-1.06v1.86h-1.37v-1.86h.18c-.34,0-.66-.14-.9-.38-.24-.24-.37-.57-.37-.91s.13-.67,.37-.91c.24-.24,.56-.38,.9-.38h2.36l.35-9.04Zm22.4,11.61l.92,22.44,6.48-37.13c-2.71-.54-5.39-1.18-8.03-1.89l.56,14.01h2.33c.34,0,.66,.14,.9,.38,.24,.24,.37,.57,.37,.91s-.13,.67-.37,.91c-.24,.24-.56,.38-.9,.38v1.86h-1.41v-1.86h-.85Zm-.81-20.12l-.18-.21c2.85,.86,5.78,1.57,8.91,2.36l16.03-92.34-25.54,71.18,.77,19.01Zm21.7-126l-31.6-88.05c-5.03,1.92-9.92,4.22-14.62,6.86l46.21,81.19Zm-28.53-89.34l31.6,88.05-16.03-92.34c-5.29,1.04-10.49,2.48-15.57,4.29Zm25.68,90.87l-46.18-81.12c-4.62,2.77-9.04,5.87-13.21,9.29l59.39,71.83Zm-2.5,2.14l-59.56-71.86c-4.06,3.58-7.86,7.45-11.38,11.58l70.94,60.29Zm-73.44-62.46c3.64-4.28,7.58-8.28,11.8-11.97l-44.88-54.25c-7.32,6.34-14.15,13.26-20.4,20.69l53.47,45.53Zm-2.15,2.5l-53.47-45.53c-6.12,7.55-11.65,15.57-16.56,23.98l60.52,35.45c2.82-4.87,6-9.51,9.51-13.9Zm-11.24,16.76l-60.48-35.41c-4.76,8.48-8.85,17.34-12.22,26.48l65.66,24.26c1.98-5.28,4.34-10.4,7.04-15.33Zm-8.07,18.51l-65.66-24.26c-3.23,9.21-5.73,18.68-7.47,28.3l68.76,12.29c1.07-5.54,2.53-11,4.37-16.33Zm-4.86,19.62l-68.83-12.29c-1.35,8.27-2.15,16.63-2.4,25.01,.39,.54,1.62,2.07,3.13,4.11h66.57c.09-5.64,.6-11.27,1.51-16.83Zm-72.07,50.03l-.07-.21c-.49-1.93-.49-4-.81-5.97-.28,.23-.51,.51-.67,.84-.16,.33-.24,.69-.24,1.05v4.61l1.8-.32Zm3.8,17.87h-3.77c.35,1.39,.74,2.79,1.13,4.15h3.8c-.39-1.36-.81-2.75-1.16-4.15Zm-4.9,44.45h-2.85l.78,7.33h2.4l-.32-7.33Zm2.68,35.09h-1.59v7.36h1.59v-7.36Zm7.29-35.09l-.32,1.18c.78,.09,1.55,.27,2.29,.54-.28-.57-.56-1.18-.85-1.72h-1.13Zm5.07,35.09l-1.23,7.36h1.58l1.41-7.36h-1.76Zm1.59-4.54l4.61-.18v-13.54c-1.23-1.68-2.43-3.47-3.52-5.25-.19,1.07-.56,2.1-1.09,3.04v15.94Zm10.57,0h-4.51c.51-.02,1.02,.08,1.49,.3,.46,.22,.87,.54,1.19,.95,1-.54,2.11-.85,3.24-.93-.44-.2-.92-.31-1.41-.32Zm14.09,2.29l-.14-.21c1.2,1.32,2.43,2.79,3.8,4.36h5c-1.3-1.36-2.54-2.75-3.77-4.15h-4.9Zm4.61,14.87v10.29h3.52v-6.72c-1.09-1.21-2.33-2.36-3.52-3.57Zm33.25,50.03l-.14-.11c-.17-1.63-.46-3.24-.85-4.82l-.28-.25h-5.04v5.18h6.31Zm-4.09-11.86v-.61c-.63-1.17-1.38-2.27-2.22-3.29v3.89h2.22Zm0,.75h-2.22v5.18h4.33c-1.23-1.46-1.97-3.27-2.11-5.18Zm-8.07,11.11h5.11v-5.18h-5.11v5.18Zm5.11,.75l-5.11-.21v6.18h5.11v-5.97Zm-5.11-6.68h5.11v-5.18h-5.11v5.18Zm0-5.93h5.11v-4.79l-.35-.39h-4.75v5.18Zm0-5.93l4.02,.07c-1.23-1.2-2.57-2.27-4.02-3.18v3.11Zm-5.81,5.93h5.07v-5.18h-5.07v5.18Zm5.07,.75h-5.07v5.18h5.07v-5.18Zm-5.07-6.68l5.07-.04v-3.57c-1.6-.94-3.3-1.69-5.07-2.22v5.82Zm0,12.62v5.18h5.07v-5.18h-5.07Zm11.66,11.9l6.76-.21c0-2-.13-3.99-.39-5.97h-6.38v6.18Zm11.41-38.34v4.4c1.58,1,3.17,2,4.79,2.97l1.8-3.18c-2.22-1.36-4.4-2.75-6.59-4.18Zm2.32-2.39l5.21,3.18v-8.97h-1.73v-14.29h-3.52v14.29h2.04v4.32h-2.01v1.46Zm30.22-19.9v2.61l1.23-2.61h-1.23Zm6.69,14.29l.28,17.83,10.36-28.84,.21-5.22-1.66,2.11c.04,1.02-.3,2.01-.95,2.78-.65,.77-1.57,1.26-2.57,1.37,.22,.44,.34,.92,.35,1.41,0,.49-.1,.98-.3,1.42-.21,.44-.51,.83-.89,1.13-.38,.3-.83,.51-1.3,.61,0,0,.49,5.4-3.52,5.4Zm9.93,0l-8.98,24.73,5.14,1.75c-.02-.13-.02-.26,0-.39,0-.34,.13-.67,.37-.91,.24-.24,.56-.38,.9-.38h1.59l.99-24.8Zm26.17,36.59v3.61c8.17,1.16,16.41,1.78,24.66,1.86v-3.57c-8.25-.09-16.49-.72-24.66-1.89Zm0-3.39l-.14-.18c8.23,1.29,16.54,2.01,24.87,2.14v-70.83c-5.56-.09-11.11-.61-16.59-1.54l-9.09,52.17,.39,9.58h2.22c.34,0,.66,.13,.9,.38,.24,.24,.37,.57,.37,.91s-.13,.67-.37,.91c-.24,.24-.56,.38-.9,.38v1.82h-1.41v-1.82h-.49l.25,6.08Zm8.91-73.69l-.14-.14c5.34,.94,10.75,1.49,16.17,1.64v-93.8l-16.03,92.3Zm0-222.63l16.03,92.3v-93.8c-5.37,.12-10.73,.62-16.03,1.5Zm-.56-3.29l-.14-.14c5.44-.9,10.94-1.42,16.45-1.54v-70.83c-9.63,.08-19.24,.93-28.74,2.54l12.43,69.97Zm-3.24,.5l-12.15-69.75c-9.47,1.78-18.78,4.32-27.86,7.58l23.92,66.61c5.25-1.87,10.63-3.35,16.1-4.43Zm-13.35-76.69l-.14-.14c-9.81,1.86-19.47,4.49-28.88,7.86l1.23,3.57c9.26-3.34,18.76-5.92,28.43-7.72l-.63-3.57Zm-5.85,82.19l-23.92-66.61c-9.02,3.42-17.75,7.58-26.1,12.44l34.87,61.32c4.87-2.76,9.93-5.14,15.15-7.15Zm-26.28-73.26l-.14-.04c-9.36,3.63-18.41,8-27.09,13.08l1.83,3.22c8.54-4.92,17.44-9.16,26.63-12.69l-1.23-3.57Zm-26.59,20.69l-.14-.04c-8.3,4.96-16.2,10.58-23.64,16.8l44.77,54.24c4.32-3.56,8.9-6.78,13.7-9.65l-34.7-61.36Zm-3.52-6.07l-.07-.04c-8.63,5.17-16.84,11.03-24.55,17.51l2.33,2.82c7.58-6.32,15.64-12.03,24.09-17.08l-1.8-3.22Zm-27.12,19.65l-.07,.07c-7.59,6.6-14.67,13.78-21.17,21.48l2.78,2.39c6.39-7.56,13.35-14.61,20.82-21.08l-2.36-2.86Zm-23.39,24.09l-.07-.04c-6.36,7.87-12.1,16.23-17.15,25.01l3.13,1.86c5-8.59,10.64-16.77,16.87-24.48l-2.78-2.36Zm-18.88,27.87l-.07-.04c-4.98,8.85-9.26,18.08-12.79,27.62l3.52,1.29c3.47-9.33,7.65-18.38,12.5-27.05l-3.17-1.82Zm-13.88,30.73l-.07-.04c-3.27,9.61-5.79,19.47-7.54,29.48l3.52,.64c1.8-9.8,4.35-19.44,7.61-28.84l-3.52-1.25Zm-8.35,32.73l-.07-.04c-1.62,10.05-2.46,20.22-2.5,30.41h3.52c.1-9.96,.96-19.9,2.57-29.73l-3.52-.64Zm-1.3,33.73h-1.27v1.89l1.27-1.89Zm-103.98,122.5v-23.23h-3.77v23.23h3.77Zm12.33,0v-23.23h-3.8v23.23h3.8Zm12.33,0v-23.23h-3.8v23.23h3.8Zm12.29,0v-23.23h-3.77v23.23h3.77Zm12.33,0v-23.23h-3.8v23.23h3.8Zm12.33,0v-23.23h-3.8v23.23h3.8Zm12.29,0v-23.23h-3.77v23.23h3.77Zm6.24-38.77v-21.69h-77.78v21.69h77.78Zm6.09,38.77v-23.23h-3.77v23.23h3.77Zm-1.48-32.84v-.04c-.01,.32,.05,.65,.17,.95,.12,.3,.3,.57,.53,.8,.23,.23,.5,.4,.8,.51,.3,.11,.62,.16,.94,.14h4.93c-.3,0-.59-.06-.86-.17-.27-.11-.52-.28-.73-.5-.21-.21-.38-.47-.49-.74-.11-.28-.17-.57-.17-.88s.06-.6,.17-.88c.11-.28,.28-.53,.49-.74,.21-.21,.46-.38,.73-.5,.27-.11,.57-.17,.86-.17h3.52v-9.51h2.18v-.43c-1.5-.74-2.77-1.9-3.66-3.34-.89-1.44-1.36-3.1-1.36-4.79s.47-3.36,1.36-4.79c.89-1.44,2.15-2.59,3.66-3.34v-3.29l-4.3-6.25h9.62l-1.06-4.15h-4.97c-.39,0-.77-.16-1.05-.44-.28-.28-.43-.66-.43-1.06s.16-.78,.43-1.06c.28-.28,.65-.44,1.05-.44h.7v-2.97c-1.11,.88-2.42,1.48-3.8,1.75-.56,.05-1.13,.05-1.69,0v1.11h-.63c-.18,0-.37,.06-.53,.14-.17,.08-.32,.19-.44,.33-.12,.14-.22,.3-.28,.48-.06,.18-.09,.37-.08,.55,0,.19,.02,.38,.08,.55,.06,.18,.16,.34,.28,.48,.12,.14,.27,.25,.44,.33,.17,.08,.35,.13,.53,.14h.63v4.15h-3.8l1.87,3.14,1.94,3.11v19.98h-1.97v9.54h-3.31c-.6,0-1.18,.24-1.61,.67-.43,.43-.67,1.01-.68,1.62Zm11.52,37.38h-1.76l1.37,7.36h1.62l-1.23-7.36Zm-4.26-35.09l2.89,7.33h2.4l-2.4-7.33h-2.89Zm.32,42.45h1.66l-1.59-7.36h-1.76v.32l.6,2.47,1.09,4.57Zm7.82,97.84v-87.77h-6.27v87.77h6.27Zm-.67-97.84h1.59l-.85-7.36h-1.76l1.02,7.36Zm.78-35.13h2.36l-1.34-7.33h-2.82l1.8,7.33Zm4.44,27.77l.42,7.36h1.62l-.28-7.36h-1.76Zm7.96,105.2v-87.77h-6.27v87.77h6.27Zm1.23-97.84l.46-7.36h-1.76l-.28,7.36h1.58Zm4.93-7.36l-.88,7.36h1.59l1.06-7.36h-1.76Zm6.31,22.87v-5.43h-6.24v87.62h6.24v-82.19Zm.39-15.51v-1.86l-.42,1.86h.42Zm2.08-3.57l.32-1.68h.7c.2-.67,.48-1.3,.85-1.89h-2.71l-.81,3.57h1.66Zm23,65.64v-5.97h-7.75c-.21,1.86-.39,3.82-.39,5.97h8.14Zm0-6.72v-5.18h-6.62c-.45,1.7-.79,3.43-1.02,5.18h7.64Zm0-5.93v-5.18h-4.37c-.83,1.66-1.5,3.39-2.01,5.18h6.38Zm0-5.93v-5.18h-.42c-1.39,1.57-2.57,3.31-3.52,5.18h3.95Zm5.85,18.58l-.04-6.08h-5.11v6.08h5.14Zm0-6.72l-.04-5.18h-5.11v5.18h5.14Zm0-5.93l-.04-5.18h-5.11v5.18h5.14Zm0-5.93l-.04-5.18h-5.11v5.18h5.14Zm0-5.93l-.04-3.82c-1.85,.95-3.57,2.15-5.11,3.57v.25h5.14Zm5.85,24.51v-6.08h-5.11v6.08h5.11Zm0-6.72v-5.18h-5.11v5.18h5.11Zm0-5.93v-5.18h-5.11v5.18h5.11Zm0-5.93v-5.18h-5.11v5.18h5.11Zm-5.11-5.93l5.11-.11v-5.75c-.41,.04-.82,.04-1.23,0-1.33,.39-2.63,.89-3.87,1.5v4.36Zm10.92,24.51l.11-6.08h-5.18v6.08h5.07Zm0-6.72l.11-5.18h-5.18v5.18h5.07Zm0-5.93l.11-5.18h-5.18v5.18h5.07Zm0-5.93l.11-5.18h-5.18v5.18h5.07Zm0-5.93v-6.04c-.85-.25-1.55-.46-2.08-.46-.94,.44-1.96,.7-2.99,.75v5.75h5.07Zm.78,24.51l5.07-.11v-5.97h-5.07v6.08Zm23.21,11.4l7.29-16.04v-9.9c0,.13,0,.26,0,.39-.74,1.31-1.8,2.42-3.08,3.2-1.27,.79-2.73,1.23-4.22,1.3v21.05Zm39.24-26.23h-.04c2.82,.96,5.67,1.89,8.74,2.75v-3.82c-2.92-.89-5.81-1.82-8.7-2.86v3.93Zm41.56,46.99h36.21l1.37-30.41c-3.59,.32-7.33,.64-10.85,.64,.99,.84,1.79,1.89,2.34,3.07,.55,1.19,.83,2.48,.83,3.79,.08,1.24-.1,2.48-.51,3.64-.41,1.17-1.06,2.24-1.9,3.14-.84,.9-1.85,1.62-2.97,2.12-1.12,.49-2.33,.75-3.55,.75s-2.43-.25-3.55-.75c-1.12-.49-2.13-1.21-2.97-2.12-.84-.9-1.48-1.97-1.9-3.14-.41-1.17-.59-2.41-.51-3.64,0-1.31,.3-2.61,.85-3.79,.55-1.19,1.36-2.23,2.35-3.07-6.79-.21-13.56-.77-20.29-1.68l1.27,31.45h3.77Zm59.88,0h20.01v-38.88c-6.21,2.03-12.53,3.74-18.92,5.11,1.48,.88,2.67,2.17,3.44,3.72,.77,1.55,1.07,3.29,.88,5.02-.19,1.73-.87,3.36-1.96,4.7-1.09,1.34-2.53,2.33-4.16,2.86l.7,17.47Zm40.54,0l.04-17.87c0-7.5-1.16-10.61-2.43-12.26-1.03,1.44-2.47,2.52-4.12,3.11-1.18,.44-2.43,.62-3.69,.53-1.25-.09-2.47-.45-3.57-1.06-.86,3.15-1.24,6.42-1.13,9.68v17.87h14.9Zm-6.34-43.78l6.34,.07v-2.93c-2.15,.96-4.33,1.97-6.52,2.86h.18Zm12.08,43.78h2.68v-34.77l-2.68-5.75v40.52Zm12.5-13.76v13.76h6.45l-6.45-13.76Zm33.78,13.76h2.01v-62.64c-.66,.16-1.33,.23-2.01,.21v62.43Zm56.71,0v-17.87c.07-.94-.06-1.88-.37-2.77s-.79-1.7-1.43-2.39c-.63-.69-1.4-1.24-2.25-1.62-.85-.38-1.77-.57-2.7-.57s-1.85,.19-2.7,.57c-.85,.38-1.62,.93-2.25,1.62-.63,.69-1.12,1.51-1.43,2.39-.31,.89-.43,1.83-.37,2.77v17.87h13.49Zm0-42.13v-10.97c-.12-1.73-.89-3.35-2.14-4.53-1.25-1.18-2.9-1.84-4.61-1.84s-3.35,.66-4.61,1.84c-1.25,1.18-2.02,2.8-2.14,4.53v10.97h13.49Zm25.89,42.13l.07-95.05h-48.64c-.28,1.46-.92,2.83-1.87,3.97-.75,.91-1.67,1.67-2.71,2.22-1.04,.55-2.17,.89-3.34,1-1.17,.11-2.35-.02-3.46-.38-1.12-.36-2.16-.93-3.06-1.7-.94-.81-1.68-1.82-2.18-2.97v92.91h5.18v-51.42c0-25.01,21.7-22.58,27.48-32.84,5.74,10.26,27.44,7.83,27.44,32.84v51.42h5.11Zm50.9,0l.18-17.87c0-10.93-4.09-12.51-6.83-13.9-1.93-1.03-3.76-2.23-5.5-3.57-1.72,1.35-3.54,2.54-5.46,3.57-2.96,1.39-7.05,2.97-7.05,13.9v17.87h8.56v-10.04c-.05-.54,0-1.08,.18-1.59,.17-.51,.44-.98,.79-1.38,.36-.4,.79-.72,1.28-.93,.48-.22,1.01-.33,1.54-.33s1.05,.11,1.54,.33c.48,.22,.92,.54,1.28,.93,.36,.4,.63,.87,.79,1.38,.17,.51,.23,1.05,.18,1.59v10.04h8.53Zm0-43.78l.18-17.87c0-10.97-4.09-12.54-6.83-13.94-1.93-1.03-3.76-2.23-5.5-3.57-1.72,1.35-3.54,2.54-5.46,3.57-2.96,1.39-7.05,2.97-7.05,13.94v17.87h8.56v-9.93c-.05-.54,0-1.08,.18-1.59,.17-.51,.44-.98,.79-1.38,.36-.4,.79-.72,1.28-.93,.48-.22,1.01-.33,1.54-.33s1.05,.11,1.54,.33c.48,.22,.92,.54,1.28,.93,.36,.4,.63,.87,.79,1.38,.17,.51,.23,1.05,.18,1.59v9.93h8.53Zm33.22,43.78v-17.87c0-10.93-2.5-12.51-4.16-13.9-1.21-1.08-2.32-2.28-3.31-3.57-1,1.28-2.11,2.48-3.31,3.57-1.69,1.39-4.16,2.97-4.16,13.9v17.87h14.93Zm0-43.78v-17.87c0-10.97-2.5-12.54-4.16-13.94-1.21-1.08-2.32-2.28-3.31-3.57-1,1.28-2.11,2.48-3.31,3.57-1.69,1.39-4.16,2.97-4.16,13.94v17.87h14.93Zm36.74-80.22l.14-5.93c.02-.4-.05-.8-.21-1.17-.16-.37-.4-.69-.7-.94,0-.25-.1-.48-.27-.66-.18-.17-.41-.27-.65-.27s-.47,.1-.64,.27c-.18,.17-.27,.41-.27,.66-.31,.25-.56,.57-.72,.94-.16,.37-.23,.77-.2,1.17v5.93h3.52Zm4.93,0l.14-5.93c.02-.4-.05-.8-.21-1.17-.16-.37-.4-.69-.7-.94,0-.25-.1-.48-.27-.66-.18-.17-.41-.27-.65-.27s-.47,.1-.64,.27c-.18,.17-.27,.41-.27,.66-.31,.25-.56,.57-.72,.94-.16,.37-.23,.77-.2,1.17v5.93h3.52Zm62.34-38.91v-7.9c.05-.53-.05-1.06-.25-1.54-.21-.49-.54-.91-.94-1.24-.46-.42-.86-.9-1.19-1.43-.35,.52-.75,1-1.2,1.43-.41,.33-.74,.75-.96,1.24-.21,.49-.31,1.02-.28,1.55v7.9h4.83Zm6.49,0v-7.9c.04-.53-.05-1.06-.26-1.54-.21-.49-.53-.91-.94-1.24-.46-.42-.86-.9-1.19-1.43-.36,.52-.77,1-1.23,1.43-.4,.34-.72,.76-.93,1.25-.21,.48-.3,1.01-.27,1.54v7.9h4.83Zm38.95-5.36v-.11c-1.39,0-2.77,.28-4.07,.83-1.29,.55-2.46,1.34-3.44,2.35-.98,1.01-1.76,2.2-2.28,3.51-.53,1.31-.79,2.72-.77,4.14,0,2.12,.62,4.19,1.78,5.96,1.16,1.76,2.81,3.14,4.74,3.95,1.94,.81,4.06,1.02,6.11,.61,2.04-.41,3.93-1.43,5.41-2.93,1.48-1.5,2.48-3.41,2.9-5.49,.41-2.08,.2-4.23-.61-6.19-.8-1.96-2.15-3.63-3.89-4.81-1.74-1.18-3.78-1.81-5.87-1.81Zm-33.22,64.32l.15-12.9-.67-.79,.53,13.69Zm-.74-15.9h9.37l-1.23-3h-8.13v3Zm-.85-36.34h-.77l1.2,30.38h1.19v-30.38h-.39v-1.86h-1.23v1.86Zm58.16,154.91l-.04-72.51h-45.29v72.51h45.33Zm0-84.44l-.04-31.13h-45.29v31.13h45.33Zm0-40.09l-.04-12.83h-45.29v12.83h45.33Zm2.14-15.62l1.38-3h-52.84l1.23,3h50.23Z"/>
      <path class="cls-3" d="M1145.99,532.09l-11.52,.18-1.19,3h11.2l-2.75,3v30.95h3.98l-1.23,3-2.75,2.97v3.14h2.75v3h-2.75v106.24h-11.24v-26.12h-45.3v26.12h-11.2v-106.24h-2.15v-3h2.15v-3.14l-2.15-2.97-1.23-3h3.52v-31.13l-2.15-3h11.2l-1.19-3h-11.24v-2.97h3.52v-46.17h67.74v46.17h3.98v2.97Zm-37.19-45.35c-2.8,0-5.49,1.13-7.47,3.14-1.98,2.01-3.09,4.74-3.09,7.58,0,2.12,.62,4.19,1.78,5.96,1.16,1.76,2.81,3.14,4.75,3.95,1.93,.81,4.05,1.02,6.1,.61,2.04-.41,3.93-1.43,5.41-2.93,1.48-1.5,2.49-3.41,2.9-5.49,.41-2.08,.2-4.24-.61-6.19-.8-1.96-2.15-3.63-3.89-4.81-1.74-1.18-3.78-1.81-5.87-1.81Zm21.98,166.92v-72.33h-45.3v72.33h45.3Zm0-84.44v-30.95h-45.3v30.95h45.3Zm0-40.09v-12.65h-45.3v12.65h45.3Zm-47.45-15.62h50.23l1.19-3h-52.62l1.19,3Z"/>
      <path class="cls-3" d="M1123.66,544.59v16.22h-31.03v-16.22h31.03Z"/>
      <path class="cls-3" d="M1123.66,519.08h-31.03v6.61h31.03v-6.61Z"/>
      <path class="cls-3" d="M1108.8,505.39c-1.03,0-2.04-.2-2.99-.59-.95-.39-1.82-.98-2.54-1.71-.73-.73-1.3-1.61-1.69-2.57-.4-.96-.6-1.99-.6-3.03,0-1.56,.45-3.09,1.31-4.38,.85-1.3,2.07-2.31,3.48-2.91,1.42-.6,2.99-.76,4.5-.46,1.51,.3,2.89,1.05,3.98,2.15,1.1,1.1,1.84,2.51,2.14,4.03,.3,1.53,.15,3.12-.43,4.56-.59,1.44-1.58,2.68-2.86,3.55-1.27,.87-2.77,1.34-4.31,1.35Z"/>
      <path class="cls-3" d="M1022.5,490.78l.35-2.93h46.21v41.45h-2.54v2.82l1.33,3.29h-.67l1.87,2.86v30.95h-3.35l1.19,3,2.15,2.97v3.14h-2.15v3h2.22v106.24h-9.4v-149.51l-1.94-3.57h.77c-1.08-8.8-5.3-16.91-11.86-22.78-6.56-5.87-15.01-9.11-23.76-9.1h-8.1c-8.75,0-17.19,3.23-23.76,9.1-6.56,5.87-10.78,13.97-11.86,22.78h.77l-1.94,3.57v149.51h-9.44v-106.24h2.15v-3h-2.15v-3.14l2.15-2.97,1.23-3h-3.52v-31.12l2.04-2.86h-.85l1.38-3.29v-2.82h-2.57v-41.27h46.46l.32,2.93h.81l.7,7.15h4.19l.7-7.15h.81Zm.67,1.64h.07l-.7,6.97h-7.05l-.7-6.97h-.25c-10.17-.14-20.04,3.53-27.72,10.3-7.68,6.77-12.64,16.17-13.95,26.4v3.15l-.56,1.32h5.46c1.34-8.94,5.71-17.13,12.36-23.16,6.79-6.13,15.56-9.52,24.65-9.54h8.1c9.09,.03,17.86,3.42,24.66,9.54,6.62,6.04,10.98,14.22,12.32,23.16h5.53l-.52-1.32v-3.15c-1.31-10.24-6.28-19.64-13.97-26.41-7.69-6.77-17.56-10.43-27.74-10.29Z"/>
      <path class="cls-3" d="M37.83,684l-17.86,.36c-5.4-32.39-8.11-65.17-8.1-98.02C11.87,263.11,271.09,.11,589.55,.11s577.68,262.83,577.68,586.05c0,32.85-2.7,65.63-8.1,98.02h-17.86c5.56-32.37,8.35-65.16,8.35-98.02,0-313.39-251.32-568.36-560.07-568.36S29.48,272.58,29.48,585.98c0,32.86,2.79,65.65,8.35,98.02Z"/>
    </g>
    <circle class="cls-2" cx="1129.33" cy="52.37" r="48.37"/>
    <text class="cls-4" transform="translate(1094.44 70.55)"><tspan class="cls-5" x="0" y="0">T</tspan><tspan x="25.86" y="0">M</tspan></text>
  </g>
</svg>