<svg width="512" height="512" viewBox="0 0 512 512" fill="none" xmlns="http://www.w3.org/2000/svg">
<g clip-path="url(#clip0_1_2)">
<path d="M496 0H64C55.1634 0 48 7.16344 48 16V344C48 352.837 55.1634 360 64 360H496C504.837 360 512 352.837 512 344V16C512 7.16344 504.837 0 496 0Z" fill="#50D9D7"/>
<path d="M408 416H136V8.20408e-06H292.24C298.185 -0.00424801 304.014 1.64765 309.072 4.77046C314.131 7.89328 318.22 12.3635 320.88 17.68L327.12 30.32C329.78 35.6365 333.869 40.1067 338.928 43.2296C343.986 46.3524 349.815 48.0043 355.76 48H408V416Z" fill="#93E6E5"/>
<path d="M512 48V400C512 404.243 510.314 408.313 507.314 411.314C504.313 414.314 500.243 416 496 416H16C11.7565 416 7.68687 414.314 4.68629 411.314C1.68571 408.313 0 404.243 0 400V16C0 11.7565 1.68571 7.68688 4.68629 4.6863C7.68687 1.68572 11.7565 8.20408e-06 16 8.20408e-06H156.24C162.185 -0.00424801 168.014 1.64765 173.072 4.77046C178.131 7.89328 182.22 12.3635 184.88 17.68L191.12 30.32C193.78 35.6365 197.869 40.1067 202.928 43.2296C207.986 46.3524 213.815 48.0043 219.76 48H512Z" fill="#F3F3F3"/>
<path d="M480 32C484.418 32 488 28.4183 488 24C488 19.5817 484.418 16 480 16C475.582 16 472 19.5817 472 24C472 28.4183 475.582 32 480 32Z" fill="#00BEBD"/>
<path d="M448 32C452.418 32 456 28.4183 456 24C456 19.5817 452.418 16 448 16C443.582 16 440 19.5817 440 24C440 28.4183 443.582 32 448 32Z" fill="#00BEBD"/>
<path d="M416 32C420.418 32 424 28.4183 424 24C424 19.5817 420.418 16 416 16C411.582 16 408 19.5817 408 24C408 28.4183 411.582 32 416 32Z" fill="#00BEBD"/>
<path d="M160 32C164.418 32 168 28.4183 168 24C168 19.5817 164.418 16 160 16C155.582 16 152 19.5817 152 24C152 28.4183 155.582 32 160 32Z" fill="#93E6E5"/>
<path d="M168 240H88C86.7223 240.055 85.4499 239.804 84.2896 239.266C83.1292 238.728 82.1148 237.92 81.3312 236.909C80.5477 235.898 80.0178 234.714 79.7862 233.456C79.5546 232.199 79.6279 230.904 80 229.68L104 149.68C104.305 148.671 104.805 147.733 105.472 146.918C106.14 146.102 106.961 145.427 107.89 144.929C108.818 144.431 109.836 144.121 110.884 144.017C111.933 143.912 112.991 144.015 114 144.32C115.009 144.625 115.947 145.125 116.762 145.792C117.578 146.46 118.253 147.281 118.751 148.21C119.249 149.138 119.559 150.156 119.663 151.204C119.768 152.253 119.665 153.311 119.36 154.32L98.72 224H168C170.122 224 172.157 224.843 173.657 226.343C175.157 227.843 176 229.878 176 232C176 234.122 175.157 236.157 173.657 237.657C172.157 239.157 170.122 240 168 240Z" fill="#FFAC00"/>
<path d="M152 272C149.878 272 147.843 271.157 146.343 269.657C144.843 268.157 144 266.122 144 264V176C144 173.878 144.843 171.843 146.343 170.343C147.843 168.843 149.878 168 152 168C154.122 168 156.157 168.843 157.657 170.343C159.157 171.843 160 173.878 160 176V264C160 266.122 159.157 268.157 157.657 269.657C156.157 271.157 154.122 272 152 272ZM424 240H344C342.722 240.055 341.45 239.804 340.29 239.266C339.129 238.728 338.115 237.92 337.331 236.909C336.548 235.898 336.018 234.714 335.786 233.456C335.555 232.199 335.628 230.904 336 229.68L360 149.68C360.615 147.643 362.015 145.934 363.89 144.929C365.765 143.924 367.963 143.705 370 144.32C372.037 144.935 373.746 146.335 374.751 148.21C375.756 150.085 375.975 152.283 375.36 154.32L354.72 224H424C426.122 224 428.157 224.843 429.657 226.343C431.157 227.843 432 229.878 432 232C432 234.122 431.157 236.157 429.657 237.657C428.157 239.157 426.122 240 424 240Z" fill="#FFAC00"/>
<path d="M408 272C405.878 272 403.843 271.157 402.343 269.657C400.843 268.157 400 266.122 400 264V176C400 173.878 400.843 171.843 402.343 170.343C403.843 168.843 405.878 168 408 168C410.122 168 412.157 168.843 413.657 170.343C415.157 171.843 416 173.878 416 176V264C416 266.122 415.157 268.157 413.657 269.657C412.157 271.157 410.122 272 408 272ZM280 272H232C225.635 272 219.53 269.471 215.029 264.971C210.529 260.47 208 254.365 208 248V168C208 161.635 210.529 155.53 215.029 151.029C219.53 146.529 225.635 144 232 144H280C286.365 144 292.47 146.529 296.971 151.029C301.471 155.53 304 161.635 304 168V248C304 254.365 301.471 260.47 296.971 264.971C292.47 269.471 286.365 272 280 272ZM232 160C229.878 160 227.843 160.843 226.343 162.343C224.843 163.843 224 165.878 224 168V248C224 250.122 224.843 252.157 226.343 253.657C227.843 255.157 229.878 256 232 256H280C282.122 256 284.157 255.157 285.657 253.657C287.157 252.157 288 250.122 288 248V168C288 165.878 287.157 163.843 285.657 162.343C284.157 160.843 282.122 160 280 160H232Z" fill="#FFAC00"/>
<path d="M348.32 416H163.68L229.2 315.76C232.108 311.303 236.082 307.642 240.761 305.107C245.441 302.573 250.678 301.246 256 301.246C261.322 301.246 266.559 302.573 271.239 305.107C275.918 307.642 279.892 311.303 282.8 315.76L348.32 416Z" fill="#D9D9D9"/>
<path d="M242.64 324.48L136 487.28C134.421 489.708 133.531 492.519 133.425 495.413C133.319 498.307 134 501.176 135.396 503.714C136.792 506.251 138.85 508.362 141.352 509.821C143.853 511.281 146.704 512.034 149.6 512H362.4C365.296 512.034 368.147 511.281 370.648 509.821C373.15 508.362 375.208 506.251 376.604 503.714C378 501.176 378.681 498.307 378.575 495.413C378.469 492.519 377.579 489.708 376 487.28L269.36 324.48C267.903 322.269 265.919 320.453 263.587 319.197C261.256 317.941 258.649 317.284 256 317.284C253.351 317.284 250.744 317.941 248.413 319.197C246.081 320.453 244.097 322.269 242.64 324.48Z" fill="#FFAC00"/>
<path d="M256 448C253.803 447.991 251.688 447.168 250.063 445.691C248.438 444.213 247.418 442.186 247.2 440L241.6 384C241.387 381.981 241.601 379.941 242.227 378.01C242.854 376.079 243.879 374.302 245.237 372.793C246.595 371.285 248.255 370.078 250.109 369.253C251.963 368.427 253.97 368 256 368C258.03 368 260.037 368.427 261.891 369.253C263.745 370.078 265.405 371.285 266.763 372.793C268.121 374.302 269.146 376.079 269.773 378.01C270.399 379.941 270.613 381.981 270.4 384L264.8 440C264.582 442.186 263.562 444.213 261.937 445.691C260.312 447.168 258.197 447.991 256 448Z" fill="#F3F3F3"/>
<path d="M256 496C264.837 496 272 488.837 272 480C272 471.163 264.837 464 256 464C247.163 464 240 471.163 240 480C240 488.837 247.163 496 256 496Z" fill="#F3F3F3"/>
<path d="M48 312H168V328H48V312ZM48 88H96V104H48V88ZM48 352H128V368H48V352Z" fill="#D9D9D9"/>
<path d="M48 488C46.411 488.009 44.8553 487.545 43.5311 486.667C42.2069 485.788 41.1744 484.535 40.565 483.068C39.9557 481.6 39.7972 479.985 40.1098 478.427C40.4223 476.869 41.1918 475.439 42.32 474.32L74.32 442.32C75.8264 440.814 77.8696 439.967 80 439.967C82.1304 439.967 84.1736 440.814 85.68 442.32C87.1864 443.826 88.0327 445.87 88.0327 448C88.0327 450.13 87.1864 452.174 85.68 453.68L53.68 485.68C52.9325 486.421 52.046 487.008 51.0713 487.406C50.0966 487.804 49.0529 488.006 48 488Z" fill="#FFAC00"/>
<path d="M80 488C78.9472 488.006 77.9035 487.804 76.9288 487.406C75.9541 487.008 75.0675 486.421 74.32 485.68L42.32 453.68C40.8136 452.174 39.9673 450.13 39.9673 448C39.9673 445.87 40.8136 443.826 42.32 442.32C43.8264 440.814 45.8696 439.967 48 439.967C50.1304 439.967 52.1736 440.814 53.68 442.32L85.68 474.32C86.8082 475.439 87.5777 476.869 87.8902 478.427C88.2028 479.985 88.0443 481.6 87.435 483.068C86.8256 484.535 85.7931 485.788 84.4689 486.667C83.1447 487.545 81.589 488.009 80 488ZM432 488C430.411 488.009 428.855 487.545 427.531 486.667C426.207 485.788 425.174 484.535 424.565 483.068C423.956 481.6 423.797 479.985 424.11 478.427C424.422 476.869 425.192 475.439 426.32 474.32L458.32 442.32C459.826 440.814 461.87 439.967 464 439.967C466.13 439.967 468.174 440.814 469.68 442.32C471.186 443.826 472.033 445.87 472.033 448C472.033 450.13 471.186 452.174 469.68 453.68L437.68 485.68C436.932 486.421 436.046 487.008 435.071 487.406C434.097 487.804 433.053 488.006 432 488Z" fill="#FFAC00"/>
<path d="M464 488C462.947 488.006 461.903 487.804 460.929 487.406C459.954 487.008 459.068 486.421 458.32 485.68L426.32 453.68C424.814 452.174 423.967 450.13 423.967 448C423.967 445.87 424.814 443.826 426.32 442.32C427.826 440.814 429.87 439.967 432 439.967C434.13 439.967 436.174 440.814 437.68 442.32L469.68 474.32C470.808 475.439 471.578 476.869 471.89 478.427C472.203 479.985 472.044 481.6 471.435 483.068C470.826 484.535 469.793 485.788 468.469 486.667C467.145 487.545 465.589 488.009 464 488Z" fill="#FFAC00"/>
<path d="M440 96C444.418 96 448 92.4183 448 88C448 83.5817 444.418 80 440 80C435.582 80 432 83.5817 432 88C432 92.4183 435.582 96 440 96Z" fill="#D9D9D9"/>
<path d="M472 96C476.418 96 480 92.4183 480 88C480 83.5817 476.418 80 472 80C467.582 80 464 83.5817 464 88C464 92.4183 467.582 96 472 96Z" fill="#D9D9D9"/>
<path d="M472 128C470.947 128.006 469.903 127.804 468.929 127.406C467.954 127.008 467.068 126.421 466.32 125.68C464.973 124.311 463.366 123.224 461.594 122.482C459.823 121.739 457.921 121.357 456 121.357C454.079 121.357 452.177 121.739 450.406 122.482C448.634 123.224 447.027 124.311 445.68 125.68C444.174 127.186 442.13 128.033 440 128.033C437.87 128.033 435.826 127.186 434.32 125.68C432.814 124.174 431.967 122.13 431.967 120C431.967 117.87 432.814 115.826 434.32 114.32C440.078 108.585 447.873 105.365 456 105.365C464.127 105.365 471.922 108.585 477.68 114.32C478.808 115.439 479.578 116.869 479.89 118.427C480.203 119.985 480.044 121.6 479.435 123.068C478.826 124.535 477.793 125.788 476.469 126.667C475.145 127.545 473.589 128.009 472 128ZM112 88H144V104H112V88Z" fill="#D9D9D9"/>
</g>
<defs>
<clipPath id="clip0_1_2">
<rect width="512" height="512" fill="white"/>
</clipPath>
</defs>
</svg>
